<svg width="27" height="27" viewBox="0 0 27 27" fill="none" xmlns="http://www.w3.org/2000/svg">
<path d="M24.864 0H26.5216V19.0624C26.5216 21.3516 23.9242 23.2064 20.72 23.2064C17.5159 23.2064 14.9184 21.3516 14.9184 19.0624C14.9184 16.7733 17.5159 14.9184 20.72 14.9184C22.3428 14.9184 23.8115 15.3942 24.864 16.1633V6.63041L11.6032 9.57763V22.3776C11.6032 24.6668 9.00576 26.5216 5.80161 26.5216C2.59746 26.5216 0 24.6668 0 22.3776C0 20.0885 2.59746 18.2336 5.80161 18.2336C7.4244 18.2336 8.89304 18.7094 9.94562 19.4785V3.31521L24.864 0Z" fill="#3F3F46"/>
</svg>
