<svg width="21" height="14" viewBox="0 0 21 14" fill="none" xmlns="http://www.w3.org/2000/svg">
    <path d="M20.5739 2.1893C20.342 1.3251 19.6608 0.648148 18.8057 0.417696C17.2405 2.06041e-07 10.9941 0 10.9941 0C10.9941 0 4.73327 2.06041e-07 3.18255 0.417696C2.32747 0.648148 1.64631 1.3251 1.41443 2.1893C0.994141 3.74486 0.994141 7 0.994141 7C0.994141 7 0.994141 10.2551 1.41443 11.8107C1.64631 12.6749 2.32747 13.3519 3.18255 13.5823C4.74776 14 10.9941 14 10.9941 14C10.9941 14 17.255 14 18.8057 13.5823C19.6608 13.3519 20.342 12.6749 20.5739 11.8107C20.9941 10.2551 20.9941 7 20.9941 7C20.9941 7 20.9941 3.74486 20.5739 2.1893ZM8.95066 9.95267V4.04732L14.1825 7L8.95066 9.95267Z"
          fill="#EC1B36"/>
</svg>
