<svg width="24" height="25" viewBox="0 0 24 25" fill="none" xmlns="http://www.w3.org/2000/svg">
<path d="M6.643 13.6144L17.414 2.84235C17.6066 2.64987 17.8677 2.54175 18.14 2.54175C18.4123 2.54175 18.6734 2.64987 18.866 2.84235L20.7 4.67635C20.8925 4.86893 21.0006 5.13007 21.0006 5.40235C21.0006 5.67463 20.8925 5.93577 20.7 6.12835L9.928 16.8994L5 18.5424L6.643 13.6144ZM21 20.5424H3C2.73478 20.5424 2.48043 20.6477 2.29289 20.8352C2.10536 21.0228 2 21.2771 2 21.5424C2 21.8076 2.10536 22.0619 2.29289 22.2495C2.48043 22.437 2.73478 22.5424 3 22.5424H21C21.2652 22.5424 21.5196 22.437 21.7071 22.2495C21.8946 22.0619 22 21.8076 22 21.5424C22 21.2771 21.8946 21.0228 21.7071 20.8352C21.5196 20.6477 21.2652 20.5424 21 20.5424Z" fill="#131415"/>
</svg>
