<svg width="25" height="25" viewBox="0 0 25 25" fill="none" xmlns="http://www.w3.org/2000/svg">
<g clip-path="url(#clip0_3382_4770)">
<g clip-path="url(#clip1_3382_4770)">
<path d="M8.235 1.31653C3.97047 1.31653 0.5009 4.78609 0.5009 9.05063C0.5009 10.8801 1.13181 12.613 2.29099 14L0.706674 15.5843C0.264189 16.0273 0.579647 16.7847 1.204 16.7847H8.235C12.4995 16.7847 15.9691 13.3152 15.9691 9.05063C15.9691 4.78609 12.4995 1.31653 8.235 1.31653ZM8.235 12.5661C6.29632 12.5661 4.7195 10.9893 4.7195 9.05063C4.7195 8.66252 5.03449 8.34753 5.4226 8.34753C5.81071 8.34753 6.1257 8.66252 6.1257 9.05063C6.1257 10.2136 7.07208 11.1599 8.235 11.1599C9.39793 11.1599 10.3443 10.2136 10.3443 9.05063C10.3443 8.66252 10.6593 8.34753 11.0474 8.34753C11.4355 8.34753 11.7505 8.66252 11.7505 9.05063C11.7505 10.9893 10.1737 12.5661 8.235 12.5661Z" fill="white"/>
<path d="M24.2924 22.5684L22.7081 20.9841C23.8673 19.5971 24.4982 17.8642 24.4982 16.0348C24.4982 11.9666 21.3408 8.62174 17.3482 8.32269C17.365 8.54768 17.3735 8.77455 17.3735 9.00376C17.3735 13.6813 13.8416 17.5492 9.30469 18.0817C10.2047 21.3563 13.2078 23.7689 16.7641 23.7689H23.7951C24.4195 23.7689 24.7349 23.0114 24.2924 22.5684ZM19.5775 19.5971C19.1893 19.5971 18.8744 19.2822 18.8744 18.894C18.8744 17.7311 17.928 16.7847 16.7651 16.7847C15.6021 16.7847 14.6557 17.7311 14.6557 18.894C14.6557 19.2822 14.3408 19.5971 13.9526 19.5971C13.5645 19.5971 13.2495 19.2822 13.2495 18.894C13.2495 16.9554 14.8264 15.3785 16.7651 15.3785C18.7037 15.3785 20.2806 16.9554 20.2806 18.894C20.2806 19.2822 19.9656 19.5971 19.5775 19.5971Z" fill="white"/>
</g>
</g>
<defs>
<clipPath id="clip0_3382_4770">
<rect width="24" height="24" fill="white" transform="translate(0.5 0.542725)"/>
</clipPath>
<clipPath id="clip1_3382_4770">
<rect width="24" height="24" fill="white" transform="translate(0.5 0.542725)"/>
</clipPath>
</defs>
</svg>
