<svg width="27" height="26" viewBox="0 0 27 26" fill="none" xmlns="http://www.w3.org/2000/svg">
<path d="M13.5625 6.579C15.4827 6.579 16.778 7.37934 17.5166 8.04812L20.4026 5.32915C18.6301 3.73943 16.3235 2.76367 13.5625 2.76367C9.56297 2.76367 6.10884 4.97832 4.42723 8.20161L7.73365 10.6794C8.56309 8.30028 10.8583 6.579 13.5625 6.579Z" fill="#EA4335"/>
<path d="M23.3795 12.8502C23.3795 12.0389 23.3113 11.4468 23.1636 10.8329H13.5625V14.4947H19.1982C19.0845 15.4047 18.471 16.7751 17.1075 17.6961L20.3344 20.1081C22.266 18.3868 23.3795 15.8542 23.3795 12.8502Z" fill="#4285F4"/>
<path d="M7.74498 14.5824C7.5291 13.9684 7.40412 13.3106 7.40412 12.6309C7.40412 11.9511 7.52913 11.2933 7.73365 10.6794L4.42723 8.20161C3.73413 9.53917 3.33643 11.0412 3.33643 12.6309C3.33643 14.2206 3.7341 15.7226 4.4272 17.0602L7.74498 14.5824Z" fill="#FBBC05"/>
<path d="M13.5624 22.4981C16.3235 22.4981 18.6414 21.621 20.3344 20.1081L17.1075 17.6961C16.244 18.2771 15.085 18.6828 13.5624 18.6828C10.8582 18.6828 8.56307 16.9615 7.74498 14.5824L4.43854 17.0602C6.12016 20.2834 9.56292 22.4981 13.5624 22.4981Z" fill="#34A853"/>
</svg>
