<svg width="32" height="32" viewBox="0 0 32 32" fill="none" xmlns="http://www.w3.org/2000/svg">
<path d="M27.4535 29.3337C27.4535 24.1737 22.3202 20.0003 16.0002 20.0003C9.68021 20.0003 4.54688 24.1737 4.54688 29.3337M16.0002 16.0003C17.7683 16.0003 19.464 15.2979 20.7143 14.0477C21.9645 12.7975 22.6669 11.1018 22.6669 9.33366C22.6669 7.56555 21.9645 5.86986 20.7143 4.61961C19.464 3.36937 17.7683 2.66699 16.0002 2.66699C14.2321 2.66699 12.5364 3.36937 11.2862 4.61961C10.0359 5.86986 9.33354 7.56555 9.33354 9.33366C9.33354 11.1018 10.0359 12.7975 11.2862 14.0477C12.5364 15.2979 14.2321 16.0003 16.0002 16.0003Z" stroke="#3F3F46" stroke-width="1.5" stroke-linecap="round" stroke-linejoin="round"/>
</svg>
