<svg width="24" height="24" viewBox="0 0 24 24" fill="none" xmlns="http://www.w3.org/2000/svg">
<path d="M18.4698 16.83L18.8598 19.99C18.9598 20.82 18.0698 21.4 17.3598 20.97L13.1698 18.48C12.7098 18.48 12.2598 18.45 11.8198 18.39C12.5778 17.5113 12.9964 16.3904 12.9998 15.23C12.9998 12.39 10.5398 10.09 7.49984 10.09C6.33984 10.09 5.26984 10.42 4.37984 11C4.34984 10.75 4.33984 10.5 4.33984 10.24C4.33984 5.69 8.28984 2 13.1698 2C18.0498 2 21.9998 5.69 21.9998 10.24C21.9998 12.94 20.6098 15.33 18.4698 16.83Z" stroke="#A1A1AA" stroke-width="1.5" stroke-linecap="round" stroke-linejoin="round"/>
<path d="M13 15.2301C13 16.4201 12.56 17.5201 11.82 18.3901C10.83 19.5901 9.26 20.3601 7.5 20.3601L4.89 21.9101C4.45 22.1801 3.89 21.8101 3.95 21.3001L4.2 19.3301C2.86 18.4001 2 16.9101 2 15.2301C2 13.4701 2.94 11.9201 4.38 11.0001C5.27 10.4201 6.34 10.0901 7.5 10.0901C10.54 10.0901 13 12.3901 13 15.2301Z" stroke="#A1A1AA" stroke-width="1.5" stroke-linecap="round" stroke-linejoin="round"/>
</svg>
