<svg width="24" height="24" viewBox="0 0 24 24" fill="none" xmlns="http://www.w3.org/2000/svg">
<g id="blog">
<path id="Vector 1157" d="M12.6 5H5.66667C4.77778 5 3 5.64286 3 8.21429C3 10.7857 3 16.4286 3 18.9286C3 19.2857 3.21333 20 4.06667 20C4.92 20 6.55556 18.9286 7.26667 18.3929H16.3333C17.2222 18.3929 19 17.8571 19 15.7143C19 13.5714 19 13.0357 19 13.0357" stroke="#A1A1AA" stroke-width="1.5" stroke-linecap="round"/>
<path id="Vector 1158" d="M6 11H8" stroke="#A1A1AA" stroke-width="1.5" stroke-linecap="round"/>
<path id="Vector 1159" d="M6 14H8" stroke="#A1A1AA" stroke-width="1.5" stroke-linecap="round"/>
<path id="Vector 1160" d="M18.2987 4.50266L12.7391 10.1376C12.2014 10.6827 11.2566 12.3916 11.2566 13.8943C13.0357 13.8943 14.4688 12.8925 14.963 12.3916L20.5225 6.75664C21.0167 6.25576 21.7827 5.02859 20.8932 4.12699C20.0036 3.2254 18.7929 4.00177 18.2987 4.50266Z" stroke="#A1A1AA" stroke-width="1.5" stroke-linecap="round" stroke-linejoin="round"/>
</g>
</svg>
