<svg width="24" height="24" viewBox="0 0 24 24" fill="none" xmlns="http://www.w3.org/2000/svg">
<g id="message-square-question">
<path id="Vector 1157" d="M18.3333 4H11.4H5.66667C2.83333 4 3 7 3 7.21429V15.7143C3 17.8571 4.77778 18.3929 5.66667 18.3929H16.7333C17.4444 18.9286 19.08 20 19.9333 20C20.7867 20 21 19.2857 21 18.9286V7.21429C21 4.64286 19.2222 4 18.3333 4Z" stroke="#A1A1AA" stroke-width="1.5" stroke-linecap="round"/>
<circle id="Ellipse 322" cx="12" cy="15" r="1" fill="#A1A1AA"/>
<path id="Ellipse 323" d="M12 12C12.5 11.5 14 10.5 14 9C14 7.89543 13.1046 7 12 7C10.8954 7 10 8 10 9" stroke="#A1A1AA" stroke-width="1.5" stroke-linecap="round"/>
</g>
</svg>
