<svg width="960" height="240" viewBox="0 0 960 240" fill="none" xmlns="http://www.w3.org/2000/svg">
<g clip-path="url(#clip0_3439_5159)">
<rect width="960" height="240" fill="#E41035"/>
<path d="M727.401 -23.2256L1203.17 -23.2256V259.003L553.656 259.003L727.401 -23.2256Z" fill="white"/>
<g opacity="0.6">
<path d="M803.062 90.6649L840.553 113.153L803.062 135.64V90.6649ZM893.375 113.153C893.38 125.945 890.084 138.522 883.805 149.667C877.527 160.813 868.478 170.149 857.535 176.773C846.591 183.397 834.124 187.085 821.337 187.48C808.551 187.875 795.88 184.964 784.548 179.028L751.223 187.368C750.803 187.475 750.371 187.529 749.937 187.528C749.131 187.527 748.334 187.343 747.609 186.99C746.884 186.636 746.249 186.121 745.752 185.485C745.255 184.849 744.91 184.108 744.742 183.319C744.575 182.53 744.589 181.713 744.784 180.93L753.125 147.604C747.887 137.611 744.991 126.556 744.658 115.278C744.324 104 746.56 92.7932 751.198 82.5071C755.836 72.2211 762.753 63.1251 771.426 55.9078C780.099 48.6904 790.3 43.541 801.258 40.8494C812.215 38.1577 823.641 37.9945 834.671 40.3719C845.701 42.7493 856.046 47.6052 864.921 54.5717C873.797 61.5383 880.971 70.4329 885.901 80.5823C890.831 90.7316 893.386 101.869 893.375 113.153ZM856.187 113.153C856.187 112.236 855.95 111.335 855.498 110.537C855.047 109.739 854.397 109.072 853.611 108.6L800.486 76.7249C799.68 76.2406 798.76 75.979 797.82 75.9666C796.879 75.9543 795.953 76.1918 795.134 76.6547C794.316 77.1177 793.635 77.7896 793.161 78.6018C792.687 79.414 792.438 80.3374 792.437 81.2777V145.028C792.438 145.968 792.687 146.891 793.161 147.704C793.635 148.516 794.316 149.188 795.134 149.651C795.953 150.114 796.879 150.351 797.82 150.339C798.76 150.326 799.68 150.065 800.486 149.58L853.611 117.705C854.397 117.233 855.047 116.566 855.498 115.768C855.95 114.97 856.187 114.069 856.187 113.153Z" fill="url(#paint0_linear_3439_5159)"/>
</g>
<path d="M140.188 103.315H109.719V108.097H134.328V108.284C134.328 110.487 134.305 112.69 134.211 115.034L108.406 115.972L109.156 120.753L133.906 119.534C133.602 122.417 133.109 125.558 132.266 129.097L138.219 129.659C140.164 120.401 140.164 114.495 140.188 108.284V103.315ZM105.266 137.112H144.172V132.237H105.266V137.112ZM181.556 99.5654H175.603V142.315H181.556V99.5654ZM148.04 107.956H162.243V114.847H148.087V132.331H151.931C159.712 132.331 166.063 132.073 173.071 130.831L172.556 126.003C166.298 127.034 160.79 127.362 154.274 127.409V119.581H168.337V103.128H148.04V107.956ZM223.299 99.5654H217.58V142.222H223.299V99.5654ZM186.689 118.034C186.689 127.62 190.322 133.55 195.971 133.55C201.221 133.55 204.807 128.464 205.322 120.097H208.768V140.253H214.393V100.175H208.768V115.362H205.275C204.619 107.394 201.103 102.589 195.971 102.612C190.322 102.589 186.689 108.495 186.689 118.034ZM192.221 118.034C192.174 111.495 193.58 108.237 195.971 108.237C198.432 108.237 199.885 111.495 199.861 118.034C199.885 124.597 198.432 127.831 195.971 127.784C193.58 127.831 192.174 124.597 192.221 118.034ZM262.558 99.5654H256.511V142.315H262.558V99.5654ZM228.104 117.753C228.081 127.128 232.839 132.987 239.401 132.987C245.823 132.987 250.604 127.128 250.604 117.753C250.604 108.448 245.823 102.565 239.401 102.565C232.839 102.565 228.081 108.448 228.104 117.753ZM233.87 117.753C233.847 111.425 236.073 107.956 239.401 107.956C242.636 107.956 244.815 111.425 244.839 117.753C244.815 124.104 242.636 127.573 239.401 127.55C236.073 127.573 233.847 124.104 233.87 117.753ZM303.363 99.5654H297.457V114.612H289.957V119.44H297.457V142.315H303.363V99.5654ZM269.332 132.659H272.707C280.019 132.636 285.598 132.425 291.832 131.487L291.223 126.706C285.949 127.526 281.215 127.737 275.285 127.784V119.722H287.707V115.034H275.285V107.956H289.254V103.128H269.332V132.659ZM351.834 99.5654H345.787V130.128H351.834V116.44H357.599V111.519H351.834V99.5654ZM317.709 121.222L320.193 125.956C332.99 122.347 340.185 114.284 340.209 102.753H319.584V107.628H333.623C332.685 113.628 327.271 118.573 317.709 121.222ZM324.084 141.472H353.287V136.69H330.131V126.987H324.084V141.472ZM394.467 99.5654H388.514V107.065H383.077V111.847H388.514V115.55H383.077V120.472H388.514V130.972H394.467V99.5654ZM358.514 120.94L359.124 125.815C365.897 125.815 375.225 125.628 383.217 124.315L382.983 119.956C381.647 120.097 380.241 120.237 378.811 120.354V107.394H382.327V102.612H359.592V107.394H363.061V120.917C361.467 120.94 359.921 120.94 358.514 120.94ZM366.108 141.472H395.499V136.69H372.108V128.628H366.108V141.472ZM368.827 120.823V107.394H373.092V120.683L368.827 120.823ZM438.039 119.065H399.039V123.94H438.039V119.065ZM403.492 134.347C403.492 139.386 409.117 142.245 418.445 142.222C427.703 142.245 433.258 139.386 433.304 134.347C433.258 129.331 427.703 126.495 418.445 126.519C409.117 126.495 403.492 129.331 403.492 134.347ZM403.773 116.065H433.586V111.331H409.726V105.519H433.351V100.69H403.773V116.065ZM409.586 134.347C409.562 132.19 412.539 131.065 418.445 131.065C424.234 131.065 427.281 132.19 427.304 134.347C427.281 136.597 424.234 137.675 418.445 137.675C412.539 137.675 409.562 136.597 409.586 134.347ZM478.563 122.44H462.016V119.347H474.626V114.753H450.344V111.94H473.829V100.362H444.297V105.003H467.829V107.628H444.391V119.347H456.063V122.44H439.516V127.222H478.563V122.44ZM443.876 134.347H468.016V142.034H474.063V129.659H443.876V134.347Z" fill="white"/>
</g>
<defs>
<linearGradient id="paint0_linear_3439_5159" x1="819" y1="38.7021" x2="819" y2="187.528" gradientUnits="userSpaceOnUse">
<stop stop-color="#E41035"/>
<stop offset="1" stop-color="#F896A7"/>
</linearGradient>
<clipPath id="clip0_3439_5159">
<rect width="960" height="240" fill="white"/>
</clipPath>
</defs>
</svg>
