<svg width="32" height="32" viewBox="0 0 32 32" fill="none" xmlns="http://www.w3.org/2000/svg">
<path d="M29.3346 14.5337V5.46699C29.3346 3.46699 28.4813 2.66699 26.3613 2.66699H20.9746C18.8546 2.66699 18.0013 3.46699 18.0013 5.46699V14.5337C18.0013 16.5337 18.8546 17.3337 20.9746 17.3337H26.3613C28.4813 17.3337 29.3346 16.5337 29.3346 14.5337ZM29.3346 26.5337V24.1337C29.3346 22.1337 28.4813 21.3337 26.3613 21.3337H20.9746C18.8546 21.3337 18.0013 22.1337 18.0013 24.1337V26.5337C18.0013 28.5337 18.8546 29.3337 20.9746 29.3337H26.3613C28.4813 29.3337 29.3346 28.5337 29.3346 26.5337ZM14.0013 17.467V26.5337C14.0013 28.5337 13.148 29.3337 11.028 29.3337H5.6413C3.5213 29.3337 2.66797 28.5337 2.66797 26.5337V17.467C2.66797 15.467 3.5213 14.667 5.6413 14.667H11.028C13.148 14.667 14.0013 15.467 14.0013 17.467ZM14.0013 5.46699V7.86699C14.0013 9.86699 13.148 10.667 11.028 10.667H5.6413C3.5213 10.667 2.66797 9.86699 2.66797 7.86699V5.46699C2.66797 3.46699 3.5213 2.66699 5.6413 2.66699H11.028C13.148 2.66699 14.0013 3.46699 14.0013 5.46699Z"/>
</svg>
