<svg width="32" height="32" viewBox="0 0 32 32" fill="none" xmlns="http://www.w3.org/2000/svg">
<path d="M24.0126 11.9866L20.0126 7.98659M4.66594 27.3333C5.7726 28.4399 7.55927 28.4399 8.66594 27.3333L25.9993 9.99992C27.1059 8.89326 27.1059 7.10659 25.9993 5.99992C24.8926 4.89326 23.1059 4.89326 21.9993 5.99992L4.66594 23.3333C3.55927 24.4399 3.55927 26.2266 4.66594 27.3333Z" stroke="#3F3F46" stroke-width="1.5" stroke-linecap="round" stroke-linejoin="round"/>
<path d="M11.3333 3.25366L13.3333 2.66699L12.7467 4.66699L13.3333 6.66699L11.3333 6.08033L9.33333 6.66699L9.92 4.66699L9.33333 2.66699L11.3333 3.25366ZM6 11.2537L8 10.667L7.41333 12.667L8 14.667L6 14.0803L4 14.667L4.58667 12.667L4 10.667L6 11.2537ZM26 17.9203L28 17.3337L27.4133 19.3337L28 21.3337L26 20.747L24 21.3337L24.5867 19.3337L24 17.3337L26 17.9203Z" stroke="#3F3F46" stroke-width="1.5" stroke-linecap="round" stroke-linejoin="round"/>
</svg>
