<svg width="21" height="20" viewBox="0 0 21 20" fill="none" xmlns="http://www.w3.org/2000/svg">
<g id="calendar">
<path id="Vector" fill-rule="evenodd" clip-rule="evenodd" d="M6.5 2C6.23478 2 5.98043 2.10536 5.79289 2.29289C5.60536 2.48043 5.5 2.73478 5.5 3V4H4.5C3.96957 4 3.46086 4.21071 3.08579 4.58579C2.71071 4.96086 2.5 5.46957 2.5 6V16C2.5 16.5304 2.71071 17.0391 3.08579 17.4142C3.46086 17.7893 3.96957 18 4.5 18H16.5C17.0304 18 17.5391 17.7893 17.9142 17.4142C18.2893 17.0391 18.5 16.5304 18.5 16V6C18.5 5.46957 18.2893 4.96086 17.9142 4.58579C17.5391 4.21071 17.0304 4 16.5 4H15.5V3C15.5 2.73478 15.3946 2.48043 15.2071 2.29289C15.0196 2.10536 14.7652 2 14.5 2C14.2348 2 13.9804 2.10536 13.7929 2.29289C13.6054 2.48043 13.5 2.73478 13.5 3V4H7.5V3C7.5 2.73478 7.39464 2.48043 7.20711 2.29289C7.01957 2.10536 6.76522 2 6.5 2ZM6.5 7C6.23478 7 5.98043 7.10536 5.79289 7.29289C5.60536 7.48043 5.5 7.73478 5.5 8C5.5 8.26522 5.60536 8.51957 5.79289 8.70711C5.98043 8.89464 6.23478 9 6.5 9H14.5C14.7652 9 15.0196 8.89464 15.2071 8.70711C15.3946 8.51957 15.5 8.26522 15.5 8C15.5 7.73478 15.3946 7.48043 15.2071 7.29289C15.0196 7.10536 14.7652 7 14.5 7H6.5Z" fill="#F0516D"/>
</g>
</svg>
