<svg width="22" height="22" viewBox="0 0 22 22" fill="none" xmlns="http://www.w3.org/2000/svg">
<g id="ic/22_filters_1">
<path id="shape" d="M3.66406 4.58333L9.16406 4.58333M9.16406 4.58333C9.16406 5.59586 9.98487 6.41667 10.9974 6.41667C12.0099 6.41667 12.8307 5.59586 12.8307 4.58333M9.16406 4.58333C9.16406 3.57081 9.98487 2.75 10.9974 2.75C12.0099 2.75 12.8307 3.57081 12.8307 4.58333M12.8307 4.58333L18.3307 4.58333M3.66406 11H14.6641M14.6641 11C14.6641 12.0125 15.4849 12.8333 16.4974 12.8333C17.5099 12.8333 18.3307 12.0125 18.3307 11C18.3307 9.98748 17.5099 9.16667 16.4974 9.16667C15.4849 9.16667 14.6641 9.98748 14.6641 11ZM7.33073 17.4167H18.3307M7.33073 17.4167C7.33073 16.4041 6.50992 15.5833 5.4974 15.5833C4.48487 15.5833 3.66406 16.4041 3.66406 17.4167C3.66406 18.4292 4.48487 19.25 5.4974 19.25C6.50992 19.25 7.33073 18.4292 7.33073 17.4167Z" stroke="#18181B" stroke-width="1.5" stroke-linecap="round"/>
</g>
</svg>
