<svg width="18" height="18" viewBox="0 0 18 18" fill="none" xmlns="http://www.w3.org/2000/svg">
<path d="M9 16.5C13.1421 16.5 16.5 13.1421 16.5 9C16.5 4.85786 13.1421 1.5 9 1.5C4.85786 1.5 1.5 4.85786 1.5 9C1.5 13.1421 4.85786 16.5 9 16.5Z" fill="#FDE7EB" stroke="#F07288" stroke-linecap="round" stroke-linejoin="round"/>
<path d="M6.81641 6.74945C6.99273 6.2482 7.34077 5.82553 7.79887 5.5563C8.25697 5.28707 8.79558 5.18865 9.31929 5.27848C9.843 5.36831 10.318 5.64059 10.6602 6.0471C11.0024 6.4536 11.1897 6.96809 11.1889 7.49945C11.1889 8.99945 8.93891 9.74945 8.93891 9.74945V10.6065" stroke="#F0516D" stroke-linecap="round" stroke-linejoin="round"/>
<path d="M9 12.75H9.0075" stroke="#F0516D" stroke-linecap="round" stroke-linejoin="round"/>
</svg>
