<svg width="17" height="16" viewBox="0 0 17 16" fill="none" xmlns="http://www.w3.org/2000/svg">
<path d="M5.737 6.88148L11.2604 4.11979M11.263 11.8815L5.74483 9.12244M16 3C16 4.38071 14.8807 5.5 13.5 5.5C12.1193 5.5 11 4.38071 11 3C11 1.61929 12.1193 0.5 13.5 0.5C14.8807 0.5 16 1.61929 16 3ZM6 8C6 9.38071 4.88071 10.5 3.5 10.5C2.11929 10.5 1 9.38071 1 8C1 6.61929 2.11929 5.5 3.5 5.5C4.88071 5.5 6 6.61929 6 8ZM16 13C16 14.3807 14.8807 15.5 13.5 15.5C12.1193 15.5 11 14.3807 11 13C11 11.6193 12.1193 10.5 13.5 10.5C14.8807 10.5 16 11.6193 16 13Z" stroke="#3F3F46"/>
</svg>
