<svg width="920" height="148" viewBox="0 0 920 148" fill="none" xmlns="http://www.w3.org/2000/svg">
<rect y="28" width="120" height="120" rx="60" fill="#27272A"/>
<path d="M37.8496 89.2109V91.4023H30.2441V97.9766H27.5371V91.4023H20.0176V89.2109H37.8496ZM20.8984 85.9238C24.8516 85.4404 27.043 83.5283 27.333 81.6055H21.6289V79.457H36.2598V81.6055H30.5557C30.835 83.5283 32.9941 85.4404 37.0117 85.9238L36.0234 88.0723C32.5859 87.6104 30.126 86.1494 28.9443 84.1406C27.752 86.1494 25.3135 87.6104 21.9082 88.0723L20.8984 85.9238ZM55.9395 78.4258V97.9766H53.3398V78.4258H55.9395ZM38.623 92.2617C41.502 90.4893 42.5762 86.9873 42.5762 83.668V82.6152H39.375V80.4238H48.1836V82.6152H45.2188V83.668C45.208 86.9121 46.2285 90.1992 49.0859 91.832L47.4746 93.8516C45.7236 92.8203 44.585 91.0801 43.9189 88.9746C43.2529 91.252 42.0713 93.1855 40.2773 94.2812L38.623 92.2617ZM46.7871 87.3418V85.1289H49.3652V78.748H51.9434V97.0742H49.3652V87.3418H46.7871ZM70.4414 81.7773C70.4414 84.3018 71.7949 86.8154 74.9102 87.8574L73.4277 90.0059C71.3545 89.2432 69.9258 87.8037 69.0986 85.9883C68.2607 88.04 66.7354 89.6406 64.4688 90.457L62.9863 88.3086C66.252 87.2344 67.6592 84.5596 67.6699 81.7559V79.6289H70.4414V81.7773ZM66.5742 97.6328V91.3594H69.3457V95.4414H80.002V97.6328H66.5742ZM73.1914 84.8066V82.5938H76.8652V78.4473H79.5938V92.8848H76.8652V84.8066H73.1914ZM98.6074 78.4258V90.0273H95.8789V85.4082H92.8281V83.1953H95.8789V78.4258H98.6074ZM82 87.8789C85.2012 86.8047 86.6621 84.248 86.7266 81.7988H82.7949V79.6074H93.4082V81.7988H89.5195C89.5732 84.0762 90.9697 86.375 94.0098 87.3848L92.6562 89.5332C90.5078 88.835 89.0146 87.417 88.166 85.666C87.3066 87.6533 85.7383 89.2539 83.418 90.0488L82 87.8789ZM85.2012 94.2383C85.2012 91.8643 87.7578 90.4678 91.9258 90.457C96.1045 90.4678 98.6611 91.8643 98.6719 94.2383C98.6611 96.6123 96.1045 97.998 91.9258 97.998C87.7578 97.998 85.2012 96.6123 85.2012 94.2383ZM87.9297 94.2383C87.9297 95.3555 89.3369 95.9141 91.9258 95.9141C94.5254 95.9141 95.9326 95.3555 95.9434 94.2383C95.9326 93.1104 94.5254 92.5518 91.9258 92.5625C89.3369 92.5518 87.9297 93.1104 87.9297 94.2383Z" fill="white"/>
<rect x="60" width="82" height="36" rx="18" transform="rotate(15 60 0)" fill="#F0516D"/>
<path d="M81.1397 21.2908C80.5721 23.3791 81.0419 26.0932 83.0172 27.7467L81.5412 28.9689C80.1974 27.8566 79.4868 26.1618 79.3088 24.3509C78.2123 25.9982 76.6678 27.2344 74.8829 27.5568L74.1745 25.7332C76.7461 25.2819 78.5842 23.0406 79.2079 20.7732L79.4344 19.928L76.5215 19.1475L76.9421 17.5779L84.5487 19.6161L84.1282 21.1857L81.3662 20.4457L81.1397 21.2908ZM82.2961 32.3093L85.9762 18.5751L87.908 19.0927L86.5048 24.3298L88.5272 24.8717L88.0945 26.4866L86.072 25.9447L84.228 32.827L82.2961 32.3093ZM101.247 29.6225L100.842 31.1318L88.2852 27.7671L88.6896 26.2579L94.0323 27.6895L94.3478 26.5122L90.5294 25.4891L91.7911 20.7802L101.315 23.332L100.914 24.8262L93.3075 22.788L92.8505 24.4934L100.533 26.5519L100.128 28.0611L96.2343 27.0177L95.9189 28.195L101.247 29.6225ZM88.8535 31.3811C89.2903 29.7511 91.344 29.3309 94.3475 30.1356C97.3283 30.9343 98.8741 32.3191 98.4524 33.9531C98.0066 35.5565 95.9735 35.9903 92.9927 35.1916C89.9893 34.3869 88.4228 32.9885 88.8535 31.3811ZM90.8156 31.9069C90.6159 32.6217 91.4833 33.2181 93.385 33.7277C95.2489 34.2271 96.3209 34.1504 96.5206 33.4355C96.7031 32.7241 95.8191 32.099 93.9552 31.5996C92.0535 31.0901 90.9981 31.1955 90.8156 31.9069ZM114.773 26.2911L113.277 31.8754L115.073 32.3566L114.644 33.9564L112.848 33.4752L111.093 40.0254L109.146 39.5037L112.826 25.7694L114.773 26.2911ZM100.979 33.158C101.982 33.4269 103.152 33.7404 104.383 34.0377L104.698 32.8605C103.318 32.1835 102.616 31.0005 102.966 29.7272C103.368 28.1933 105.038 27.5164 107.038 28.0523C109 28.578 110.122 30.003 109.727 31.539C109.37 32.8103 108.154 33.4872 106.63 33.3782L106.333 34.4875C107.435 34.7183 108.554 34.9209 109.611 35.0505L109.356 36.4865C106.29 36.2473 103.129 35.4247 100.815 34.7964L100.979 33.158ZM103.078 26.409L103.483 24.8997L106.607 25.7368L106.995 24.2879L108.927 24.8056L108.539 26.2545L111.633 27.0835L111.228 28.5927L103.078 26.409ZM104.792 30.2166C104.59 30.939 105.104 31.4972 106.047 31.75C106.96 31.9946 107.677 31.766 107.871 31.0416C108.061 30.3322 107.557 29.7685 106.646 29.5163C105.7 29.271 104.974 29.5052 104.792 30.2166Z" fill="white"/>
<rect x="200.206" y="28" width="120" height="120" rx="60" fill="#27272A"/>
<path d="M236.702 78.4258V90.0273H233.974V85.4082H230.923V83.1953H233.974V78.4258H236.702ZM220.095 87.8789C223.296 86.8047 224.757 84.248 224.821 81.7988H220.89V79.6074H231.503V81.7988H227.614C227.668 84.0762 229.064 86.375 232.104 87.3848L230.751 89.5332C228.603 88.835 227.109 87.417 226.261 85.666C225.401 87.6533 223.833 89.2539 221.513 90.0488L220.095 87.8789ZM223.296 94.2383C223.296 91.8643 225.853 90.4678 230.021 90.457C234.199 90.4678 236.756 91.8643 236.767 94.2383C236.756 96.6123 234.199 97.998 230.021 97.998C225.853 97.998 223.296 96.6123 223.296 94.2383ZM226.024 94.2383C226.024 95.3555 227.432 95.9141 230.021 95.9141C232.62 95.9141 234.027 95.3555 234.038 94.2383C234.027 93.1104 232.62 92.5518 230.021 92.5625C227.432 92.5518 226.024 93.1104 226.024 94.2383ZM257.134 93.4648V95.6992H239.237V93.4648H246.778V89.8555H241.128V79.6719H243.878V82.7012H252.407V79.6719H255.136V89.8555H249.507V93.4648H257.134ZM243.878 87.6641H252.407V84.8926H243.878V87.6641ZM273.29 79.5215V81.7344H266.823V83.2598H272.882V85.4297H266.823V87.0195C269.992 87.0195 272.055 86.9229 274.343 86.4824L274.644 88.6523C272.012 89.1035 269.638 89.1895 265.685 89.168H264.052V79.5215H273.29ZM266.05 97.7617V90.7148H278.833V97.7617H266.05ZM268.757 95.5703H276.126V92.8418H268.757V95.5703ZM276.083 89.8555V78.4258H278.833V83.002H281.476V85.2578H278.833V89.8555H276.083ZM288.587 81.8203C288.587 84.001 289.661 86.1172 292.261 87.1484L290.778 89.2539C289.124 88.5879 287.975 87.3955 287.276 85.9238C286.567 87.5996 285.332 89.0068 283.517 89.7695L282.056 87.6426C284.816 86.4609 285.923 84.0332 285.923 81.8203V79.5645H288.587V81.8203ZM285.622 93.3359V91.1445H299.136V97.9766H296.407V93.3359H285.622ZM292.347 90.1777V78.748H294.903V83.1953H296.536V78.4473H299.136V90.2852H296.536V85.4297H294.903V90.1777H292.347Z" fill="white"/>
<rect x="260.206" width="82" height="36" rx="18" transform="rotate(15 260.206 0)" fill="#F0516D"/>
<path d="M281.346 21.2908C280.778 23.3791 281.248 26.0932 283.223 27.7467L281.747 28.9689C280.403 27.8566 279.693 26.1618 279.515 24.3509C278.418 25.9982 276.874 27.2344 275.089 27.5568L274.381 25.7332C276.952 25.2819 278.79 23.0406 279.414 20.7732L279.64 19.928L276.728 19.1475L277.148 17.5779L284.755 19.6161L284.334 21.1857L281.572 20.4457L281.346 21.2908ZM282.502 32.3093L286.182 18.5751L288.114 19.0927L286.711 24.3298L288.733 24.8717L288.301 26.4866L286.278 25.9447L284.434 32.827L282.502 32.3093ZM301.453 29.6225L301.048 31.1318L288.491 27.7671L288.896 26.2579L294.238 27.6895L294.554 26.5122L290.735 25.4891L291.997 20.7802L301.521 23.332L301.12 24.8262L293.514 22.788L293.057 24.4934L300.739 26.5519L300.334 28.0611L296.44 27.0177L296.125 28.195L301.453 29.6225ZM289.06 31.3811C289.496 29.7511 291.55 29.3309 294.554 30.1356C297.534 30.9343 299.08 32.3191 298.658 33.9531C298.213 35.5565 296.18 35.9903 293.199 35.1916C290.195 34.3869 288.629 32.9885 289.06 31.3811ZM291.022 31.9069C290.822 32.6217 291.689 33.2181 293.591 33.7277C295.455 34.2271 296.527 34.1504 296.727 33.4355C296.909 32.7241 296.025 32.099 294.161 31.5996C292.26 31.0901 291.204 31.1955 291.022 31.9069ZM314.979 26.2911L313.483 31.8754L315.279 32.3566L314.85 33.9564L313.054 33.4752L311.299 40.0254L309.352 39.5037L313.032 25.7694L314.979 26.2911ZM301.185 33.158C302.188 33.4269 303.358 33.7404 304.589 34.0377L304.904 32.8605C303.524 32.1835 302.822 31.0005 303.172 29.7272C303.575 28.1933 305.244 27.5164 307.244 28.0523C309.206 28.578 310.328 30.003 309.933 31.539C309.576 32.8103 308.36 33.4872 306.836 33.3782L306.539 34.4875C307.642 34.7183 308.76 34.9209 309.817 35.0505L309.562 36.4865C306.496 36.2473 303.335 35.4247 301.021 34.7964L301.185 33.158ZM303.284 26.409L303.689 24.8997L306.813 25.7368L307.201 24.2879L309.133 24.8056L308.745 26.2545L311.839 27.0835L311.434 28.5927L303.284 26.409ZM304.998 30.2166C304.796 30.939 305.31 31.4972 306.253 31.75C307.166 31.9946 307.883 31.766 308.077 31.0416C308.267 30.3322 307.763 29.7685 306.852 29.5163C305.906 29.271 305.18 29.5052 304.998 30.2166Z" fill="white"/>
<rect x="400" y="28" width="120" height="120" rx="60" fill="#27272A"/>
<path d="M459.941 88.459V90.6074H452.572V93.7656H449.865V90.6074H442.045V88.459H459.941ZM444.15 97.6328V92.2188H446.857V95.4414H457.965V97.6328H444.15ZM444.344 87.084V79.0488H447.051V81.0898H454.893V79.0488H457.621V87.084H444.344ZM447.051 84.9141H454.893V83.1309H447.051V84.9141ZM468.406 81.4766C468.396 83.915 469.76 86.2783 472.854 87.2559L471.393 89.4258C469.298 88.7168 467.858 87.3096 467.031 85.5371C466.172 87.4707 464.636 88.9854 462.434 89.7695L460.951 87.5781C464.228 86.5361 465.624 83.9795 465.635 81.3047V79.4355H468.406V81.4766ZM464.131 93.1211V90.9512H477.559V97.9766H474.83V93.1211H464.131ZM471.156 84.3125V82.0566H474.83V78.4258H477.559V90.0703H474.83V84.3125H471.156Z" fill="white"/>
<rect x="460" width="82" height="36" rx="18" transform="rotate(15 460 0)" fill="#F0516D"/>
<path d="M481.14 21.2908C480.572 23.3791 481.042 26.0932 483.017 27.7467L481.541 28.9689C480.197 27.8566 479.487 26.1618 479.309 24.3509C478.212 25.9982 476.668 27.2344 474.883 27.5568L474.175 25.7332C476.746 25.2819 478.584 23.0406 479.208 20.7732L479.434 19.928L476.521 19.1475L476.942 17.5779L484.549 19.6161L484.128 21.1857L481.366 20.4457L481.14 21.2908ZM482.296 32.3093L485.976 18.5751L487.908 19.0927L486.505 24.3298L488.527 24.8717L488.094 26.4866L486.072 25.9447L484.228 32.827L482.296 32.3093ZM501.247 29.6225L500.842 31.1318L488.285 27.7671L488.69 26.2579L494.032 27.6895L494.348 26.5122L490.529 25.4891L491.791 20.7802L501.315 23.332L500.914 24.8262L493.307 22.788L492.851 24.4934L500.533 26.5519L500.128 28.0611L496.234 27.0177L495.919 28.195L501.247 29.6225ZM488.854 31.3811C489.29 29.7511 491.344 29.3309 494.347 30.1356C497.328 30.9343 498.874 32.3191 498.452 33.9531C498.007 35.5565 495.973 35.9903 492.993 35.1916C489.989 34.3869 488.423 32.9885 488.854 31.3811ZM490.816 31.9069C490.616 32.6217 491.483 33.2181 493.385 33.7277C495.249 34.2271 496.321 34.1504 496.521 33.4355C496.703 32.7241 495.819 32.099 493.955 31.5996C492.054 31.0901 490.998 31.1955 490.816 31.9069ZM514.773 26.2911L513.277 31.8754L515.073 32.3566L514.644 33.9564L512.848 33.4752L511.093 40.0254L509.146 39.5037L512.826 25.7694L514.773 26.2911ZM500.979 33.158C501.982 33.4269 503.152 33.7404 504.383 34.0377L504.698 32.8605C503.318 32.1835 502.616 31.0005 502.966 29.7272C503.368 28.1933 505.038 27.5164 507.038 28.0523C509 28.578 510.122 30.003 509.727 31.539C509.37 32.8103 508.154 33.4872 506.63 33.3782L506.333 34.4875C507.435 34.7183 508.554 34.9209 509.611 35.0505L509.356 36.4865C506.29 36.2473 503.129 35.4247 500.815 34.7964L500.979 33.158ZM503.078 26.409L503.483 24.8997L506.607 25.7368L506.995 24.2879L508.927 24.8056L508.539 26.2545L511.633 27.0835L511.228 28.5927L503.078 26.409ZM504.792 30.2166C504.59 30.939 505.104 31.4972 506.047 31.75C506.96 31.9946 507.677 31.766 507.871 31.0416C508.061 30.3322 507.557 29.7685 506.646 29.5163C505.7 29.271 504.974 29.5052 504.792 30.2166Z" fill="white"/>
<rect x="600" y="28" width="120" height="120" rx="60" fill="#27272A"/>
<path d="M633.344 68.0039C633.333 70.8721 635.879 73.9336 640.305 74.6855L639.102 76.9629C635.686 76.2861 633.161 74.3633 631.894 71.8604C630.604 74.3418 628.069 76.2754 624.686 76.9629L623.504 74.6855C627.854 73.9121 630.4 70.8398 630.422 68.0039V66.5859H633.344V68.0039ZM623.053 82.5703V80.3145H640.949V82.5703H623.053ZM658.072 67.1445V69.4219C658.062 72.2686 658.062 74.9756 657.17 79.2188L654.441 78.9609C654.828 77.3389 655.054 75.8994 655.193 74.5781L643.85 75.1367L643.506 72.9453L655.333 72.5156C655.376 71.4414 655.387 70.4316 655.387 69.4219V69.3359H644.107V67.1445H658.072ZM642.066 82.6348V80.4004H659.898V82.6348H642.066ZM677.451 65.4473V76.3398H674.701V65.4473H677.451ZM662.09 68.498V66.3066H671.156V72.1289H664.797V73.7617C668.062 73.7402 670.372 73.6758 673.004 73.2246L673.348 75.416C670.351 75.9209 667.708 75.9961 663.83 75.9961H662.111V70.0449H668.428V68.498H662.09ZM664.367 84.7617V77.1562H667.096V78.832H674.723V77.1562H677.451V84.7617H664.367ZM667.096 82.5703H674.723V80.959H667.096V82.5703ZM696.035 75.5234V77.6934H682.199V66.8652H695.885V69.0781H684.992V71.1406H695.434V73.2891H684.992V75.5234H696.035ZM680.094 82.6992V80.4648H697.99V82.6992H680.094ZM653.174 92.5645V94.7559H649.285C649.296 97.0439 650.671 99.3965 653.84 100.406L652.443 102.533C650.273 101.824 648.78 100.428 647.932 98.6875C647.062 100.589 645.493 102.114 643.227 102.855L641.766 100.75C644.999 99.708 646.481 97.1943 646.514 94.7559H642.518V92.5645H653.174ZM644.408 106.229V104.059H657.578V110.977H654.828V106.229H644.408ZM654.828 103.221V91.4258H657.578V96.1738H660.221V98.4512H657.578V103.221H654.828ZM668.471 94.0898C668.46 96.7002 669.803 99.1172 672.939 100.084L671.5 102.232C669.395 101.502 667.966 100.159 667.139 98.3975C666.279 100.438 664.7 102.039 662.348 102.834L660.908 100.643C664.249 99.5684 665.688 96.9473 665.699 94.2188V92.4355H668.471V94.0898ZM664.152 107.195C664.152 104.789 666.709 103.382 670.877 103.393C675.056 103.382 677.612 104.789 677.623 107.195C677.612 109.612 675.056 110.987 670.877 110.977C666.709 110.987 664.152 109.612 664.152 107.195ZM666.881 107.195C666.881 108.28 668.288 108.85 670.877 108.85C673.477 108.85 674.884 108.28 674.895 107.195C674.884 106.078 673.477 105.52 670.877 105.52C668.288 105.52 666.881 106.078 666.881 107.195ZM671.156 97.248V95.0137H674.83V91.4258H677.559V102.877H674.83V97.248H671.156Z" fill="white"/>
<rect x="660" width="82" height="36" rx="18" transform="rotate(15 660 0)" fill="#F0516D"/>
<path d="M681.14 21.2908C680.572 23.3791 681.042 26.0932 683.017 27.7467L681.541 28.9689C680.197 27.8566 679.487 26.1618 679.309 24.3509C678.212 25.9982 676.668 27.2344 674.883 27.5568L674.175 25.7332C676.746 25.2819 678.584 23.0406 679.208 20.7732L679.434 19.928L676.521 19.1475L676.942 17.5779L684.549 19.6161L684.128 21.1857L681.366 20.4457L681.14 21.2908ZM682.296 32.3093L685.976 18.5751L687.908 19.0927L686.505 24.3298L688.527 24.8717L688.094 26.4866L686.072 25.9447L684.228 32.827L682.296 32.3093ZM701.247 29.6225L700.842 31.1318L688.285 27.7671L688.69 26.2579L694.032 27.6895L694.348 26.5122L690.529 25.4891L691.791 20.7802L701.315 23.332L700.914 24.8262L693.307 22.788L692.851 24.4934L700.533 26.5519L700.128 28.0611L696.234 27.0177L695.919 28.195L701.247 29.6225ZM688.854 31.3811C689.29 29.7511 691.344 29.3309 694.347 30.1356C697.328 30.9343 698.874 32.3191 698.452 33.9531C698.007 35.5565 695.973 35.9903 692.993 35.1916C689.989 34.3869 688.423 32.9885 688.854 31.3811ZM690.816 31.9069C690.616 32.6217 691.483 33.2181 693.385 33.7277C695.249 34.2271 696.321 34.1504 696.521 33.4355C696.703 32.7241 695.819 32.099 693.955 31.5996C692.054 31.0901 690.998 31.1955 690.816 31.9069ZM714.773 26.2911L713.277 31.8754L715.073 32.3566L714.644 33.9564L712.848 33.4752L711.093 40.0254L709.146 39.5037L712.826 25.7694L714.773 26.2911ZM700.979 33.158C701.982 33.4269 703.152 33.7404 704.383 34.0377L704.698 32.8605C703.318 32.1835 702.616 31.0005 702.966 29.7272C703.368 28.1933 705.038 27.5164 707.038 28.0523C709 28.578 710.122 30.003 709.727 31.539C709.37 32.8103 708.154 33.4872 706.63 33.3782L706.333 34.4875C707.435 34.7183 708.554 34.9209 709.611 35.0505L709.356 36.4865C706.29 36.2473 703.129 35.4247 700.815 34.7964L700.979 33.158ZM703.078 26.409L703.483 24.8997L706.607 25.7368L706.995 24.2879L708.927 24.8056L708.539 26.2545L711.633 27.0835L711.228 28.5927L703.078 26.409ZM704.792 30.2166C704.59 30.939 705.104 31.4972 706.047 31.75C706.96 31.9946 707.677 31.766 707.871 31.0416C708.061 30.3322 707.557 29.7685 706.646 29.5163C705.7 29.271 704.974 29.5052 704.792 30.2166Z" fill="white"/>
<rect x="800" y="28" width="120" height="120" rx="60" fill="#27272A"/>
<path d="M825.475 79.4785C827.032 79.4678 828.396 80.0479 829.331 81.0039H833.768V78.4258H836.496V89.877H833.768V87.5352H829.31C828.375 88.4805 827.021 89.0498 825.475 89.0391C822.51 89.0498 820.254 87.0303 820.275 84.2695C820.254 81.4766 822.51 79.4678 825.475 79.4785ZM822.875 84.2695C822.864 85.7734 823.949 86.7295 825.475 86.7188C826.946 86.7295 828.021 85.7734 828.031 84.2695C828.021 82.7119 826.946 81.8096 825.475 81.8203C823.949 81.8096 822.864 82.7119 822.875 84.2695ZM823.09 94.1309C823.09 91.7031 825.679 90.2744 829.814 90.2852C833.95 90.2744 836.55 91.7031 836.561 94.1309C836.55 96.5586 833.95 97.9873 829.814 97.9766C825.679 97.9873 823.09 96.5586 823.09 94.1309ZM825.775 94.1309C825.775 95.2695 827.226 95.8496 829.814 95.8496C832.457 95.8496 833.864 95.2695 833.875 94.1309C833.864 92.96 832.457 92.3799 829.814 92.3691C827.226 92.3799 825.775 92.96 825.775 94.1309ZM830.502 83.1738C830.588 83.5176 830.631 83.8936 830.631 84.2695C830.631 84.6455 830.588 85 830.513 85.3438H833.768V83.1738H830.502ZM846.164 81.498C846.153 83.8721 847.539 86.1494 850.633 87.1055L849.172 89.2324C847.099 88.5449 845.648 87.2129 844.811 85.5049C843.962 87.4707 842.447 89.0176 840.213 89.7695L838.73 87.6211C841.996 86.5361 843.393 83.9365 843.414 81.2402V79.457H846.164V81.498ZM841.438 94.1953C841.427 91.8213 844.016 90.4141 848.141 90.4141C852.19 90.4141 854.726 91.8213 854.736 94.1953C854.726 96.5908 852.19 97.9873 848.141 97.9766C844.016 97.9873 841.427 96.5908 841.438 94.1953ZM844.188 94.1953C844.166 95.3018 845.573 95.8281 848.141 95.8281C850.676 95.8281 852.029 95.3018 852.029 94.1953C852.029 93.1318 850.676 92.5625 848.141 92.5625C845.573 92.5625 844.166 93.1318 844.188 94.1953ZM851.793 90.0273V78.4258H854.543V83.002H857.186V85.2793H854.543V90.0273H851.793ZM880.023 78.4258V97.9766H877.424V78.4258H880.023ZM862.707 92.2617C865.586 90.4893 866.66 86.9873 866.66 83.668V82.6152H863.459V80.4238H872.268V82.6152H869.303V83.668C869.292 86.9121 870.312 90.1992 873.17 91.832L871.559 93.8516C869.808 92.8203 868.669 91.0801 868.003 88.9746C867.337 91.252 866.155 93.1855 864.361 94.2812L862.707 92.2617ZM870.871 87.3418V85.1289H873.449V78.748H876.027V97.0742H873.449V87.3418H870.871ZM893.236 79.5645V81.7559H889.348C889.358 84.0439 890.733 86.3965 893.902 87.4062L892.506 89.5332C890.336 88.8242 888.843 87.4277 887.994 85.6875C887.124 87.5889 885.556 89.1143 883.289 89.8555L881.828 87.75C885.062 86.708 886.544 84.1943 886.576 81.7559H882.58V79.5645H893.236ZM884.471 93.2285V91.0586H897.641V97.9766H894.891V93.2285H884.471ZM894.891 90.2207V78.4258H897.641V83.1738H900.283V85.4512H897.641V90.2207H894.891Z" fill="white"/>
<path d="M160.206 102.143L174.348 88.0004L160.206 73.8583" stroke="#F0516D" stroke-width="1.5"/>
<path d="M360 102.143L374.142 88.0004L360 73.8583" stroke="#F0516D" stroke-width="1.5"/>
<path d="M560 102.143L574.142 88.0004L560 73.8583" stroke="#F0516D" stroke-width="1.5"/>
<path d="M760 102.143L774.142 88.0004L760 73.8583" stroke="#F0516D" stroke-width="1.5"/>
</svg>
