<svg width="580" height="495" viewBox="0 0 580 495" fill="none" xmlns="http://www.w3.org/2000/svg">
<g filter="url(#filter0_d_13428_32741)">
<rect x="38" y="22.9004" width="520" height="433.389" rx="10" fill="white" shape-rendering="crispEdges"/>
<rect x="48.2144" y="33.1148" width="499.571" height="165.952" rx="3.21612" fill="white" stroke="#D4D4D8" stroke-width="0.428816"/>
<path d="M62.7167 56.2894C62.7167 57.0201 63.221 57.4627 63.9209 57.4627C64.6207 57.4627 65.1353 57.0201 65.1353 56.2894C65.1353 55.5484 64.6207 55.1162 63.9209 55.1162C63.221 55.1162 62.7167 55.5484 62.7167 56.2894ZM67.8728 55.7749H66.3703C66.4011 55.9395 66.4217 56.1042 66.4217 56.2894C66.4217 56.4644 66.4011 56.6291 66.36 56.804H67.8728V55.7749ZM67.8728 57.8846H65.7631C65.3102 58.3375 64.6619 58.605 63.9209 58.605C62.5212 58.605 61.4303 57.6273 61.4303 56.2894C61.4303 54.9412 62.5212 53.9635 63.9209 53.9635C64.6824 53.9635 65.3308 54.2414 65.7836 54.6942H67.8728V53.4593H69.2313V59.0167H67.8728V57.8846ZM66.0203 61.8984C67.2656 61.8984 67.9346 61.6308 67.9346 61.075C67.9346 60.5193 67.2656 60.2517 66.0203 60.2517C64.7751 60.2517 64.1164 60.5193 64.1164 61.075C64.1164 61.6308 64.7751 61.8984 66.0203 61.8984ZM66.0203 59.202C68.0272 59.202 69.2725 59.8915 69.2725 61.075C69.2725 62.2483 68.0272 62.9378 66.0203 62.9378C64.0238 62.9378 62.7785 62.2483 62.7785 61.075C62.7785 59.8915 64.0238 59.202 66.0203 59.202ZM76.3626 57.6582L75.6525 58.708C74.6542 58.3786 73.9647 57.7406 73.5633 56.9378C73.1516 57.8641 72.4209 58.5948 71.3403 58.9755L70.6302 57.9052C72.2151 57.3803 72.8532 56.1145 72.8532 54.828V53.9738H74.2322V54.9412C74.2322 56.0836 74.8703 57.1951 76.3626 57.6582ZM75.1379 61.8881C76.342 61.8881 76.9904 61.6411 76.9904 61.1059C76.9904 60.581 76.342 60.334 75.1379 60.334C73.9235 60.334 73.2751 60.581 73.2751 61.1059C73.2751 61.6411 73.9235 61.8881 75.1379 61.8881ZM75.1379 59.2843C77.1036 59.2843 78.3386 59.9635 78.3386 61.1059C78.3386 62.2586 77.1036 62.9378 75.1379 62.9378C73.1619 62.9378 71.9269 62.2586 71.9269 61.1059C71.9269 59.9635 73.1619 59.2843 75.1379 59.2843ZM78.2357 55.6617H79.4912V56.7834H78.2357V59.0682H76.8772V53.4695H78.2357V55.6617ZM83.4379 59.0579L82.913 57.9876C84.8993 57.6788 86.0005 56.4953 86.124 55.2603H83.2835V54.1797H90.4259V55.2603H87.5854C87.7089 56.4953 88.8101 57.6376 90.8479 57.9361L90.3333 59.0064C88.666 58.708 87.4619 57.9155 86.865 56.804C86.2784 57.9361 85.0846 58.7594 83.4379 59.0579ZM87.5443 60.7354H91.1566V61.8366H82.5734V60.7354H86.1858V58.6462H87.5443V60.7354ZM97.9688 54.509V55.569H92.2776V54.509H94.4491V53.4901H95.8076V54.509H97.9688ZM94.0683 57.72C94.0683 58.214 94.5006 58.4816 95.1284 58.4816C95.7664 58.4816 96.1884 58.214 96.1884 57.72C96.1884 57.2363 95.7664 56.9687 95.1284 56.9687C94.5006 56.9687 94.0683 57.2363 94.0683 57.72ZM95.8076 59.4387V60.19C96.5795 60.1385 97.3513 60.087 98.0923 59.9841L98.1953 60.9721C96.1266 61.3529 93.9345 61.3632 92.257 61.3632L92.0923 60.262C92.8025 60.262 93.6052 60.262 94.4491 60.2414V59.4387C93.4302 59.2431 92.7716 58.605 92.7716 57.72C92.7716 56.6599 93.739 55.9395 95.1284 55.9395C96.5074 55.9395 97.4748 56.6599 97.4748 57.72C97.4748 58.605 96.8162 59.2431 95.8076 59.4387ZM98.5863 53.4593H99.9448V62.9378H98.5863V53.4593ZM109.772 56.8246L109.258 57.9155C107.601 57.6685 106.417 56.8966 105.81 55.8778C105.203 56.8966 104.009 57.6685 102.352 57.9155L101.838 56.8246C103.999 56.5261 105.08 55.3014 105.08 54.19V53.7371H106.531V54.19C106.531 55.2912 107.622 56.5261 109.772 56.8246ZM110.081 58.6153V59.7165H106.448V62.9481H105.09V59.7165H101.519V58.6153H110.081ZM119.874 59.0167V56.2894H118.145V55.1882H119.874V53.4593H121.232V59.0167H119.874ZM119.009 57.6479L118.299 58.7183C117.301 58.3786 116.632 57.7303 116.23 56.8864C115.808 57.8538 115.057 58.6153 113.935 58.9961L113.225 57.9052C114.841 57.3906 115.51 56.1042 115.51 54.7972V53.9532H116.889V54.7354C116.889 56.0116 117.506 57.1642 119.009 57.6479ZM118.031 61.8984C119.266 61.8984 119.915 61.6411 119.915 61.1059C119.915 60.5605 119.266 60.3032 118.031 60.3032C116.786 60.3032 116.138 60.5605 116.138 61.1059C116.138 61.6411 116.786 61.8984 118.031 61.8984ZM118.031 59.2534C120.038 59.2534 121.273 59.9327 121.273 61.1059C121.273 62.2586 120.038 62.9378 118.031 62.9378C116.014 62.9378 114.779 62.2586 114.779 61.1059C114.779 59.9327 116.014 59.2534 118.031 59.2534ZM128.425 57.7611L127.777 58.8109C126.737 58.5021 126.017 57.8743 125.605 57.0922C125.183 58.0287 124.432 58.78 123.32 59.1402L122.641 58.0802C124.175 57.5656 124.854 56.3615 124.874 55.1779H122.991V54.087H128.116V55.1779H126.264C126.284 56.2586 126.933 57.3186 128.425 57.7611ZM127.139 61.8984C128.343 61.8984 128.991 61.6411 128.991 61.1059C128.991 60.5605 128.343 60.3032 127.139 60.3032C125.924 60.3032 125.276 60.5605 125.276 61.1059C125.276 61.6411 125.924 61.8984 127.139 61.8984ZM127.139 59.2534C129.104 59.2534 130.339 59.943 130.339 61.1059C130.339 62.2586 129.104 62.9378 127.139 62.9378C125.163 62.9378 123.928 62.2586 123.928 61.1059C123.928 59.943 125.163 59.2534 127.139 59.2534ZM130.236 55.6411H131.492V56.7526H130.236V59.0888H128.878V53.4593H130.236V55.6411ZM138.711 58.4713H139.535V56.6394H138.701C138.742 56.9275 138.763 57.2363 138.763 57.5656C138.763 57.8846 138.742 58.1934 138.711 58.4713ZM136.715 59.7371C137.24 59.7371 137.548 59.0167 137.548 57.5656C137.548 56.1145 137.24 55.4044 136.715 55.4044C136.18 55.4044 135.871 56.1145 135.871 57.5656C135.871 59.0167 136.18 59.7371 136.715 59.7371ZM139.535 55.5484V53.6136H140.801V62.5056H139.535V59.5725H138.454C138.104 60.4884 137.497 61.0133 136.715 61.0133C135.449 61.0133 134.656 59.7165 134.656 57.5656C134.656 55.4249 135.449 54.1282 136.715 54.1282C137.487 54.1282 138.094 54.6325 138.444 55.5484H139.535ZM141.418 53.449H142.704V62.9275H141.418V53.449ZM144.803 57.8023L144.402 56.7937C146.46 56.6599 147.386 56.0527 147.541 55.3941H144.855V54.3443H147.633V53.4901H148.992V54.3443H151.781V55.3941H149.095C149.249 56.0527 150.165 56.6599 152.223 56.7937L151.822 57.8023C150.083 57.6788 148.91 57.1848 148.323 56.4335C147.726 57.1848 146.542 57.6788 144.803 57.8023ZM144.988 61.0133V59.943H151.575V62.9481H150.217V61.0133H144.988ZM144.042 58.1625H152.604V59.2431H144.042V58.1625Z" fill="#3F3F46"/>
<path d="M62.7167 56.2894C62.7167 57.0201 63.221 57.4627 63.9209 57.4627C64.6207 57.4627 65.1353 57.0201 65.1353 56.2894C65.1353 55.5484 64.6207 55.1162 63.9209 55.1162C63.221 55.1162 62.7167 55.5484 62.7167 56.2894ZM67.8728 55.7749H66.3703C66.4011 55.9395 66.4217 56.1042 66.4217 56.2894C66.4217 56.4644 66.4011 56.6291 66.36 56.804H67.8728V55.7749ZM67.8728 57.8846H65.7631C65.3102 58.3375 64.6619 58.605 63.9209 58.605C62.5212 58.605 61.4303 57.6273 61.4303 56.2894C61.4303 54.9412 62.5212 53.9635 63.9209 53.9635C64.6824 53.9635 65.3308 54.2414 65.7836 54.6942H67.8728V53.4593H69.2313V59.0167H67.8728V57.8846ZM66.0203 61.8984C67.2656 61.8984 67.9346 61.6308 67.9346 61.075C67.9346 60.5193 67.2656 60.2517 66.0203 60.2517C64.7751 60.2517 64.1164 60.5193 64.1164 61.075C64.1164 61.6308 64.7751 61.8984 66.0203 61.8984ZM66.0203 59.202C68.0272 59.202 69.2725 59.8915 69.2725 61.075C69.2725 62.2483 68.0272 62.9378 66.0203 62.9378C64.0238 62.9378 62.7785 62.2483 62.7785 61.075C62.7785 59.8915 64.0238 59.202 66.0203 59.202ZM76.3626 57.6582L75.6525 58.708C74.6542 58.3786 73.9647 57.7406 73.5633 56.9378C73.1516 57.8641 72.4209 58.5948 71.3403 58.9755L70.6302 57.9052C72.2151 57.3803 72.8532 56.1145 72.8532 54.828V53.9738H74.2322V54.9412C74.2322 56.0836 74.8703 57.1951 76.3626 57.6582ZM75.1379 61.8881C76.342 61.8881 76.9904 61.6411 76.9904 61.1059C76.9904 60.581 76.342 60.334 75.1379 60.334C73.9235 60.334 73.2751 60.581 73.2751 61.1059C73.2751 61.6411 73.9235 61.8881 75.1379 61.8881ZM75.1379 59.2843C77.1036 59.2843 78.3386 59.9635 78.3386 61.1059C78.3386 62.2586 77.1036 62.9378 75.1379 62.9378C73.1619 62.9378 71.9269 62.2586 71.9269 61.1059C71.9269 59.9635 73.1619 59.2843 75.1379 59.2843ZM78.2357 55.6617H79.4912V56.7834H78.2357V59.0682H76.8772V53.4695H78.2357V55.6617ZM83.4379 59.0579L82.913 57.9876C84.8993 57.6788 86.0005 56.4953 86.124 55.2603H83.2835V54.1797H90.4259V55.2603H87.5854C87.7089 56.4953 88.8101 57.6376 90.8479 57.9361L90.3333 59.0064C88.666 58.708 87.4619 57.9155 86.865 56.804C86.2784 57.9361 85.0846 58.7594 83.4379 59.0579ZM87.5443 60.7354H91.1566V61.8366H82.5734V60.7354H86.1858V58.6462H87.5443V60.7354ZM97.9688 54.509V55.569H92.2776V54.509H94.4491V53.4901H95.8076V54.509H97.9688ZM94.0683 57.72C94.0683 58.214 94.5006 58.4816 95.1284 58.4816C95.7664 58.4816 96.1884 58.214 96.1884 57.72C96.1884 57.2363 95.7664 56.9687 95.1284 56.9687C94.5006 56.9687 94.0683 57.2363 94.0683 57.72ZM95.8076 59.4387V60.19C96.5795 60.1385 97.3513 60.087 98.0923 59.9841L98.1953 60.9721C96.1266 61.3529 93.9345 61.3632 92.257 61.3632L92.0923 60.262C92.8025 60.262 93.6052 60.262 94.4491 60.2414V59.4387C93.4302 59.2431 92.7716 58.605 92.7716 57.72C92.7716 56.6599 93.739 55.9395 95.1284 55.9395C96.5074 55.9395 97.4748 56.6599 97.4748 57.72C97.4748 58.605 96.8162 59.2431 95.8076 59.4387ZM98.5863 53.4593H99.9448V62.9378H98.5863V53.4593ZM109.772 56.8246L109.258 57.9155C107.601 57.6685 106.417 56.8966 105.81 55.8778C105.203 56.8966 104.009 57.6685 102.352 57.9155L101.838 56.8246C103.999 56.5261 105.08 55.3014 105.08 54.19V53.7371H106.531V54.19C106.531 55.2912 107.622 56.5261 109.772 56.8246ZM110.081 58.6153V59.7165H106.448V62.9481H105.09V59.7165H101.519V58.6153H110.081ZM119.874 59.0167V56.2894H118.145V55.1882H119.874V53.4593H121.232V59.0167H119.874ZM119.009 57.6479L118.299 58.7183C117.301 58.3786 116.632 57.7303 116.23 56.8864C115.808 57.8538 115.057 58.6153 113.935 58.9961L113.225 57.9052C114.841 57.3906 115.51 56.1042 115.51 54.7972V53.9532H116.889V54.7354C116.889 56.0116 117.506 57.1642 119.009 57.6479ZM118.031 61.8984C119.266 61.8984 119.915 61.6411 119.915 61.1059C119.915 60.5605 119.266 60.3032 118.031 60.3032C116.786 60.3032 116.138 60.5605 116.138 61.1059C116.138 61.6411 116.786 61.8984 118.031 61.8984ZM118.031 59.2534C120.038 59.2534 121.273 59.9327 121.273 61.1059C121.273 62.2586 120.038 62.9378 118.031 62.9378C116.014 62.9378 114.779 62.2586 114.779 61.1059C114.779 59.9327 116.014 59.2534 118.031 59.2534ZM128.425 57.7611L127.777 58.8109C126.737 58.5021 126.017 57.8743 125.605 57.0922C125.183 58.0287 124.432 58.78 123.32 59.1402L122.641 58.0802C124.175 57.5656 124.854 56.3615 124.874 55.1779H122.991V54.087H128.116V55.1779H126.264C126.284 56.2586 126.933 57.3186 128.425 57.7611ZM127.139 61.8984C128.343 61.8984 128.991 61.6411 128.991 61.1059C128.991 60.5605 128.343 60.3032 127.139 60.3032C125.924 60.3032 125.276 60.5605 125.276 61.1059C125.276 61.6411 125.924 61.8984 127.139 61.8984ZM127.139 59.2534C129.104 59.2534 130.339 59.943 130.339 61.1059C130.339 62.2586 129.104 62.9378 127.139 62.9378C125.163 62.9378 123.928 62.2586 123.928 61.1059C123.928 59.943 125.163 59.2534 127.139 59.2534ZM130.236 55.6411H131.492V56.7526H130.236V59.0888H128.878V53.4593H130.236V55.6411ZM138.711 58.4713H139.535V56.6394H138.701C138.742 56.9275 138.763 57.2363 138.763 57.5656C138.763 57.8846 138.742 58.1934 138.711 58.4713ZM136.715 59.7371C137.24 59.7371 137.548 59.0167 137.548 57.5656C137.548 56.1145 137.24 55.4044 136.715 55.4044C136.18 55.4044 135.871 56.1145 135.871 57.5656C135.871 59.0167 136.18 59.7371 136.715 59.7371ZM139.535 55.5484V53.6136H140.801V62.5056H139.535V59.5725H138.454C138.104 60.4884 137.497 61.0133 136.715 61.0133C135.449 61.0133 134.656 59.7165 134.656 57.5656C134.656 55.4249 135.449 54.1282 136.715 54.1282C137.487 54.1282 138.094 54.6325 138.444 55.5484H139.535ZM141.418 53.449H142.704V62.9275H141.418V53.449ZM144.803 57.8023L144.402 56.7937C146.46 56.6599 147.386 56.0527 147.541 55.3941H144.855V54.3443H147.633V53.4901H148.992V54.3443H151.781V55.3941H149.095C149.249 56.0527 150.165 56.6599 152.223 56.7937L151.822 57.8023C150.083 57.6788 148.91 57.1848 148.323 56.4335C147.726 57.1848 146.542 57.6788 144.803 57.8023ZM144.988 61.0133V59.943H151.575V62.9481H150.217V61.0133H144.988ZM144.042 58.1625H152.604V59.2431H144.042V58.1625Z" fill="#3F3F46"/>
<path d="M62.0881 85.2798C61.4911 85.2798 61.1052 85.0431 60.8531 84.7601L61.1412 84.3793C61.3625 84.6057 61.6455 84.7961 62.0366 84.7961C62.4637 84.7961 62.757 84.5594 62.757 84.1631C62.757 83.7463 62.4894 83.4736 61.6352 83.4736V83.0362C62.3814 83.0362 62.6284 82.7532 62.6284 82.3724C62.6284 82.0379 62.4071 81.8321 62.0469 81.827C61.7536 81.8321 61.5066 81.971 61.2905 82.182L60.9817 81.8115C61.2802 81.5439 61.6301 81.3535 62.0675 81.3535C62.7467 81.3535 63.2253 81.7086 63.2253 82.3312C63.2253 82.7686 62.9731 83.0722 62.5718 83.2215V83.2472C63.0092 83.3553 63.3539 83.6846 63.3539 84.194C63.3539 84.8784 62.7827 85.2798 62.0881 85.2798ZM65.1102 85.2798C64.3693 85.2798 63.8855 84.6211 63.8855 83.3038C63.8855 81.9916 64.3693 81.3535 65.1102 81.3535C65.8512 81.3535 66.3349 81.9968 66.3349 83.3038C66.3349 84.6211 65.8512 85.2798 65.1102 85.2798ZM65.1102 84.8115C65.4962 84.8115 65.7689 84.3999 65.7689 83.3038C65.7689 82.218 65.4962 81.8218 65.1102 81.8218C64.7243 81.8218 64.4516 82.218 64.4516 83.3038C64.4516 84.3999 64.7243 84.8115 65.1102 84.8115Z" fill="#71717A"/>
<path d="M60.9354 109.079V108.734C62.052 107.746 62.6284 107.01 62.6284 106.388C62.6284 105.976 62.4122 105.693 61.9851 105.693C61.6867 105.693 61.4397 105.884 61.239 106.115L60.9045 105.786C61.2287 105.431 61.5632 105.22 62.0572 105.22C62.7519 105.22 63.1996 105.673 63.1996 106.357C63.1996 107.088 62.6181 107.844 61.8153 108.611C62.0109 108.59 62.2476 108.575 62.4328 108.575H63.3797V109.079H60.9354ZM65.1102 109.146C64.3693 109.146 63.8855 108.487 63.8855 107.17C63.8855 105.858 64.3693 105.22 65.1102 105.22C65.8512 105.22 66.3349 105.863 66.3349 107.17C66.3349 108.487 65.8512 109.146 65.1102 109.146ZM65.1102 108.678C65.4962 108.678 65.7689 108.266 65.7689 107.17C65.7689 106.084 65.4962 105.688 65.1102 105.688C64.7243 105.688 64.4516 106.084 64.4516 107.17C64.4516 108.266 64.7243 108.678 65.1102 108.678Z" fill="#71717A"/>
<path d="M61.1515 132.945V132.456H61.98V129.822H61.3008V129.446C61.6558 129.379 61.908 129.292 62.1241 129.153H62.5718V132.456H63.3128V132.945H61.1515ZM65.1102 133.012C64.3693 133.012 63.8855 132.354 63.8855 131.036C63.8855 129.724 64.3693 129.086 65.1102 129.086C65.8512 129.086 66.3349 129.729 66.3349 131.036C66.3349 132.354 65.8512 133.012 65.1102 133.012ZM65.1102 132.544C65.4962 132.544 65.7689 132.132 65.7689 131.036C65.7689 129.95 65.4962 129.554 65.1102 129.554C64.7243 129.554 64.4516 129.95 64.4516 131.036C64.4516 132.132 64.7243 132.544 65.1102 132.544Z" fill="#71717A"/>
<path d="M65.1755 156.878C64.4345 156.878 63.9508 156.22 63.9508 154.902C63.9508 153.59 64.4345 152.952 65.1755 152.952C65.9165 152.952 66.4002 153.595 66.4002 154.902C66.4002 156.22 65.9165 156.878 65.1755 156.878ZM65.1755 156.41C65.5615 156.41 65.8342 155.998 65.8342 154.902C65.8342 153.817 65.5615 153.42 65.1755 153.42C64.7896 153.42 64.5169 153.817 64.5169 154.902C64.5169 155.998 64.7896 156.41 65.1755 156.41Z" fill="#71717A"/>
<path d="M71.7207 156.185L145.305 114.694C150.211 111.928 155.538 109.985 161.074 108.945L233.708 95.2933L302.803 90.1475L375.237 87.789L456.648 81.5712L533.676 74.0669" stroke="#818CF8" stroke-width="0.857633"/>
<path d="M73.1853 163.753C72.4443 163.753 71.9606 163.094 71.9606 161.777C71.9606 160.465 72.4443 159.827 73.1853 159.827C73.9263 159.827 74.41 160.47 74.41 161.777C74.41 163.094 73.9263 163.753 73.1853 163.753ZM73.1853 163.285C73.5712 163.285 73.844 162.873 73.844 161.777C73.844 160.691 73.5712 160.295 73.1853 160.295C72.7994 160.295 72.5266 160.691 72.5266 161.777C72.5266 162.873 72.7994 163.285 73.1853 163.285ZM74.8799 163.686V163.341C75.9965 162.353 76.5728 161.617 76.5728 160.995C76.5728 160.583 76.3567 160.3 75.9296 160.3C75.6312 160.3 75.3842 160.49 75.1835 160.722L74.849 160.393C75.1732 160.038 75.5077 159.827 76.0017 159.827C76.6963 159.827 77.144 160.28 77.144 160.964C77.144 161.695 76.5626 162.451 75.7598 163.218C75.9553 163.197 76.1921 163.182 76.3773 163.182H77.3241V163.686H74.8799ZM78.3549 163.753C78.1336 163.753 77.9587 163.583 77.9587 163.341C77.9587 163.094 78.1336 162.919 78.3549 162.919C78.5762 162.919 78.7511 163.094 78.7511 163.341C78.7511 163.583 78.5762 163.753 78.3549 163.753ZM79.5634 163.686V163.197H80.3919V160.563H79.7126V160.187C80.0677 160.12 80.3198 160.033 80.536 159.894H80.9836V163.197H81.7246V163.686H79.5634ZM83.5221 163.753C82.7811 163.753 82.2974 163.094 82.2974 161.777C82.2974 160.465 82.7811 159.827 83.5221 159.827C84.2631 159.827 84.7468 160.47 84.7468 161.777C84.7468 163.094 84.2631 163.753 83.5221 163.753ZM83.5221 163.285C83.9081 163.285 84.1808 162.873 84.1808 161.777C84.1808 160.691 83.9081 160.295 83.5221 160.295C83.1362 160.295 82.8635 160.691 82.8635 161.777C82.8635 162.873 83.1362 163.285 83.5221 163.285Z" fill="#71717A"/>
<path d="M148.089 163.753C147.348 163.753 146.864 163.094 146.864 161.777C146.864 160.465 147.348 159.827 148.089 159.827C148.83 159.827 149.313 160.47 149.313 161.777C149.313 163.094 148.83 163.753 148.089 163.753ZM148.089 163.285C148.475 163.285 148.747 162.873 148.747 161.777C148.747 160.691 148.475 160.295 148.089 160.295C147.703 160.295 147.43 160.691 147.43 161.777C147.43 162.873 147.703 163.285 148.089 163.285ZM149.783 163.686V163.341C150.9 162.353 151.476 161.617 151.476 160.995C151.476 160.583 151.26 160.3 150.833 160.3C150.534 160.3 150.287 160.49 150.087 160.722L149.752 160.393C150.077 160.038 150.411 159.827 150.905 159.827C151.6 159.827 152.047 160.28 152.047 160.964C152.047 161.695 151.466 162.451 150.663 163.218C150.859 163.197 151.095 163.182 151.281 163.182H152.227V163.686H149.783ZM153.258 163.753C153.037 163.753 152.862 163.583 152.862 163.341C152.862 163.094 153.037 162.919 153.258 162.919C153.479 162.919 153.654 163.094 153.654 163.341C153.654 163.583 153.479 163.753 153.258 163.753ZM154.467 163.686V163.197H155.295V160.563H154.616V160.187C154.971 160.12 155.223 160.033 155.439 159.894H155.887V163.197H156.628V163.686H154.467ZM157.401 163.686V163.197H158.23V160.563H157.551V160.187C157.906 160.12 158.158 160.033 158.374 159.894H158.822V163.197H159.563V163.686H157.401Z" fill="#71717A"/>
<path d="M222.991 163.753C222.25 163.753 221.766 163.094 221.766 161.777C221.766 160.465 222.25 159.827 222.991 159.827C223.732 159.827 224.216 160.47 224.216 161.777C224.216 163.094 223.732 163.753 222.991 163.753ZM222.991 163.285C223.377 163.285 223.65 162.873 223.65 161.777C223.65 160.691 223.377 160.295 222.991 160.295C222.605 160.295 222.332 160.691 222.332 161.777C222.332 162.873 222.605 163.285 222.991 163.285ZM224.686 163.686V163.341C225.802 162.353 226.379 161.617 226.379 160.995C226.379 160.583 226.162 160.3 225.735 160.3C225.437 160.3 225.19 160.49 224.989 160.722L224.655 160.393C224.979 160.038 225.313 159.827 225.807 159.827C226.502 159.827 226.95 160.28 226.95 160.964C226.95 161.695 226.368 162.451 225.565 163.218C225.761 163.197 225.998 163.182 226.183 163.182H227.13V163.686H224.686ZM228.161 163.753C227.939 163.753 227.764 163.583 227.764 163.341C227.764 163.094 227.939 162.919 228.161 162.919C228.382 162.919 228.557 163.094 228.557 163.341C228.557 163.583 228.382 163.753 228.161 163.753ZM229.369 163.686V163.197H230.198V160.563H229.518V160.187C229.873 160.12 230.125 160.033 230.342 159.894H230.789V163.197H231.53V163.686H229.369ZM232.088 163.686V163.341C233.204 162.353 233.781 161.617 233.781 160.995C233.781 160.583 233.564 160.3 233.137 160.3C232.839 160.3 232.592 160.49 232.391 160.722L232.057 160.393C232.381 160.038 232.715 159.827 233.209 159.827C233.904 159.827 234.352 160.28 234.352 160.964C234.352 161.695 233.77 162.451 232.968 163.218C233.163 163.197 233.4 163.182 233.585 163.182H234.532V163.686H232.088Z" fill="#71717A"/>
<path d="M297.894 163.753C297.153 163.753 296.67 163.094 296.67 161.777C296.67 160.465 297.153 159.827 297.894 159.827C298.635 159.827 299.119 160.47 299.119 161.777C299.119 163.094 298.635 163.753 297.894 163.753ZM297.894 163.285C298.28 163.285 298.553 162.873 298.553 161.777C298.553 160.691 298.28 160.295 297.894 160.295C297.508 160.295 297.236 160.691 297.236 161.777C297.236 162.873 297.508 163.285 297.894 163.285ZM299.589 163.686V163.341C300.706 162.353 301.282 161.617 301.282 160.995C301.282 160.583 301.066 160.3 300.639 160.3C300.34 160.3 300.093 160.49 299.892 160.722L299.558 160.393C299.882 160.038 300.217 159.827 300.711 159.827C301.405 159.827 301.853 160.28 301.853 160.964C301.853 161.695 301.272 162.451 300.469 163.218C300.664 163.197 300.901 163.182 301.086 163.182H302.033V163.686H299.589ZM303.064 163.753C302.843 163.753 302.668 163.583 302.668 163.341C302.668 163.094 302.843 162.919 303.064 162.919C303.285 162.919 303.46 163.094 303.46 163.341C303.46 163.583 303.285 163.753 303.064 163.753ZM304.272 163.686V163.197H305.101V160.563H304.422V160.187C304.777 160.12 305.029 160.033 305.245 159.894H305.693V163.197H306.434V163.686H304.272ZM308.144 163.753C307.547 163.753 307.161 163.516 306.909 163.233L307.197 162.852C307.418 163.079 307.701 163.269 308.092 163.269C308.519 163.269 308.813 163.033 308.813 162.636C308.813 162.219 308.545 161.947 307.691 161.947V161.509C308.437 161.509 308.684 161.226 308.684 160.846C308.684 160.511 308.463 160.305 308.102 160.3C307.809 160.305 307.562 160.444 307.346 160.655L307.037 160.285C307.336 160.017 307.686 159.827 308.123 159.827C308.802 159.827 309.281 160.182 309.281 160.804C309.281 161.242 309.029 161.545 308.627 161.695V161.72C309.065 161.828 309.409 162.158 309.409 162.667C309.409 163.352 308.838 163.753 308.144 163.753Z" fill="#71717A"/>
<path d="M372.797 163.753C372.056 163.753 371.572 163.094 371.572 161.777C371.572 160.465 372.056 159.827 372.797 159.827C373.538 159.827 374.021 160.47 374.021 161.777C374.021 163.094 373.538 163.753 372.797 163.753ZM372.797 163.285C373.183 163.285 373.455 162.873 373.455 161.777C373.455 160.691 373.183 160.295 372.797 160.295C372.411 160.295 372.138 160.691 372.138 161.777C372.138 162.873 372.411 163.285 372.797 163.285ZM374.491 163.686V163.341C375.608 162.353 376.184 161.617 376.184 160.995C376.184 160.583 375.968 160.3 375.541 160.3C375.242 160.3 374.995 160.49 374.795 160.722L374.46 160.393C374.785 160.038 375.119 159.827 375.613 159.827C376.308 159.827 376.755 160.28 376.755 160.964C376.755 161.695 376.174 162.451 375.371 163.218C375.567 163.197 375.803 163.182 375.989 163.182H376.935V163.686H374.491ZM377.966 163.753C377.745 163.753 377.57 163.583 377.57 163.341C377.57 163.094 377.745 162.919 377.966 162.919C378.187 162.919 378.362 163.094 378.362 163.341C378.362 163.583 378.187 163.753 377.966 163.753ZM379.175 163.686V163.197H380.003V160.563H379.324V160.187C379.679 160.12 379.931 160.033 380.147 159.894H380.595V163.197H381.336V163.686H379.175ZM382.367 162.209H383.411V161.216C383.411 161.01 383.427 160.691 383.437 160.48H383.416C383.324 160.676 383.221 160.871 383.113 161.067L382.367 162.209ZM383.411 163.686V162.667H381.77V162.271L383.278 159.894H383.967V162.209H384.446V162.667H383.967V163.686H383.411Z" fill="#71717A"/>
<path d="M447.699 163.753C446.958 163.753 446.474 163.094 446.474 161.777C446.474 160.465 446.958 159.827 447.699 159.827C448.44 159.827 448.924 160.47 448.924 161.777C448.924 163.094 448.44 163.753 447.699 163.753ZM447.699 163.285C448.085 163.285 448.358 162.873 448.358 161.777C448.358 160.691 448.085 160.295 447.699 160.295C447.313 160.295 447.04 160.691 447.04 161.777C447.04 162.873 447.313 163.285 447.699 163.285ZM449.394 163.686V163.341C450.51 162.353 451.087 161.617 451.087 160.995C451.087 160.583 450.87 160.3 450.443 160.3C450.145 160.3 449.898 160.49 449.697 160.722L449.363 160.393C449.687 160.038 450.021 159.827 450.515 159.827C451.21 159.827 451.658 160.28 451.658 160.964C451.658 161.695 451.076 162.451 450.273 163.218C450.469 163.197 450.706 163.182 450.891 163.182H451.838V163.686H449.394ZM452.869 163.753C452.647 163.753 452.472 163.583 452.472 163.341C452.472 163.094 452.647 162.919 452.869 162.919C453.09 162.919 453.265 163.094 453.265 163.341C453.265 163.583 453.09 163.753 452.869 163.753ZM454.077 163.686V163.197H454.906V160.563H454.226V160.187C454.581 160.12 454.834 160.033 455.05 159.894H455.497V163.197H456.238V163.686H454.077ZM457.948 163.753C457.351 163.753 456.976 163.511 456.708 163.249L456.991 162.863C457.207 163.079 457.48 163.269 457.876 163.269C458.303 163.269 458.628 162.966 458.628 162.461C458.628 161.957 458.339 161.669 457.907 161.669C457.665 161.669 457.521 161.741 457.3 161.885L457.012 161.695L457.125 159.894H459.044V160.398H457.64L457.552 161.37C457.717 161.288 457.866 161.237 458.072 161.237C458.705 161.237 459.224 161.612 459.224 162.441C459.224 163.28 458.612 163.753 457.948 163.753Z" fill="#71717A"/>
<path d="M522.602 163.753C521.861 163.753 521.378 163.094 521.378 161.777C521.378 160.465 521.861 159.827 522.602 159.827C523.343 159.827 523.827 160.47 523.827 161.777C523.827 163.094 523.343 163.753 522.602 163.753ZM522.602 163.285C522.988 163.285 523.261 162.873 523.261 161.777C523.261 160.691 522.988 160.295 522.602 160.295C522.216 160.295 521.944 160.691 521.944 161.777C521.944 162.873 522.216 163.285 522.602 163.285ZM524.297 163.686V163.341C525.414 162.353 525.99 161.617 525.99 160.995C525.99 160.583 525.774 160.3 525.347 160.3C525.048 160.3 524.801 160.49 524.6 160.722L524.266 160.393C524.59 160.038 524.925 159.827 525.419 159.827C526.113 159.827 526.561 160.28 526.561 160.964C526.561 161.695 525.98 162.451 525.177 163.218C525.372 163.197 525.609 163.182 525.794 163.182H526.741V163.686H524.297ZM527.772 163.753C527.551 163.753 527.376 163.583 527.376 163.341C527.376 163.094 527.551 162.919 527.772 162.919C527.993 162.919 528.168 163.094 528.168 163.341C528.168 163.583 527.993 163.753 527.772 163.753ZM528.98 163.686V163.197H529.809V160.563H529.13V160.187C529.485 160.12 529.737 160.033 529.953 159.894H530.401V163.197H531.142V163.686H528.98ZM533.011 161.751C532.795 161.751 532.533 161.87 532.306 162.194C532.368 162.945 532.641 163.3 533.047 163.3C533.377 163.3 533.639 163.002 533.639 162.508C533.639 162.024 533.418 161.751 533.011 161.751ZM533.052 163.753C532.332 163.753 531.745 163.151 531.745 161.864C531.745 160.408 532.43 159.827 533.176 159.827C533.598 159.827 533.907 160.007 534.123 160.233L533.798 160.593C533.66 160.429 533.428 160.31 533.207 160.31C532.723 160.31 532.322 160.676 532.296 161.756C532.517 161.484 532.846 161.319 533.119 161.319C533.757 161.319 534.184 161.71 534.184 162.508C534.184 163.259 533.67 163.753 533.052 163.753Z" fill="#71717A"/>
<rect x="299.654" y="179.856" width="5.1458" height="5.1458" rx="0.857633" fill="#818CF8"/>
<path d="M310.795 181.964V181.372H308.67V181.964H310.795ZM311.325 180.358V182.391H308.14V180.358H308.67V180.945H310.795V180.358H311.325ZM311.845 182.895V183.322H309.987V184.83H309.457V183.322H307.63V182.895H311.845ZM314.458 184.418C315.138 184.418 315.524 184.269 315.524 183.981C315.524 183.698 315.138 183.544 314.458 183.544C313.779 183.544 313.398 183.698 313.398 183.981C313.398 184.269 313.779 184.418 314.458 184.418ZM314.458 183.137C315.457 183.137 316.059 183.446 316.059 183.981C316.059 184.521 315.457 184.83 314.458 184.83C313.465 184.83 312.858 184.521 312.858 183.981C312.858 183.446 313.465 183.137 314.458 183.137ZM314.736 182.422H316.573V182.854H312.374V182.422H314.206V181.959H312.894V180.384H316.059V180.806H313.419V181.532H316.09V181.959H314.736V182.422ZM319.841 182.453L319.573 182.875C319.058 182.695 318.683 182.324 318.477 181.871C318.276 182.381 317.89 182.777 317.345 182.972L317.057 182.561C317.803 182.309 318.199 181.681 318.199 181.002V180.461H318.734V181.007C318.734 181.624 319.136 182.211 319.841 182.453ZM318.328 183.271V184.305H320.916V184.737H317.798V183.271H318.328ZM320.731 181.568H321.389V182.005H320.731V183.6H320.201V180.173H320.731V181.568Z" fill="#71717A"/>
<rect x="48.2144" y="216.496" width="499.571" height="229.417" rx="3.21612" fill="white" stroke="#D4D4D8" stroke-width="0.428816"/>
<rect x="60.8643" y="257.448" width="474.271" height="171.527" fill="white"/>
<path d="M213.887 339.113H222.656C222.656 344.156 219.466 347.573 213.826 349.014L212.797 346.894C216.996 345.844 219.363 343.765 219.754 341.254H213.887V339.113ZM218.58 351.525V354.633H225.764V351.525H218.58ZM215.905 356.753V349.384H228.44V356.753H215.905ZM225.702 338.043H228.44V348.582H225.702V338.043ZM239.018 343.271V343.93C239.018 346.667 240.521 349.755 243.629 351.093L242.188 353.172C240.047 352.287 238.545 350.475 237.701 348.314C236.857 350.599 235.334 352.534 233.172 353.501L231.711 351.422C234.819 350.023 236.301 346.812 236.301 343.93V343.271H232.349V341.11H236.301V338.475H239.018V341.11H242.888V343.271H239.018ZM244.637 338.023H247.354V356.98H244.637V338.023ZM261.082 341.83V342.736C261.082 345.803 261.431 349.117 263.778 350.99L262.152 352.945C260.896 351.998 260.155 350.537 259.723 348.849C259.208 350.619 258.365 352.163 256.985 353.151C255.627 352.163 254.783 350.619 254.289 348.87C253.836 350.537 253.095 351.978 251.881 352.945L250.234 350.99C252.601 349.096 252.931 345.762 252.931 342.736V341.83H250.975V339.669H256.636V341.83H255.483V342.736C255.483 344.959 255.73 347.573 257.006 349.549C258.262 347.594 258.509 345 258.509 342.736V341.83H257.356V339.669H262.728V341.83H261.082ZM264.004 338.023H266.721V356.98H264.004V338.023ZM270.219 340.369H277.691C277.691 345.679 276.126 350.023 270.836 353.11L269.251 351.216C273.059 348.993 274.665 346.256 275.015 342.53H270.219V340.369ZM283.145 338.023H285.739V356.98H283.145V347.347H281.457V356.177H278.926V338.517H281.457V345.165H283.145V338.023Z" fill="#D4D4D8"/>
<path d="M329.39 339.616H330.759V344.71H329.39V339.616ZM324.461 345.122H325.809V346.007H329.411V345.122H330.759V348.981H324.461V345.122ZM325.809 347.047V347.901H329.411V347.047H325.809ZM325.603 340.007C327.075 340.007 328.176 340.944 328.176 342.24C328.176 343.547 327.075 344.484 325.603 344.484C324.131 344.484 323.02 343.547 323.02 342.24C323.02 340.944 324.131 340.007 325.603 340.007ZM325.603 341.129C324.882 341.129 324.347 341.551 324.347 342.24C324.347 342.95 324.882 343.362 325.603 343.362C326.323 343.362 326.848 342.95 326.848 342.24C326.848 341.551 326.323 341.129 325.603 341.129ZM335.78 343.578V341.345H333.959V343.578H335.78ZM337.118 340.264V344.649H332.631V340.264H337.118ZM337.479 345.431V345.667C337.479 346.697 338.415 347.726 340.432 348.014L339.928 349.064C338.425 348.837 337.365 348.199 336.799 347.324C336.233 348.199 335.173 348.837 333.681 349.064L333.156 348.014C335.184 347.726 336.13 346.697 336.13 345.667V345.431H337.479ZM339.815 341.983H341.07V343.095H339.815V345.863H338.456V339.606H339.815V341.983Z" fill="#D4D4D8"/>
<path d="M286.131 351.88C286.131 352.611 286.635 353.054 287.335 353.054C288.035 353.054 288.549 352.611 288.549 351.88C288.549 351.139 288.035 350.707 287.335 350.707C286.635 350.707 286.131 351.139 286.131 351.88ZM291.287 351.366H289.784C289.815 351.53 289.836 351.695 289.836 351.88C289.836 352.055 289.815 352.22 289.774 352.395H291.287V351.366ZM291.287 353.475H289.177C288.724 353.928 288.076 354.196 287.335 354.196C285.935 354.196 284.844 353.218 284.844 351.88C284.844 350.532 285.935 349.554 287.335 349.554C288.097 349.554 288.745 349.832 289.198 350.285H291.287V349.05H292.645V354.608H291.287V353.475ZM289.434 357.489C290.68 357.489 291.349 357.222 291.349 356.666C291.349 356.11 290.68 355.843 289.434 355.843C288.189 355.843 287.53 356.11 287.53 356.666C287.53 357.222 288.189 357.489 289.434 357.489ZM289.434 354.793C291.441 354.793 292.687 355.482 292.687 356.666C292.687 357.839 291.441 358.529 289.434 358.529C287.438 358.529 286.193 357.839 286.193 356.666C286.193 355.482 287.438 354.793 289.434 354.793ZM299.777 353.249L299.067 354.299C298.068 353.969 297.379 353.331 296.977 352.529C296.566 353.455 295.835 354.186 294.754 354.566L294.044 353.496C295.629 352.971 296.267 351.705 296.267 350.419V349.565H297.646V350.532C297.646 351.674 298.284 352.786 299.777 353.249ZM298.552 357.479C299.756 357.479 300.404 357.232 300.404 356.697C300.404 356.172 299.756 355.925 298.552 355.925C297.338 355.925 296.689 356.172 296.689 356.697C296.689 357.232 297.338 357.479 298.552 357.479ZM298.552 354.875C300.518 354.875 301.753 355.554 301.753 356.697C301.753 357.849 300.518 358.529 298.552 358.529C296.576 358.529 295.341 357.849 295.341 356.697C295.341 355.554 296.576 354.875 298.552 354.875ZM301.65 351.252H302.905V352.374H301.65V354.659H300.291V349.06H301.65V351.252Z" fill="#D4D4D8"/>
<path d="M207.987 359.347V369.705H205.934V359.347H207.987ZM204.884 365.939L203.85 367.56C202.275 367.019 201.195 365.97 200.577 364.642C199.929 366.078 198.817 367.235 197.165 367.807L196.131 366.186C198.493 365.383 199.512 363.391 199.512 361.493V360.119H201.581V361.493C201.581 363.376 202.569 365.198 204.884 365.939ZM200.562 371.681H208.342V373.302H198.524V368.717H200.562V371.681ZM218.962 365.275L219.193 366.896C217.079 367.235 215.18 367.297 212.355 367.297H211.104V362.913H215.627V361.771H211.089V360.134H217.634V364.426H213.111V365.661C215.458 365.645 217.109 365.568 218.962 365.275ZM214.732 369.999V371.789H220.197V369.999H214.732ZM212.725 373.379V368.393H222.188V373.379H212.725ZM220.135 359.347H222.188V367.76H220.135V359.347ZM231.959 363.083V359.64H233.858V372.932H231.959V368.27H229.983V366.633H231.959V364.704H230.245C229.612 367.05 228.192 369.026 225.537 370.601L224.379 369.181C227.189 367.467 228.424 365.414 228.686 362.635H225.182V361.014H230.709C230.709 361.74 230.662 362.419 230.585 363.083H231.959ZM234.877 359.316H236.806V373.549H234.877V359.316ZM246.963 365.723L247.133 367.343C245.157 367.714 243.351 367.791 240.51 367.791H239.291V363.16H243.752V361.817H239.275V360.181H245.759V364.688H241.313V366.155C243.628 366.139 245.188 366.047 246.963 365.723ZM242.903 368.98V371.681H250.498V373.302H240.865V368.98H242.903ZM249.973 363.422H251.857V365.09H249.973V369.813H247.935V359.331H249.973V363.422ZM258.169 364.302V361.585H255.39V364.302H258.169ZM260.176 359.995V365.908H253.399V359.995H260.176ZM256.826 370.879V371.805H264.591V373.379H254.804V369.412H262.168V368.563H254.788V366.988H264.174V370.879H256.826ZM264.174 362.064H266.042V363.731H264.174V366.433H262.137V359.331H264.174V362.064ZM276.924 359.316H278.962V373.58H276.924V359.316ZM271.321 360.319C273.466 360.319 275.057 362.265 275.057 365.383C275.057 368.517 273.466 370.477 271.321 370.477C269.175 370.477 267.585 368.517 267.585 365.383C267.585 362.265 269.175 360.319 271.321 360.319ZM271.321 362.156C270.271 362.156 269.545 363.283 269.545 365.383C269.545 367.498 270.271 368.625 271.321 368.625C272.37 368.625 273.096 367.498 273.096 365.383C273.096 363.283 272.37 362.156 271.321 362.156ZM282.28 360.15H288.856C288.856 363.932 286.464 366.494 282.234 367.575L281.462 365.985C284.611 365.198 286.386 363.638 286.68 361.755H282.28V360.15ZM285.8 369.458V371.789H291.187V369.458H285.8ZM283.793 373.379V367.853H293.194V373.379H283.793ZM291.141 359.347H293.194V367.251H291.141V359.347ZM300.804 365.028V363.299H298.01V365.028H300.804ZM302.811 360.026V366.633H296.003V360.026H298.01V361.74H300.804V360.026H302.811ZM304.756 371.774V370.554H299.507V371.774H304.756ZM304.756 368.98V367.745H306.778V373.379H297.5V367.745H299.507V368.98H304.756ZM308.661 362.326V363.994H306.778V367.143H304.74V359.331H306.778V362.326H308.661Z" fill="#D4D4D8"/>
<path d="M113.647 342.194V352.553H111.594V342.194H113.647ZM110.544 348.786L109.51 350.407C107.935 349.866 106.855 348.817 106.237 347.489C105.589 348.925 104.477 350.083 102.826 350.654L101.791 349.033C104.153 348.23 105.172 346.239 105.172 344.34V342.966H107.241V344.34C107.241 346.223 108.229 348.045 110.544 348.786ZM106.222 354.529H114.002V356.149H104.184V351.565H106.222V354.529ZM124.622 348.122L124.854 349.743C122.739 350.083 120.84 350.144 118.015 350.144H116.764V345.76H121.288V344.618H116.749V342.981H123.294V347.273H118.771V348.508C121.118 348.493 122.77 348.415 124.622 348.122ZM120.392 352.846V354.637H125.857V352.846H120.392ZM118.385 356.227V351.24H127.848V356.227H118.385ZM125.795 342.194H127.848V350.607H125.795V342.194ZM137.619 345.93V342.487H139.518V355.779H137.619V351.117H135.643V349.481H137.619V347.551H135.906C135.273 349.897 133.852 351.873 131.197 353.448L130.039 352.028C132.849 350.314 134.084 348.261 134.346 345.482H130.842V343.861H136.369C136.369 344.587 136.322 345.266 136.245 345.93H137.619ZM140.537 342.163H142.466V356.396H140.537V342.163ZM152.623 348.57L152.793 350.191C150.817 350.561 149.011 350.638 146.17 350.638H144.951V346.007H149.412V344.664H144.935V343.028H151.419V347.535H146.973V349.002C149.289 348.987 150.848 348.894 152.623 348.57ZM148.563 351.827V354.529H156.158V356.149H146.525V351.827H148.563ZM155.633 346.27H157.517V347.937H155.633V352.661H153.596V342.179H155.633V346.27ZM163.829 347.149V344.432H161.051V347.149H163.829ZM165.836 342.842V348.755H159.059V342.842H165.836ZM162.486 353.726V354.652H170.251V356.227H160.464V352.259H167.828V351.41H160.449V349.836H169.835V353.726H162.486ZM169.835 344.911H171.702V346.578H169.835V349.28H167.797V342.179H169.835V344.911ZM182.585 342.163H184.622V356.427H182.585V342.163ZM176.981 343.167C179.127 343.167 180.717 345.112 180.717 348.23C180.717 351.364 179.127 353.324 176.981 353.324C174.835 353.324 173.245 351.364 173.245 348.23C173.245 345.112 174.835 343.167 176.981 343.167ZM176.981 345.004C175.931 345.004 175.206 346.131 175.206 348.23C175.206 350.345 175.931 351.472 176.981 351.472C178.031 351.472 178.756 350.345 178.756 348.23C178.756 346.131 178.031 345.004 176.981 345.004ZM187.94 342.997H194.517C194.517 346.779 192.124 349.342 187.894 350.422L187.122 348.832C190.271 348.045 192.047 346.486 192.34 344.602H187.94V342.997ZM191.46 352.306V354.637H196.848V352.306H191.46ZM189.453 356.227V350.7H198.854V356.227H189.453ZM196.801 342.194H198.854V350.098H196.801V342.194ZM206.464 347.875V346.146H203.67V347.875H206.464ZM208.471 342.873V349.481H201.663V342.873H203.67V344.587H206.464V342.873H208.471ZM210.416 354.621V353.402H205.167V354.621H210.416ZM210.416 351.827V350.592H212.438V356.227H203.16V350.592H205.167V351.827H210.416ZM214.321 345.173V346.841H212.438V349.99H210.4V342.179H212.438V345.173H214.321Z" fill="#D4D4D8"/>
<path d="M215.593 376.775H220.152C220.152 379.348 218.567 381.129 215.747 381.942L215.181 380.861C217.291 380.285 218.464 379.184 218.68 377.856H215.593V376.775ZM217.949 382.168V384.298H223.034V385.379H216.591V382.168H217.949ZM222.704 378.71H223.97V379.822H222.704V382.847H221.346V376.065H222.704V378.71ZM230.371 380.367L229.722 381.417C228.683 381.108 227.962 380.48 227.551 379.698C227.129 380.635 226.377 381.386 225.266 381.746L224.587 380.686C226.12 380.172 226.799 378.967 226.82 377.784H224.937V376.693H230.062V377.784H228.209C228.23 378.865 228.878 379.925 230.371 380.367ZM229.084 384.504C230.288 384.504 230.937 384.247 230.937 383.712C230.937 383.166 230.288 382.909 229.084 382.909C227.87 382.909 227.221 383.166 227.221 383.712C227.221 384.247 227.87 384.504 229.084 384.504ZM229.084 381.859C231.05 381.859 232.285 382.549 232.285 383.712C232.285 384.865 231.05 385.544 229.084 385.544C227.108 385.544 225.873 384.865 225.873 383.712C225.873 382.549 227.108 381.859 229.084 381.859ZM232.182 378.247H233.438V379.359H232.182V381.695H230.823V376.065H232.182V378.247ZM239.107 378.566V376.271H240.373V385.132H239.107V382.024H237.79V380.933H239.107V379.647H237.965C237.543 381.211 236.596 382.528 234.826 383.578L234.054 382.631C235.927 381.489 236.751 380.12 236.926 378.268H234.589V377.187H238.274C238.274 377.671 238.243 378.124 238.191 378.566H239.107ZM241.053 376.055H242.339V385.544H241.053V376.055ZM249.11 380.326L249.223 381.407C247.906 381.654 246.702 381.705 244.808 381.705H243.995V378.618H246.969V377.722H243.985V376.631H248.307V379.636H245.343V380.614C246.887 380.604 247.926 380.542 249.11 380.326ZM246.403 382.497V384.298H251.467V385.379H245.045V382.497H246.403ZM251.117 378.792H252.372V379.904H251.117V383.053H249.758V376.065H251.117V378.792ZM256.601 379.863V378.71H254.739V379.863H256.601ZM257.939 376.528V380.933H253.401V376.528H254.739V377.671H256.601V376.528H257.939ZM259.236 384.36V383.547H255.737V384.36H259.236ZM259.236 382.497V381.674H260.584V385.431H254.399V381.674H255.737V382.497H259.236ZM261.84 378.062V379.173H260.584V381.273H259.226V376.065H260.584V378.062H261.84Z" fill="#D4D4D8"/>
<path d="M148.697 362.196H153.256C153.256 364.769 151.671 366.549 148.852 367.362L148.286 366.282C150.395 365.705 151.569 364.604 151.785 363.276H148.697V362.196ZM151.054 367.589V369.719H156.138V370.8H149.695V367.589H151.054ZM155.809 364.131H157.075V365.242H155.809V368.268H154.45V361.486H155.809V364.131ZM163.475 365.788L162.827 366.837C161.787 366.529 161.067 365.901 160.655 365.119C160.233 366.055 159.482 366.806 158.37 367.167L157.691 366.107C159.225 365.592 159.904 364.388 159.925 363.204H158.041V362.113H163.166V363.204H161.314C161.334 364.285 161.983 365.345 163.475 365.788ZM162.189 369.925C163.393 369.925 164.041 369.667 164.041 369.132C164.041 368.587 163.393 368.33 162.189 368.33C160.974 368.33 160.326 368.587 160.326 369.132C160.326 369.667 160.974 369.925 162.189 369.925ZM162.189 367.28C164.154 367.28 165.389 367.969 165.389 369.132C165.389 370.285 164.154 370.964 162.189 370.964C160.213 370.964 158.978 370.285 158.978 369.132C158.978 367.969 160.213 367.28 162.189 367.28ZM165.286 363.667H166.542V364.779H165.286V367.115H163.928V361.486H165.286V363.667ZM172.212 363.986V361.691H173.478V370.553H172.212V367.444H170.895V366.354H172.212V365.067H171.07C170.648 366.631 169.701 367.949 167.931 368.998L167.159 368.052C169.032 366.909 169.855 365.541 170.03 363.688H167.694V362.607H171.378C171.378 363.091 171.347 363.544 171.296 363.986H172.212ZM174.157 361.475H175.443V370.964H174.157V361.475ZM182.215 365.746L182.328 366.827C181.01 367.074 179.806 367.125 177.913 367.125H177.1V364.038H180.074V363.143H177.089V362.052H181.412V365.057H178.448V366.035C179.992 366.024 181.031 365.962 182.215 365.746ZM179.508 367.918V369.719H184.571V370.8H178.149V367.918H179.508ZM184.221 364.213H185.477V365.324H184.221V368.474H182.863V361.486H184.221V364.213ZM189.706 365.283V364.131H187.843V365.283H189.706ZM191.044 361.949V366.354H186.505V361.949H187.843V363.091H189.706V361.949H191.044ZM192.341 369.781V368.968H188.841V369.781H192.341ZM192.341 367.918V367.095H193.689V370.851H187.504V367.095H188.841V367.918H192.341ZM194.944 363.482V364.594H193.689V366.693H192.33V361.486H193.689V363.482H194.944Z" fill="#D4D4D8"/>
<path d="M227.5 393.108V394.919H229.589V393.108C229.26 393.17 228.91 393.201 228.539 393.201C228.169 393.201 227.829 393.17 227.5 393.108ZM228.539 389.177C227.222 389.177 226.347 389.712 226.347 390.659C226.347 391.595 227.222 392.141 228.539 392.141C229.857 392.141 230.742 391.595 230.742 390.659C230.742 389.712 229.857 389.177 228.539 389.177ZM230.937 394.919H232.841V396.021H224.258V394.919H226.152V392.604C225.431 392.161 224.999 391.482 225.009 390.659C225.009 389.105 226.502 388.106 228.539 388.106C230.587 388.106 232.08 389.105 232.08 390.659C232.08 391.482 231.647 392.161 230.937 392.604V394.919ZM235.619 392.11V393.818C237.06 393.808 238.254 393.736 239.592 393.51L239.736 394.611C238.192 394.878 236.803 394.94 235.084 394.94H234.23V391.04H237.307V389.527H234.219V388.446H238.696V392.11H235.619ZM240.25 387.633H241.609V397.142H240.25V387.633ZM251.292 390.453L250.798 391.513C249.203 391.276 248.051 390.618 247.454 389.681C246.857 390.607 245.704 391.276 244.119 391.513L243.625 390.453C245.745 390.196 246.764 389.115 246.764 388.045V387.767H248.153V388.045C248.153 389.146 249.152 390.196 251.292 390.453ZM245.519 394.889V395.949H249.399V394.889H245.519ZM244.191 397.009V393.829H250.737V397.009H244.191ZM248.143 392.079H251.756V393.149H243.193V392.079H246.785V390.937H248.143V392.079ZM257.724 388.395V389.99C257.724 391.513 257.899 393.149 259.113 394.086L258.29 395.064C257.672 394.58 257.292 393.88 257.065 393.036C256.839 393.911 256.437 394.662 255.779 395.166C255.12 394.662 254.729 393.911 254.492 393.067C254.266 393.87 253.906 394.549 253.329 395.012L252.455 394.086C253.659 393.149 253.834 391.503 253.834 389.99V388.395H255.11V389.99C255.11 391.081 255.202 392.326 255.779 393.293C256.345 392.336 256.437 391.101 256.437 389.99V388.395H257.724ZM259.381 387.643H260.739V397.122H259.381V387.643Z" fill="#D4D4D8"/>
<path d="M215.85 399.767H220.234C220.234 402.288 218.639 403.997 215.819 404.717L215.305 403.657C217.404 403.132 218.588 402.093 218.783 400.837H215.85V399.767ZM218.196 405.973V407.527H221.788V405.973H218.196ZM216.859 408.587V404.902H223.126V408.587H216.859ZM221.757 399.232H223.126V404.501H221.757V399.232ZM228.415 401.846V402.175C228.415 403.544 229.167 405.088 230.721 405.757L230 406.796C228.93 406.354 228.179 405.448 227.757 404.367C227.335 405.51 226.573 406.477 225.492 406.961L224.762 405.921C226.316 405.221 227.057 403.616 227.057 402.175V401.846H225.081V400.765H227.057V399.448H228.415V400.765H230.35V401.846H228.415ZM231.225 399.221H232.583V408.7H231.225V399.221ZM235.042 406.508V405.427H238.253V408.7H236.915V406.508H235.042ZM238.675 406.508V405.427H241.783V408.7H240.445V406.508H238.675ZM236.627 401.28V402.031H240.322V401.28H236.627ZM239.138 403.791H242.761V404.872H234.188V403.791H237.78V403.101H235.279V399.427H236.627V400.261H240.322V399.427H241.67V403.101H239.138V403.791ZM247.937 399.407C250.026 399.407 251.374 400.107 251.374 401.249C251.374 402.402 250.026 403.091 247.937 403.091C245.848 403.091 244.51 402.402 244.51 401.249C244.51 400.107 245.848 399.407 247.937 399.407ZM247.937 400.446C246.65 400.446 245.909 400.714 245.909 401.249C245.909 401.784 246.65 402.052 247.937 402.052C249.234 402.052 249.975 401.784 249.975 401.249C249.975 400.714 249.234 400.446 247.937 400.446ZM244.654 405.376H251.199V408.587H244.654V405.376ZM249.861 406.436H245.981V407.527H249.861V406.436ZM243.655 403.637H252.218V404.707H243.655V403.637ZM256.601 403.019V401.866H254.739V403.019H256.601ZM257.939 399.685V404.089H253.401V399.685H254.739V400.827H256.601V399.685H257.939ZM259.236 407.516V406.703H255.737V407.516H259.236ZM259.236 405.654V404.83H260.584V408.587H254.399V404.83H255.737V405.654H259.236ZM261.84 401.218V402.33H260.584V404.429H259.226V399.221H260.584V401.218H261.84Z" fill="#D4D4D8"/>
<path d="M274.576 382.662V384.283H269.451V377.398H274.515V379.019H271.473V382.662H274.576ZM268.803 382.354L268.942 383.974C267.522 384.252 266.302 384.283 264.588 384.283H263.708V377.398H268.757V379.019H265.746V382.631C266.842 382.616 267.769 382.554 268.803 382.354ZM262.643 386.877H275.503V388.529H262.643V386.877ZM277.709 376.858H284.208C284.208 380.655 282.047 383.033 277.74 384.113L276.968 382.539C280.21 381.767 281.738 380.3 282.016 378.479H277.709V376.858ZM286.709 388.498V387.278H281.321V388.498H286.709ZM286.709 385.703V384.376H288.731V390.119H279.314V384.376H281.321V385.703H286.709ZM286.694 376.055H288.731V383.743H286.694V380.964H284.224V379.312H286.694V376.055ZM293.624 379.019V385.194C295.646 385.163 297.329 385.055 299.166 384.746L299.366 386.429C297.221 386.815 295.276 386.892 292.806 386.892H291.601V377.367H298.224V379.019H293.624ZM304.245 381.304V382.986H302.176V390.304H300.138V376.055H302.176V381.304H304.245Z" fill="#D4D4D8"/>
<path d="M248.244 308.014V309.074H240.536V308.014H243.726V307.016H245.085V308.014H248.244ZM246.248 311.081C246.248 310.638 245.64 310.453 244.405 310.453C243.17 310.453 242.574 310.638 242.574 311.081C242.574 311.503 243.17 311.699 244.405 311.699C245.64 311.699 246.248 311.503 246.248 311.081ZM241.164 311.081C241.164 310.031 242.378 309.445 244.405 309.445C246.433 309.445 247.658 310.031 247.658 311.081C247.658 312.12 246.433 312.707 244.405 312.707C242.378 312.707 241.164 312.12 241.164 311.081ZM248.707 313.16V314.251H245.085V316.515H243.726V314.251H240.124V313.16H248.707ZM251.321 311.493V313.211C252.679 313.201 253.801 313.129 255.036 312.913L255.159 314.014C253.739 314.271 252.432 314.333 250.785 314.333H249.983V310.422H252.988V308.91H249.972V307.829H254.326V311.493H251.321ZM258.391 310.597V311.719H257.032V316.525H255.674V307.016H257.032V310.597H258.391ZM265.553 307.016H266.912V316.525H265.553V307.016ZM261.817 307.685C263.248 307.685 264.308 308.982 264.308 311.06C264.308 313.15 263.248 314.457 261.817 314.457C260.387 314.457 259.327 313.15 259.327 311.06C259.327 308.982 260.387 307.685 261.817 307.685ZM261.817 308.91C261.117 308.91 260.634 309.661 260.634 311.06C260.634 312.47 261.117 313.222 261.817 313.222C262.517 313.222 263.001 312.47 263.001 311.06C263.001 309.661 262.517 308.91 261.817 308.91ZM274.671 310.875V313.891H273.405V307.201H274.671V309.774H275.319V307.036H276.605V314.199H275.319V310.875H274.671ZM270.41 308.982V311.606C270.647 311.606 270.904 311.596 271.141 311.585V308.982H270.41ZM273.034 311.431L273.117 312.419C271.666 312.707 269.772 312.738 268.588 312.738L268.455 311.637H269.196V308.982H268.609V307.901H272.942V308.982H272.355V311.503C272.592 311.482 272.818 311.462 273.034 311.431ZM271.542 315.259H276.832V316.34H270.173V313.345H271.542V315.259Z" fill="#D4D4D8"/>
<path d="M205.362 308.014V309.074H197.654V308.014H200.844V307.016H202.203V308.014H205.362ZM203.366 311.081C203.366 310.638 202.759 310.453 201.524 310.453C200.289 310.453 199.692 310.638 199.692 311.081C199.692 311.503 200.289 311.699 201.524 311.699C202.759 311.699 203.366 311.503 203.366 311.081ZM198.282 311.081C198.282 310.031 199.496 309.445 201.524 309.445C203.551 309.445 204.776 310.031 204.776 311.081C204.776 312.12 203.551 312.707 201.524 312.707C199.496 312.707 198.282 312.12 198.282 311.081ZM205.826 313.16V314.251H202.203V316.515H200.844V314.251H197.242V313.16H205.826ZM208.439 311.493V313.211C209.797 313.201 210.919 313.129 212.154 312.913L212.278 314.014C210.857 314.271 209.55 314.333 207.904 314.333H207.101V310.422H210.106V308.91H207.091V307.829H211.444V311.493H208.439ZM215.509 310.597V311.719H214.151V316.525H212.792V307.016H214.151V310.597H215.509ZM222.671 307.016H224.03V316.525H222.671V307.016ZM218.935 307.685C220.366 307.685 221.426 308.982 221.426 311.06C221.426 313.15 220.366 314.457 218.935 314.457C217.505 314.457 216.445 313.15 216.445 311.06C216.445 308.982 217.505 307.685 218.935 307.685ZM218.935 308.91C218.236 308.91 217.752 309.661 217.752 311.06C217.752 312.47 218.236 313.222 218.935 313.222C219.635 313.222 220.119 312.47 220.119 311.06C220.119 309.661 219.635 308.91 218.935 308.91ZM231.789 310.875V313.891H230.523V307.201H231.789V309.774H232.437V307.036H233.724V314.199H232.437V310.875H231.789ZM227.528 308.982V311.606C227.765 311.606 228.022 311.596 228.259 311.585V308.982H227.528ZM230.152 311.431L230.235 312.419C228.784 312.707 226.89 312.738 225.706 312.738L225.573 311.637H226.314V308.982H225.727V307.901H230.06V308.982H229.473V311.503C229.71 311.482 229.936 311.462 230.152 311.431ZM228.66 315.259H233.95V316.34H227.291V313.345H228.66V315.259Z" fill="#D4D4D8"/>
<path d="M206.272 326.535V328.059C206.828 328.028 207.383 327.976 207.867 327.925L207.95 328.913C206.437 329.191 204.522 329.242 203.287 329.242L203.133 328.131C203.658 328.131 204.306 328.131 204.986 328.11V326.535H203.524V322.47H207.579V323.551H204.862V325.445H207.661V326.535H206.272ZM210.203 321.606H211.49V331.084H210.203V326.463H209.504V330.662H208.238V321.77H209.504V325.372H210.203V321.606ZM216.378 323.633V324.158C216.378 325.702 217.139 327.338 218.724 327.997L217.983 329.067C216.882 328.594 216.131 327.667 215.709 326.525C215.287 327.76 214.525 328.8 213.414 329.304L212.642 328.223C214.227 327.513 214.998 325.774 214.998 324.158V323.633H213.022V322.511H218.333V323.633H216.378ZM219.208 321.606H220.566V331.084H219.208V321.606ZM229.56 327.863L228.202 327.709C228.562 325.918 228.583 324.601 228.583 323.499H223.056V322.419H229.941V323.324C229.941 324.508 229.941 325.846 229.56 327.863ZM226.576 328.851H230.764V329.942H222.191V328.851H225.217V325.589H226.576V328.851ZM232.174 322.583H236.722C236.722 325.486 235.745 327.853 232.379 329.479L231.669 328.408C234.088 327.246 235.137 325.764 235.333 323.664H232.174V322.583ZM238.174 321.595H239.542V331.074H238.174V321.595Z" fill="#D4D4D8"/>
<path d="M163.39 326.535V328.059C163.946 328.028 164.502 327.976 164.985 327.925L165.068 328.913C163.555 329.191 161.641 329.242 160.406 329.242L160.251 328.131C160.776 328.131 161.424 328.131 162.104 328.11V326.535H160.642V322.47H164.697V323.551H161.98V325.445H164.78V326.535H163.39ZM167.322 321.606H168.608V331.084H167.322V326.463H166.622V330.662H165.356V321.77H166.622V325.372H167.322V321.606ZM173.496 323.633V324.158C173.496 325.702 174.257 327.338 175.842 327.997L175.101 329.067C174 328.594 173.249 327.667 172.827 326.525C172.405 327.76 171.643 328.8 170.532 329.304L169.76 328.223C171.345 327.513 172.117 325.774 172.117 324.158V323.633H170.141V322.511H175.451V323.633H173.496ZM176.326 321.606H177.684V331.084H176.326V321.606ZM186.678 327.863L185.32 327.709C185.68 325.918 185.701 324.601 185.701 323.499H180.174V322.419H187.059V323.324C187.059 324.508 187.059 325.846 186.678 327.863ZM183.694 328.851H187.883V329.942H179.31V328.851H182.335V325.589H183.694V328.851ZM189.292 322.583H193.841C193.841 325.486 192.863 327.853 189.498 329.479L188.787 328.408C191.206 327.246 192.256 325.764 192.451 323.664H189.292V322.583ZM195.292 321.595H196.66V331.074H195.292V321.595Z" fill="#D4D4D8"/>
<path d="M349.109 358.312H351.085V355.046H352.896V364.268H351.085V359.781H349.109V358.312ZM349.946 361.221L349.068 362.635C347.682 362.182 346.749 361.276 346.2 360.137C345.637 361.386 344.649 362.388 343.181 362.882L342.262 361.441C344.334 360.769 345.239 359.108 345.239 357.516V357.338H342.756V355.897H349.548V357.338H347.092V357.503C347.092 358.998 347.956 360.549 349.946 361.221ZM346.378 366.024H353.184V367.465H344.567V363.499H346.378V366.024ZM363.146 358.861V356.995H358.137V358.861H363.146ZM364.93 355.582V360.288H356.353V355.582H364.93ZM358.082 363.801V366.024H365.122V367.465H356.271V363.801H358.082ZM354.94 361.29H366.384V362.717H361.732V364.871H359.921V362.717H354.94V361.29ZM375.193 360.727L374.314 362.141C372.928 361.688 371.995 360.782 371.446 359.657C370.884 360.906 369.896 361.894 368.428 362.388L367.508 360.947C369.539 360.288 370.445 358.697 370.486 357.132H368.002V355.691H374.795V357.132H372.338C372.393 358.587 373.258 360.082 375.193 360.727ZM371.515 364.281V366.12H376.373V364.281H371.515ZM369.731 367.534V362.868H378.143V367.534H369.731ZM376.332 355.046H378.143V362.347H376.332V359.437H374.424V357.969H376.332V355.046Z" fill="#D4D4D8"/>
<path d="M387.702 358.312H389.678V355.046H391.489V364.268H389.678V359.781H387.702V358.312ZM388.539 361.221L387.661 362.635C386.275 362.182 385.342 361.276 384.793 360.137C384.23 361.386 383.242 362.388 381.774 362.882L380.854 361.441C382.926 360.769 383.832 359.108 383.832 357.516V357.338H381.348V355.897H388.141V357.338H385.685V357.503C385.685 358.998 386.549 360.549 388.539 361.221ZM384.971 366.024H391.777V367.465H383.16V363.499H384.971V366.024ZM401.738 358.861V356.995H396.73V358.861H401.738ZM403.522 355.582V360.288H394.946V355.582H403.522ZM396.675 363.801V366.024H403.714V367.465H394.864V363.801H396.675ZM393.533 361.29H404.977V362.717H400.325V364.871H398.514V362.717H393.533V361.29ZM413.785 360.727L412.907 362.141C411.521 361.688 410.588 360.782 410.039 359.657C409.477 360.906 408.489 361.894 407.02 362.388L406.101 360.947C408.132 360.288 409.038 358.697 409.079 357.132H406.595V355.691H413.387V357.132H410.931C410.986 358.587 411.851 360.082 413.785 360.727ZM410.108 364.281V366.12H414.966V364.281H410.108ZM408.324 367.534V362.868H416.736V367.534H408.324ZM414.924 355.046H416.736V362.347H414.924V359.437H413.017V357.969H414.924V355.046Z" fill="#D4D4D8"/>
<path d="M344.9 342.961V348.34C346.08 348.313 347.15 348.244 348.358 348.024L348.495 349.493C346.958 349.781 345.613 349.836 343.994 349.836H343.116V341.493H347.795V342.961H344.9ZM351.884 340.024H353.599V352.676H351.884V346.35H350.745V352.086H349.057V340.271H350.745V344.896H351.884V340.024ZM357.688 342.837C357.688 343.537 358.264 343.949 359.142 343.949C360.02 343.949 360.624 343.537 360.624 342.837C360.624 342.124 360.02 341.726 359.142 341.726C358.264 341.726 357.688 342.124 357.688 342.837ZM362.943 345.719L363.067 346.954C360.514 347.421 357.66 347.462 355.547 347.476L355.341 346.076C356.206 346.076 357.207 346.076 358.25 346.048V345.17C356.905 344.909 356 344.031 356 342.837C356 341.41 357.303 340.422 359.142 340.422C360.995 340.422 362.298 341.41 362.298 342.837C362.298 344.018 361.406 344.896 360.062 345.156V345.98C361.05 345.925 362.024 345.856 362.943 345.719ZM361.173 351.318C362.792 351.318 363.67 351.03 363.67 350.412C363.67 349.795 362.792 349.506 361.173 349.506C359.54 349.506 358.676 349.795 358.676 350.412C358.676 351.03 359.54 351.318 361.173 351.318ZM361.173 348.148C363.821 348.148 365.482 348.999 365.482 350.412C365.482 351.825 363.821 352.676 361.173 352.676C358.511 352.676 356.864 351.825 356.864 350.412C356.864 348.999 358.511 348.148 361.173 348.148ZM365.399 343.263H366.991V344.759H365.399V347.983H363.588V340.038H365.399V343.263ZM374.565 343.373V340.313H376.253V352.127H374.565V347.983H372.808V346.529H374.565V344.813H373.042C372.479 346.899 371.217 348.656 368.856 350.055L367.827 348.793C370.325 347.27 371.422 345.445 371.656 342.975H368.541V341.534H373.453C373.453 342.179 373.412 342.783 373.343 343.373H374.565ZM377.158 340.024H378.873V352.676H377.158V340.024ZM387.902 345.719L388.053 347.16C386.296 347.489 384.691 347.558 382.166 347.558H381.082V343.441H385.047V342.247H381.068V340.793H386.831V344.8H382.879V346.103C384.938 346.09 386.324 346.007 387.902 345.719ZM384.293 348.614V351.016H391.044V352.457H382.481V348.614H384.293ZM390.577 343.674H392.251V345.156H390.577V349.355H388.766V340.038H390.577V343.674ZM397.863 344.457V342.042H395.393V344.457H397.863ZM399.647 340.628V345.884H393.623V340.628H399.647ZM396.669 350.302V351.126H403.571V352.525H394.871V348.999H401.417V348.244H394.858V346.844H403.201V350.302H396.669ZM403.201 342.467H404.861V343.949H403.201V346.35H401.389V340.038H403.201V342.467ZM414.534 340.024H416.345V352.704H414.534V340.024ZM409.553 340.916C411.46 340.916 412.874 342.645 412.874 345.417C412.874 348.203 411.46 349.945 409.553 349.945C407.646 349.945 406.232 348.203 406.232 345.417C406.232 342.645 407.646 340.916 409.553 340.916ZM409.553 342.549C408.62 342.549 407.975 343.551 407.975 345.417C407.975 347.297 408.62 348.299 409.553 348.299C410.486 348.299 411.131 347.297 411.131 345.417C411.131 343.551 410.486 342.549 409.553 342.549Z" fill="#D4D4D8"/>
<path d="M422.086 342.961V348.34C423.266 348.313 424.337 348.244 425.544 348.024L425.681 349.493C424.144 349.781 422.8 349.836 421.181 349.836H420.302V341.493H424.982V342.961H422.086ZM429.071 340.024H430.786V352.676H429.071V346.35H427.932V352.086H426.244V340.271H427.932V344.896H429.071V340.024ZM434.874 342.837C434.874 343.537 435.45 343.949 436.329 343.949C437.207 343.949 437.811 343.537 437.811 342.837C437.811 342.124 437.207 341.726 436.329 341.726C435.45 341.726 434.874 342.124 434.874 342.837ZM440.13 345.719L440.253 346.954C437.701 347.421 434.847 347.462 432.733 347.476L432.528 346.076C433.392 346.076 434.394 346.076 435.437 346.048V345.17C434.092 344.909 433.186 344.031 433.186 342.837C433.186 341.41 434.49 340.422 436.329 340.422C438.181 340.422 439.485 341.41 439.485 342.837C439.485 344.018 438.593 344.896 437.248 345.156V345.98C438.236 345.925 439.21 345.856 440.13 345.719ZM438.36 351.318C439.979 351.318 440.857 351.03 440.857 350.412C440.857 349.795 439.979 349.506 438.36 349.506C436.727 349.506 435.862 349.795 435.862 350.412C435.862 351.03 436.727 351.318 438.36 351.318ZM438.36 348.148C441.008 348.148 442.668 348.999 442.668 350.412C442.668 351.825 441.008 352.676 438.36 352.676C435.697 352.676 434.051 351.825 434.051 350.412C434.051 348.999 435.697 348.148 438.36 348.148ZM442.586 343.263H444.178V344.759H442.586V347.983H440.775V340.038H442.586V343.263ZM451.751 343.373V340.313H453.439V352.127H451.751V347.983H449.995V346.529H451.751V344.813H450.228C449.666 346.899 448.403 348.656 446.043 350.055L445.014 348.793C447.511 347.27 448.609 345.445 448.842 342.975H445.727V341.534H450.64C450.64 342.179 450.599 342.783 450.53 343.373H451.751ZM454.345 340.024H456.06V352.676H454.345V340.024ZM465.088 345.719L465.239 347.16C463.483 347.489 461.877 347.558 459.352 347.558H458.268V343.441H462.234V342.247H458.254V340.793H464.018V344.8H460.066V346.103C462.124 346.09 463.51 346.007 465.088 345.719ZM461.479 348.614V351.016H468.23V352.457H459.668V348.614H461.479ZM467.764 343.674H469.438V345.156H467.764V349.355H465.953V340.038H467.764V343.674ZM475.049 344.457V342.042H472.579V344.457H475.049ZM476.833 340.628V345.884H470.809V340.628H476.833ZM473.855 350.302V351.126H480.758V352.525H472.058V348.999H478.603V348.244H472.044V346.844H480.387V350.302H473.855ZM480.387 342.467H482.048V343.949H480.387V346.35H478.576V340.038H480.387V342.467ZM491.721 340.024H493.532V352.704H491.721V340.024ZM486.739 340.916C488.647 340.916 490.06 342.645 490.06 345.417C490.06 348.203 488.647 349.945 486.739 349.945C484.832 349.945 483.419 348.203 483.419 345.417C483.419 342.645 484.832 340.916 486.739 340.916ZM486.739 342.549C485.806 342.549 485.161 343.551 485.161 345.417C485.161 347.297 485.806 348.299 486.739 348.299C487.673 348.299 488.318 347.297 488.318 345.417C488.318 343.551 487.673 342.549 486.739 342.549Z" fill="#D4D4D8"/>
<path d="M387.781 325.808V331.187C388.962 331.16 390.032 331.091 391.239 330.872L391.377 332.34C389.84 332.628 388.495 332.683 386.876 332.683H385.998V324.34H390.677V325.808H387.781ZM394.766 322.872H396.481V335.523H394.766V329.197H393.627V334.933H391.939V323.119H393.627V327.743H394.766V322.872ZM400.569 325.685C400.569 326.384 401.146 326.796 402.024 326.796C402.902 326.796 403.506 326.384 403.506 325.685C403.506 324.971 402.902 324.573 402.024 324.573C401.146 324.573 400.569 324.971 400.569 325.685ZM405.825 328.566L405.949 329.801C403.396 330.268 400.542 330.309 398.429 330.323L398.223 328.923C399.087 328.923 400.089 328.923 401.132 328.896V328.017C399.787 327.757 398.882 326.878 398.882 325.685C398.882 324.257 400.185 323.27 402.024 323.27C403.876 323.27 405.18 324.257 405.18 325.685C405.18 326.865 404.288 327.743 402.943 328.004V328.827C403.931 328.772 404.906 328.703 405.825 328.566ZM404.055 334.165C405.674 334.165 406.552 333.877 406.552 333.259C406.552 332.642 405.674 332.354 404.055 332.354C402.422 332.354 401.557 332.642 401.557 333.259C401.557 333.877 402.422 334.165 404.055 334.165ZM404.055 330.995C406.703 330.995 408.364 331.846 408.364 333.259C408.364 334.673 406.703 335.523 404.055 335.523C401.393 335.523 399.746 334.673 399.746 333.259C399.746 331.846 401.393 330.995 404.055 330.995ZM408.281 326.11H409.873V327.606H408.281V330.83H406.47V322.885H408.281V326.11ZM417.447 326.22V323.16H419.134V334.974H417.447V330.83H415.69V329.376H417.447V327.661H415.923C415.361 329.746 414.098 331.503 411.738 332.902L410.709 331.64C413.206 330.117 414.304 328.292 414.537 325.822H411.423V324.381H416.335C416.335 325.026 416.294 325.63 416.225 326.22H417.447ZM420.04 322.872H421.755V335.523H420.04V322.872ZM430.783 328.566L430.934 330.007C429.178 330.336 427.572 330.405 425.048 330.405H423.964V326.288H427.929V325.095H423.95V323.64H429.713V327.647H425.761V328.95C427.819 328.937 429.205 328.854 430.783 328.566ZM427.174 331.462V333.863H433.926V335.304H425.363V331.462H427.174ZM433.459 326.522H435.133V328.004H433.459V332.203H431.648V322.885H433.459V326.522ZM440.745 327.304V324.889H438.275V327.304H440.745ZM442.528 323.475V328.731H436.504V323.475H442.528ZM439.551 333.149V333.973H446.453V335.372H437.753V331.846H444.299V331.091H437.739V329.691H446.083V333.149H439.551ZM446.083 325.314H447.743V326.796H446.083V329.197H444.271V322.885H446.083V325.314ZM457.416 322.872H459.227V335.551H457.416V322.872ZM452.435 323.764C454.342 323.764 455.756 325.492 455.756 328.264C455.756 331.05 454.342 332.793 452.435 332.793C450.527 332.793 449.114 331.05 449.114 328.264C449.114 325.492 450.527 323.764 452.435 323.764ZM452.435 325.396C451.502 325.396 450.857 326.398 450.857 328.264C450.857 330.144 451.502 331.146 452.435 331.146C453.368 331.146 454.013 330.144 454.013 328.264C454.013 326.398 453.368 325.396 452.435 325.396Z" fill="#D4D4D8"/>
<path d="M331.39 318.59V321.578C331.39 325.28 332.839 329.004 336.14 330.632L334.356 332.951C332.215 331.858 330.766 329.873 329.918 327.421C329.026 330.03 327.488 332.193 325.169 333.33L323.407 330.944C326.863 329.316 328.424 325.391 328.424 321.578V318.59H331.39ZM342.896 324.901V327.354H339.908V337.544H336.965V317.007H339.908V324.901H342.896ZM358.414 316.985H361.357V337.589H358.414V316.985ZM350.32 318.434C353.419 318.434 355.716 321.244 355.716 325.748C355.716 330.275 353.419 333.107 350.32 333.107C347.22 333.107 344.924 330.275 344.924 325.748C344.924 321.244 347.22 318.434 350.32 318.434ZM350.32 321.088C348.803 321.088 347.755 322.716 347.755 325.748C347.755 328.803 348.803 330.431 350.32 330.431C351.836 330.431 352.884 328.803 352.884 325.748C352.884 322.716 351.836 321.088 350.32 321.088ZM366.73 329.74L365.592 327.398C370.119 326.685 372.55 323.897 372.572 321.066H366.395V318.747H381.87V321.066H375.694C375.716 323.897 378.146 326.618 382.785 327.309L381.67 329.628C378.057 329.004 375.448 327.242 374.155 324.856C372.862 327.287 370.297 329.093 366.73 329.74ZM364.857 332.705H383.453V335.091H364.857V332.705Z" fill="#D4D4D8"/>
<path d="M352.831 279.997V282.985C352.831 286.686 354.28 290.41 357.58 292.038L355.796 294.357C353.656 293.264 352.206 291.28 351.359 288.827C350.467 291.436 348.928 293.599 346.609 294.736L344.848 292.35C348.304 290.722 349.865 286.798 349.865 282.985V279.997H352.831ZM364.337 286.307V288.76H361.349V298.95H358.405V278.414H361.349V286.307H364.337ZM379.854 278.391H382.798V298.995H379.854V278.391ZM371.76 279.841C374.86 279.841 377.156 282.65 377.156 287.154C377.156 291.681 374.86 294.513 371.76 294.513C368.661 294.513 366.364 291.681 366.364 287.154C366.364 282.65 368.661 279.841 371.76 279.841ZM371.76 282.494C370.244 282.494 369.196 284.122 369.196 287.154C369.196 290.209 370.244 291.837 371.76 291.837C373.276 291.837 374.324 290.209 374.324 287.154C374.324 284.122 373.276 282.494 371.76 282.494ZM388.17 291.146L387.033 288.805C391.559 288.091 393.99 285.304 394.012 282.472H387.836V280.153H403.311V282.472H397.134C397.156 285.304 399.587 288.024 404.225 288.715L403.11 291.034C399.498 290.41 396.889 288.648 395.595 286.263C394.302 288.693 391.738 290.499 388.17 291.146ZM386.297 294.112H404.894V296.498H386.297V294.112Z" fill="#D4D4D8"/>
<path d="M309.925 307.204L309.362 305.86C311.626 305.722 312.861 305.105 313.232 304.419H309.925V303.047H319.283V304.419H315.949C316.319 305.105 317.554 305.722 319.832 305.86L319.27 307.204C316.841 307.04 315.249 306.271 314.59 305.174C313.932 306.271 312.354 307.04 309.925 307.204ZM314.563 314.216C315.894 314.216 316.566 314.079 316.566 313.75C316.566 313.407 315.894 313.27 314.563 313.27C313.246 313.27 312.587 313.407 312.587 313.75C312.587 314.079 313.246 314.216 314.563 314.216ZM314.563 312.076C317.019 312.076 318.433 312.666 318.433 313.75C318.433 314.834 317.019 315.41 314.563 315.41C312.134 315.41 310.721 314.834 310.721 313.75C310.721 312.666 312.134 312.076 314.563 312.076ZM315.482 309.469V310.36H319.256V311.705H309.911V310.36H313.671V309.469H315.482ZM315.482 307.657H320.34V309.071H308.882V307.657H313.671V306.505H315.482V307.657ZM324.895 310.992C325.828 310.992 326.473 309.99 326.473 308.11C326.473 306.244 325.828 305.242 324.895 305.242C323.948 305.242 323.317 306.244 323.317 308.11C323.317 309.99 323.948 310.992 324.895 310.992ZM324.895 303.609C326.802 303.609 328.215 305.338 328.215 308.11C328.215 310.896 326.802 312.638 324.895 312.638C322.974 312.638 321.574 310.896 321.574 308.11C321.574 305.338 322.974 303.609 324.895 303.609ZM333.238 307.493V308.988H331.399V315.369H329.588V302.731H331.399V307.493H333.238ZM337.779 311.307C338.629 311.307 339.247 310.731 339.247 309.757C339.247 308.81 338.629 308.22 337.779 308.22C336.928 308.22 336.297 308.81 336.297 309.77C336.297 310.731 336.928 311.307 337.779 311.307ZM337.779 306.752C339.604 306.752 340.962 308 340.962 309.757C340.962 311.541 339.604 312.789 337.779 312.789C335.94 312.789 334.568 311.541 334.568 309.757C334.568 308 335.94 306.752 337.779 306.752ZM338.671 302.951V304.597H341.415V306.038H334.06V304.597H336.859V302.951H338.671ZM345.861 307.671V309.167H344.05V315.369H342.238V302.731H344.05V307.671H345.861ZM349.043 305.366V310.854C350.841 310.827 352.337 310.731 353.97 310.457L354.148 311.952C352.241 312.295 350.512 312.364 348.316 312.364H347.246V303.897H353.133V305.366H349.043ZM358.484 307.397V308.892H356.646V315.397H354.834V302.731H356.646V307.397H358.484Z" fill="#D4D4D8"/>
<path d="M369.386 309.137L368.691 310.539C366.607 310.166 365.089 309.06 364.317 307.593C363.545 309.047 362.04 310.166 359.969 310.539L359.274 309.137C361.95 308.699 363.417 306.886 363.417 305.239V304.39H365.231V305.239C365.231 306.924 366.684 308.699 369.386 309.137ZM365.179 312.816H369.746V314.18H359.017V312.816H363.481V310.166H365.179V312.816ZM381.207 309.304L380.487 310.732C378.429 310.32 376.911 309.175 376.152 307.67C375.393 309.175 373.887 310.333 371.829 310.732L371.109 309.304C373.772 308.854 375.251 306.976 375.251 305.277V304.428H377.065V305.277C377.065 307.014 378.531 308.854 381.207 309.304ZM370.851 312.765H381.58V314.141H370.851V312.765Z" fill="#D4D4D8"/>
<path d="M399.402 309.137L398.708 310.539C396.624 310.166 395.106 309.06 394.334 307.593C393.562 309.047 392.057 310.166 389.986 310.539L389.291 309.137C391.967 308.699 393.433 306.886 393.433 305.239V304.39H395.247V305.239C395.247 306.924 396.701 308.699 399.402 309.137ZM395.196 312.816H399.763V314.18H389.034V312.816H393.498V310.166H395.196V312.816ZM411.224 309.304L410.503 310.732C408.445 310.32 406.927 309.175 406.168 307.67C405.409 309.175 403.904 310.333 401.846 310.732L401.125 309.304C403.788 308.854 405.268 306.976 405.268 305.277V304.428H407.082V305.277C407.082 307.014 408.548 308.854 411.224 309.304ZM400.868 312.765H411.597V314.141H400.868V312.765Z" fill="#D4D4D8"/>
<path d="M304.464 277.482H310.255C310.255 280.83 308.333 282.985 304.478 283.932L303.791 282.518C305.369 282.162 306.481 281.613 307.208 280.94L304.08 281.174L303.819 279.774L308.114 279.623C308.196 279.403 308.265 279.156 308.292 278.923H304.464V277.482ZM307.167 287.362V288.131H314.056V289.489H305.356V286.072H311.874V285.359H305.342V283.973H313.685V287.362H307.167ZM313.685 279.568H315.359V281.036H313.685V283.479H311.874V276.988H313.685V279.568ZM322.974 286.772H327.804V288.254H316.36V286.772H321.163V284.892H317.677V280.611H324.73V279.252H317.663V277.812H326.514V282.024H319.475V283.438H326.802V284.892H322.974V286.772ZM331.508 282.957V285.235C333.429 285.222 335.021 285.125 336.805 284.824L336.997 286.292C334.939 286.649 333.086 286.731 330.794 286.731H329.655V281.53H333.758V279.513H329.642V278.072H335.611V282.957H331.508ZM337.683 276.988H339.494V289.668H337.683V276.988Z" fill="#D4D4D8"/>
<path d="M319.218 362.973L316.501 362.664C317.222 359.082 317.263 356.448 317.263 354.245H306.21V352.084H319.98V353.895C319.98 356.263 319.98 358.938 319.218 362.973ZM313.249 364.949H321.627V367.13H304.481V364.949H310.532V358.424H313.249V364.949ZM324.445 352.413H333.543C333.543 358.218 331.587 362.952 324.857 366.204L323.436 364.064C328.273 361.738 330.373 358.774 330.764 354.575H324.445V352.413ZM336.445 350.437H339.183V369.395H336.445V350.437Z" fill="#D4D4D8"/>
<path d="M344.601 374.815V373.703H337.212V374.815H344.601ZM347.297 370.472V376.811H334.515V370.472H337.212V371.727H344.601V370.472H347.297ZM349.479 379.961H342.234V381.134H347.38V385.95H337.006V386.98H347.874V388.997H334.309V384.077H344.704V383.13H334.289V381.134H339.517V379.961H332.333V377.82H349.479V379.961ZM362.013 376.75L362.28 378.87C359.831 379.405 357.546 379.528 353.512 379.528H351.927V371.213H360.407V373.353H354.623V377.388C357.875 377.367 359.851 377.203 362.013 376.75ZM355.611 385.806V386.918C358.164 386.897 359.255 386.835 360.51 386.547L360.778 388.544C359.255 388.894 357.958 388.914 354.253 388.914H352.997V383.933H356.702V382.925H352.956V380.907H359.316V385.806H355.611ZM360.098 383.048V380.907H366.191V388.997H363.515V383.048H360.098ZM368.702 374.156V376.359H366.191V380.166H363.474V370.184H366.191V374.156H368.702Z" fill="#D4D4D8"/>
<path d="M282.804 293.86V295.794H287.661V293.86H282.804ZM281.02 297.208V292.446H289.431V297.208H281.02ZM282.351 290.017C283.284 290.017 283.956 289.427 283.956 288.439C283.956 287.479 283.284 286.916 282.351 286.916C281.431 286.916 280.759 287.479 280.759 288.439C280.759 289.427 281.431 290.017 282.351 290.017ZM287.62 284.721H289.431V291.884H287.62V289.167H285.617C285.274 290.58 283.984 291.527 282.351 291.527C280.471 291.527 279.03 290.251 279.03 288.439C279.03 286.669 280.471 285.379 282.351 285.379C283.97 285.379 285.26 286.326 285.603 287.698H287.62V284.721ZM293.657 287.342V292.858H296.127V287.342H293.657ZM291.873 294.285V285.915H297.911V294.285H291.873ZM303.221 289.482V290.978H301.382V297.359H299.571V284.734H301.382V289.482H303.221ZM281.171 304.676V306.968C282.982 306.954 284.478 306.858 286.124 306.57L286.289 308.038C284.395 308.381 282.653 308.463 280.457 308.463H279.387V303.249H283.394V301.232H279.373V299.791H285.178V304.676H281.171ZM290.598 303.482V304.978H288.787V311.386H286.975V298.707H288.787V303.482H290.598ZM296.195 304.484V301.15H293.794V304.484H296.195ZM300.243 302.151H297.966V303.427H300.243V302.151ZM297.966 304.868V305.911H292.01V299.736H297.966V300.71H300.243V298.721H302.055V307.928H300.243V304.868H297.966ZM295.523 309.698H302.329V311.139H293.712V307.064H295.523V309.698Z" fill="#D4D4D8"/>
<path d="M175.6 298.148V300.083H180.457V298.148H175.6ZM173.816 301.496V296.734H182.227V301.496H173.816ZM175.147 294.306C176.08 294.306 176.752 293.716 176.752 292.728C176.752 291.767 176.08 291.204 175.147 291.204C174.227 291.204 173.555 291.767 173.555 292.728C173.555 293.716 174.227 294.306 175.147 294.306ZM180.416 289.009H182.227V296.172H180.416V293.455H178.413C178.07 294.868 176.78 295.815 175.147 295.815C173.267 295.815 171.826 294.539 171.826 292.728C171.826 290.957 173.267 289.667 175.147 289.667C176.766 289.667 178.056 290.614 178.399 291.987H180.416V289.009ZM186.453 291.63V297.146H188.923V291.63H186.453ZM184.669 298.573V290.203H190.707V298.573H184.669ZM196.017 293.77V295.266H194.178V301.647H192.367V289.023H194.178V293.77H196.017ZM173.967 308.964V311.256C175.778 311.242 177.274 311.146 178.92 310.858L179.085 312.326C177.191 312.669 175.449 312.752 173.253 312.752H172.183V307.537H176.19V305.52H172.169V304.079H177.974V308.964H173.967ZM183.394 307.77V309.266H181.582V315.674H179.771V302.995H181.582V307.77H183.394ZM188.991 308.772V305.438H186.59V308.772H188.991ZM193.039 306.439H190.761V307.716H193.039V306.439ZM190.761 309.156V310.199H184.806V304.024H190.761V304.999H193.039V303.009H194.851V312.216H193.039V309.156H190.761ZM188.319 313.987H195.125V315.427H186.508V311.352H188.319V313.987Z" fill="#D4D4D8"/>
<path d="M272.761 332.196L272.212 333.088C271.328 332.805 270.719 332.247 270.368 331.535C270.008 332.299 269.373 332.916 268.447 333.216L267.889 332.324C269.21 331.904 269.776 330.875 269.776 329.872V329.117H270.925V329.872C270.925 330.858 271.483 331.801 272.761 332.196ZM269.098 334.709V333.808H274.484V336.664H273.344V334.709H269.098ZM273.344 328.757H274.484V333.465H273.344V328.757ZM280.29 331.758L280.401 332.659C279.432 332.865 278.523 332.908 276.756 332.908H276.087V329.288H279.629V330.189H277.211V331.999C278.643 331.99 279.432 331.939 280.29 331.758ZM279.441 335.755C280.444 335.755 281.002 335.532 281.002 335.052C281.002 334.58 280.444 334.357 279.441 334.357C278.446 334.357 277.888 334.58 277.888 335.052C277.888 335.532 278.446 335.755 279.441 335.755ZM279.441 333.457C281.079 333.457 282.117 334.057 282.117 335.052C282.117 336.064 281.079 336.664 279.441 336.664C277.82 336.664 276.774 336.064 276.774 335.052C276.774 334.057 277.82 333.457 279.441 333.457ZM282.048 330.626H283.077V331.544H282.048V333.319H280.907V328.748H282.048V330.626Z" fill="#D4D4D8"/>
<path d="M251.32 326.192L250.771 327.084C249.888 326.801 249.279 326.244 248.927 325.532C248.567 326.295 247.932 326.913 247.006 327.213L246.449 326.321C247.769 325.901 248.336 324.872 248.336 323.868V323.114H249.485V323.868C249.485 324.855 250.042 325.798 251.32 326.192ZM247.658 328.705V327.805H253.044V330.661H251.903V328.705H247.658ZM251.903 322.753H253.044V327.462H251.903V322.753ZM258.849 325.755L258.961 326.656C257.992 326.861 257.083 326.904 255.316 326.904H254.647V323.285H258.189V324.186H255.771V325.995C257.203 325.987 257.992 325.935 258.849 325.755ZM258 329.752C259.004 329.752 259.561 329.529 259.561 329.048C259.561 328.577 259.004 328.354 258 328.354C257.006 328.354 256.448 328.577 256.448 329.048C256.448 329.529 257.006 329.752 258 329.752ZM258 327.453C259.638 327.453 260.676 328.053 260.676 329.048C260.676 330.06 259.638 330.661 258 330.661C256.379 330.661 255.333 330.06 255.333 329.048C255.333 328.053 256.379 327.453 258 327.453ZM260.608 324.623H261.637V325.541H260.608V327.316H259.467V322.745H260.608V324.623Z" fill="#D4D4D8"/>
<path d="M308.951 376.424V373.074H306.219V376.424H308.951ZM310.958 371.453V378.029H304.227V371.453H310.958ZM311.498 379.203V379.558C311.498 381.101 312.903 382.645 315.929 383.077L315.172 384.652C312.918 384.312 311.328 383.355 310.479 382.043C309.63 383.355 308.04 384.312 305.802 384.652L305.014 383.077C308.056 382.645 309.476 381.101 309.476 379.558V379.203H311.498ZM315.002 374.031H316.886V375.698H315.002V379.851H312.965V370.465H315.002V374.031ZM326.873 376.455L325.885 378.029C324.279 377.566 323.183 376.594 322.535 375.374C321.886 376.702 320.744 377.767 319.077 378.276L318.058 376.671C320.312 376.007 321.346 374.463 321.454 372.858H318.614V371.252H326.348V372.858H323.554C323.662 374.355 324.711 375.822 326.873 376.455ZM327.799 382.907V381.657H322.396V382.907H327.799ZM327.799 380.098V378.801H329.821V384.528H320.373V378.801H322.396V380.098H327.799ZM327.768 370.496H329.821V378.199H327.768V370.496Z" fill="#D4D4D8"/>
<path d="M308.951 393.577V390.227H306.219V393.577H308.951ZM310.958 388.606V395.182H304.227V388.606H310.958ZM311.498 396.355V396.71C311.498 398.254 312.903 399.798 315.929 400.23L315.172 401.805C312.918 401.465 311.328 400.508 310.479 399.196C309.63 400.508 308.04 401.465 305.802 401.805L305.014 400.23C308.056 399.798 309.476 398.254 309.476 396.71V396.355H311.498ZM315.002 391.184H316.886V392.851H315.002V397.004H312.965V387.618H315.002V391.184ZM326.873 393.607L325.885 395.182C324.279 394.719 323.183 393.746 322.535 392.527C321.886 393.854 320.744 394.92 319.077 395.429L318.058 393.824C320.312 393.16 321.346 391.616 321.454 390.011H318.614V388.405H326.348V390.011H323.554C323.662 391.508 324.711 392.975 326.873 393.607ZM327.799 400.06V398.81H322.396V400.06H327.799ZM327.799 397.251V395.954H329.821V401.681H320.373V395.954H322.396V397.251H327.799ZM327.768 387.649H329.821V395.352H327.768V387.649Z" fill="#D4D4D8"/>
<path d="M279.75 323.17C280.8 323.17 281.526 322.043 281.526 319.928C281.526 317.844 280.8 316.702 279.75 316.702C278.685 316.702 277.975 317.844 277.975 319.928C277.975 322.043 278.685 323.17 279.75 323.17ZM279.75 314.865C281.896 314.865 283.486 316.81 283.486 319.928C283.486 323.062 281.896 325.023 279.75 325.023C277.589 325.023 276.014 323.062 276.014 319.928C276.014 316.81 277.589 314.865 279.75 314.865ZM289.028 318.863H287.068V321.349H289.028V323.016H287.068V328.095H285.03V313.877H287.068V317.196H289.028V318.863ZM294.554 317.921V318.153C294.554 320.299 295.279 322.475 297.286 323.541L296.205 325.054C294.939 324.39 294.121 323.263 293.612 321.92C293.133 323.402 292.3 324.652 291.018 325.378L289.876 323.849C291.898 322.676 292.624 320.345 292.624 318.153V317.921H290.355V316.27H292.624V314.34H294.554V316.27H296.807V317.921H294.554ZM300.512 313.861H302.442V328.079H300.512V320.978H299.355V327.446H297.456V314.093H299.355V319.311H300.512V313.861Z" fill="#D4D4D8"/>
<path d="M304.131 321.62C304.131 322.392 304.666 322.855 305.377 322.855C306.076 322.855 306.622 322.392 306.622 321.62C306.622 320.848 306.076 320.385 305.377 320.385C304.666 320.385 304.131 320.848 304.131 321.62ZM307.939 321.62C307.939 323.009 306.817 324.028 305.377 324.028C303.925 324.028 302.804 323.009 302.804 321.62C302.804 320.22 303.925 319.211 305.377 319.211C306.817 319.211 307.939 320.22 307.939 321.62ZM305.438 324.79V326.838H310.533V327.918H304.08V324.79H305.438ZM310.193 321.321H311.449V322.433H310.193V325.5H308.835V318.604H310.193V321.321ZM313.105 323.297L312.611 322.237C314.546 322 315.554 321.074 315.688 320.169H312.961V319.088H319.99V320.169H317.304C317.437 321.074 318.436 322 320.36 322.237L319.877 323.297C318.22 323.071 317.057 322.361 316.491 321.393C315.925 322.361 314.762 323.071 313.105 323.297ZM320.772 323.843V324.923H317.139V328.103H315.781V324.923H312.209V323.843H320.772Z" fill="#D4D4D8"/>
<path d="M293.41 333.837V334.496C293.41 337.233 294.913 340.321 298.021 341.659L296.58 343.738C294.439 342.853 292.937 341.041 292.093 338.88C291.249 341.165 289.726 343.1 287.565 344.067L286.103 341.988C289.211 340.588 290.693 337.377 290.693 334.496V333.837H286.741V331.676H290.693V329.041H293.41V331.676H297.28V333.837H293.41ZM299.029 328.588H301.746V347.546H299.029V328.588ZM306.685 340.341L305.635 338.18C309.813 337.522 312.057 334.949 312.078 332.335H306.376V330.194H320.661V332.335H314.959C314.98 334.949 317.223 337.46 321.505 338.098L320.475 340.239C317.141 339.662 314.733 338.036 313.539 335.834C312.345 338.077 309.978 339.745 306.685 340.341ZM304.956 343.079H322.122V345.281H304.956V343.079Z" fill="#F0516D"/>
<path d="M67.3377 240.206V242.223H66.0718V237.016H67.3377V239.115H68.0992V236.83H69.3857V243.077H68.0992V240.206H67.3377ZM65.5984 240.69L65.7116 241.77C64.631 241.986 63.7047 242.028 62.2845 242.028H61.6361V237.592H65.3411V238.673H62.9637V240.937C63.9723 240.916 64.7442 240.854 65.5984 240.69ZM66.8025 242.614V242.871C66.8025 243.88 67.7699 244.95 69.8179 245.239L69.2622 246.278C67.7699 246.052 66.6893 245.403 66.1233 244.518C65.5469 245.403 64.4663 246.052 62.9637 246.278L62.4183 245.239C64.4663 244.95 65.444 243.88 65.444 242.871V242.614H66.8025ZM73.1002 244.559V245.197H78.565V246.247H71.7417V243.561H76.9698V242.944H71.7314V241.894H78.3283V244.559H73.1002ZM78.1739 240.175H79.3575V241.245H70.7743V240.175H76.8154C76.9698 239.413 77.0007 238.817 77.011 238.292H71.8343V237.211H78.3489V237.859C78.3489 238.467 78.3489 239.239 78.1739 240.175ZM88.7072 239.98V239.125H85.0125V239.98H88.7072ZM90.0554 237.139V241.04H83.6643V237.139H85.0125V238.106H88.7072V237.139H90.0554ZM84.9199 243.551V245.074H90.2098V246.154H83.5614V243.551H84.9199ZM82.5631 241.698H91.1566V242.769H87.6575V244.261H86.299V242.769H82.5631V241.698ZM97.7013 241.132L96.9911 242.182C95.9826 241.832 95.3033 241.163 94.9019 240.329C94.4903 241.245 93.7596 241.976 92.6892 242.347L91.9791 241.276C93.5537 240.762 94.2021 239.506 94.2021 238.22V237.324H95.5812V238.302C95.5812 239.486 96.209 240.638 97.7013 241.132ZM93.5023 243.983V242.913H99.9654V246.329H98.6069V243.983H93.5023ZM98.6069 236.841H99.9654V242.48H98.6069V239.712H96.8779V238.611H98.6069V236.841Z" fill="#3F3F46"/>
</g>
<defs>
<filter id="filter0_d_13428_32741" x="0" y="0.900391" width="580" height="493.389" filterUnits="userSpaceOnUse" color-interpolation-filters="sRGB">
<feFlood flood-opacity="0" result="BackgroundImageFix"/>
<feColorMatrix in="SourceAlpha" type="matrix" values="0 0 0 0 0 0 0 0 0 0 0 0 0 0 0 0 0 0 127 0" result="hardAlpha"/>
<feOffset dx="-8" dy="8"/>
<feGaussianBlur stdDeviation="15"/>
<feComposite in2="hardAlpha" operator="out"/>
<feColorMatrix type="matrix" values="0 0 0 0 0 0 0 0 0 0 0 0 0 0 0 0 0 0 0.07 0"/>
<feBlend mode="normal" in2="BackgroundImageFix" result="effect1_dropShadow_13428_32741"/>
<feBlend mode="normal" in="SourceGraphic" in2="effect1_dropShadow_13428_32741" result="shape"/>
</filter>
</defs>
</svg>
