<svg width="329" height="187" viewBox="0 0 329 187" fill="none" xmlns="http://www.w3.org/2000/svg">
<rect x="0.384766" y="17.0332" width="72.9962" height="72.9962" rx="36.4981" fill="#27272A"/>
<path d="M22.8467 54.5195V55.9141H18.0068V60.0977H16.2842V55.9141H11.499V54.5195H22.8467ZM12.0596 52.4277C14.5752 52.1201 15.9697 50.9033 16.1543 49.6797H12.5244V48.3125H21.835V49.6797H18.2051C18.3828 50.9033 19.7568 52.1201 22.3135 52.4277L21.6846 53.7949C19.4971 53.501 17.9316 52.5713 17.1797 51.293C16.4209 52.5713 14.8691 53.501 12.7021 53.7949L12.0596 52.4277ZM34.3584 47.6562V60.0977H32.7041V47.6562H34.3584ZM23.3389 56.4609C25.1709 55.333 25.8545 53.1045 25.8545 50.9922V50.3223H23.8174V48.9277H29.4229V50.3223H27.5361V50.9922C27.5293 53.0566 28.1787 55.1484 29.9971 56.1875L28.9717 57.4727C27.8574 56.8164 27.1328 55.709 26.709 54.3691C26.2852 55.8184 25.5332 57.0488 24.3916 57.7461L23.3389 56.4609ZM28.5342 53.3301V51.9219H30.1748V47.8613H31.8154V59.5234H30.1748V53.3301H28.5342ZM43.5869 49.7891C43.5869 51.3955 44.4482 52.9951 46.4307 53.6582L45.4873 55.0254C44.168 54.54 43.2588 53.624 42.7324 52.4688C42.1992 53.7744 41.2285 54.793 39.7861 55.3125L38.8428 53.9453C40.9209 53.2617 41.8164 51.5596 41.8232 49.7754V48.4219H43.5869V49.7891ZM41.126 59.8789V55.8867H42.8896V58.4844H49.6709V59.8789H41.126ZM45.3369 51.7168V50.3086H47.6748V47.6699H49.4111V56.8574H47.6748V51.7168H45.3369ZM61.5107 47.6562V55.0391H59.7744V52.0996H57.833V50.6914H59.7744V47.6562H61.5107ZM50.9424 53.6719C52.9795 52.9883 53.9092 51.3613 53.9502 49.8027H51.4482V48.4082H58.2021V49.8027H55.7275C55.7617 51.252 56.6504 52.7148 58.585 53.3574L57.7236 54.7246C56.3564 54.2803 55.4062 53.3779 54.8662 52.2637C54.3193 53.5283 53.3213 54.5469 51.8447 55.0527L50.9424 53.6719ZM52.9795 57.7188C52.9795 56.208 54.6064 55.3193 57.2588 55.3125C59.918 55.3193 61.5449 56.208 61.5518 57.7188C61.5449 59.2295 59.918 60.1113 57.2588 60.1113C54.6064 60.1113 52.9795 59.2295 52.9795 57.7188ZM54.7158 57.7188C54.7158 58.4297 55.6113 58.7852 57.2588 58.7852C58.9131 58.7852 59.8086 58.4297 59.8154 57.7188C59.8086 57.001 58.9131 56.6455 57.2588 56.6523C55.6113 56.6455 54.7158 57.001 54.7158 57.7188Z" fill="white"/>
<rect x="36.8828" width="50.3321" height="22.166" rx="11.083" transform="rotate(15 36.8828 0)" fill="#F0516D"/>
<path d="M49.6299 13.2679C49.2751 14.573 49.5688 16.2693 50.8033 17.3028L49.8808 18.0666C49.0409 17.3715 48.5968 16.3122 48.4856 15.1804C47.8002 16.21 46.835 16.9826 45.7194 17.1841L45.2767 16.0443C46.8839 15.7623 48.0327 14.3615 48.4225 12.9443L48.5641 12.4161L46.7435 11.9283L47.0064 10.9473L51.7605 12.2211L51.4977 13.2022L49.7715 12.7396L49.6299 13.2679ZM50.3526 20.1544L52.6527 11.5705L53.8601 11.894L52.9831 15.1672L54.2471 15.5059L53.9766 16.5152L52.7126 16.1765L51.5601 20.4779L50.3526 20.1544ZM62.1967 18.4752L61.944 19.4184L54.0958 17.3155L54.3486 16.3723L57.6878 17.267L57.8849 16.5312L55.4984 15.8918L56.287 12.9487L62.2392 14.5436L61.9889 15.4774L57.2348 14.2036L56.9492 15.2695L61.7505 16.556L61.4977 17.4993L59.0641 16.8472L58.8669 17.5829L62.1967 18.4752ZM54.451 19.5743C54.724 18.5555 56.0076 18.2929 57.8847 18.7958C59.7477 19.295 60.7139 20.1605 60.4503 21.1818C60.1717 22.1839 58.901 22.455 57.038 21.9559C55.1609 21.4529 54.1819 20.5789 54.451 19.5743ZM55.6773 19.9029C55.5525 20.3497 56.0947 20.7224 57.2832 21.0409C58.4482 21.353 59.1182 21.3051 59.2429 20.8583C59.357 20.4137 58.8045 20.023 57.6396 19.7108C56.451 19.3924 55.7914 19.4583 55.6773 19.9029ZM70.6506 16.393L69.7154 19.8832L70.8379 20.184L70.57 21.1838L69.4475 20.8831L68.3506 24.9769L67.1337 24.6509L69.4338 16.067L70.6506 16.393ZM62.0292 20.6848C62.6565 20.8529 63.3876 21.0488 64.1567 21.2347L64.3538 20.4989C63.4916 20.0758 63.0528 19.3364 63.2711 18.5406C63.5229 17.5819 64.5664 17.1589 65.8162 17.4938C67.0425 17.8223 67.7441 18.713 67.497 19.6729C67.274 20.4675 66.5136 20.8906 65.5613 20.8224L65.3755 21.5157C66.0648 21.66 66.7638 21.7866 67.4245 21.8676L67.2649 22.7651C65.3487 22.6156 63.3734 22.1015 61.9267 21.7088L62.0292 20.6848ZM63.3415 16.4667L63.5942 15.5234L65.5468 16.0466L65.7895 15.141L66.9969 15.4646L66.7542 16.3701L68.688 16.8883L68.4352 17.8315L63.3415 16.4667ZM64.4124 18.8464C64.2864 19.298 64.6074 19.6468 65.197 19.8048C65.7677 19.9577 66.2154 19.8148 66.3367 19.3621C66.4555 18.9187 66.1405 18.5664 65.5711 18.4087C64.9802 18.2555 64.5265 18.4018 64.4124 18.8464Z" fill="white"/>
<rect x="122.17" y="17.0332" width="72.9962" height="72.9962" rx="36.4981" fill="#27272A"/>
<path d="M143.771 47.6562V55.0391H142.034V52.0996H140.093V50.6914H142.034V47.6562H143.771ZM133.202 53.6719C135.239 52.9883 136.169 51.3613 136.21 49.8027H133.708V48.4082H140.462V49.8027H137.987C138.021 51.252 138.91 52.7148 140.845 53.3574L139.983 54.7246C138.616 54.2803 137.666 53.3779 137.126 52.2637C136.579 53.5283 135.581 54.5469 134.104 55.0527L133.202 53.6719ZM135.239 57.7188C135.239 56.208 136.866 55.3193 139.519 55.3125C142.178 55.3193 143.805 56.208 143.812 57.7188C143.805 59.2295 142.178 60.1113 139.519 60.1113C136.866 60.1113 135.239 59.2295 135.239 57.7188ZM136.976 57.7188C136.976 58.4297 137.871 58.7852 139.519 58.7852C141.173 58.7852 142.068 58.4297 142.075 57.7188C142.068 57.001 141.173 56.6455 139.519 56.6523C137.871 56.6455 136.976 57.001 136.976 57.7188ZM156.772 57.2266V58.6484H145.384V57.2266H150.183V54.9297H146.587V48.4492H148.337V50.377H153.765V48.4492H155.501V54.9297H151.919V57.2266H156.772ZM148.337 53.5352H153.765V51.7715H148.337V53.5352ZM167.054 48.3535V49.7617H162.938V50.7324H166.794V52.1133H162.938V53.125C164.955 53.125 166.268 53.0635 167.724 52.7832L167.915 54.1641C166.24 54.4512 164.729 54.5059 162.214 54.4922H161.175V48.3535H167.054ZM162.446 59.9609V55.4766H170.581V59.9609H162.446ZM164.169 58.5664H168.858V56.8301H164.169V58.5664ZM168.831 54.9297V47.6562H170.581V50.5684H172.263V52.0039H170.581V54.9297H168.831ZM176.788 49.8164C176.788 51.2041 177.472 52.5508 179.126 53.207L178.183 54.5469C177.13 54.123 176.398 53.3643 175.954 52.4277C175.503 53.4941 174.717 54.3896 173.562 54.875L172.632 53.5215C174.389 52.7695 175.093 51.2246 175.093 49.8164V48.3809H176.788V49.8164ZM174.901 57.1445V55.75H183.501V60.0977H181.765V57.1445H174.901ZM179.181 55.1348V47.8613H180.808V50.6914H181.847V47.6699H183.501V55.2031H181.847V52.1133H180.808V55.1348H179.181Z" fill="white"/>
<rect x="158.668" width="50.3321" height="22.166" rx="11.083" transform="rotate(15 158.668 0)" fill="#F0516D"/>
<path d="M171.415 13.2679C171.06 14.573 171.354 16.2693 172.588 17.3028L171.666 18.0666C170.826 17.3715 170.382 16.3122 170.271 15.1804C169.585 16.21 168.62 16.9826 167.505 17.1841L167.062 16.0443C168.669 15.7623 169.818 14.3615 170.208 12.9443L170.349 12.4161L168.529 11.9283L168.792 10.9473L173.546 12.2211L173.283 13.2022L171.557 12.7396L171.415 13.2679ZM172.138 20.1544L174.438 11.5705L175.645 11.894L174.768 15.1672L176.032 15.5059L175.762 16.5152L174.498 16.1765L173.345 20.4779L172.138 20.1544ZM183.982 18.4752L183.729 19.4184L175.881 17.3155L176.134 16.3723L179.473 17.267L179.67 16.5312L177.284 15.8918L178.072 12.9487L184.024 14.5436L183.774 15.4774L179.02 14.2036L178.734 15.2695L183.536 16.556L183.283 17.4993L180.849 16.8472L180.652 17.5829L183.982 18.4752ZM176.236 19.5743C176.509 18.5555 177.793 18.2929 179.67 18.7958C181.533 19.295 182.499 20.1605 182.235 21.1818C181.957 22.1839 180.686 22.455 178.823 21.9559C176.946 21.4529 175.967 20.5789 176.236 19.5743ZM177.462 19.9029C177.338 20.3497 177.88 20.7224 179.068 21.0409C180.233 21.353 180.903 21.3051 181.028 20.8583C181.142 20.4137 180.59 20.023 179.425 19.7108C178.236 19.3924 177.577 19.4583 177.462 19.9029ZM192.436 16.393L191.501 19.8832L192.623 20.184L192.355 21.1838L191.233 20.8831L190.136 24.9769L188.919 24.6509L191.219 16.067L192.436 16.393ZM183.814 20.6848C184.442 20.8529 185.173 21.0488 185.942 21.2347L186.139 20.4989C185.277 20.0758 184.838 19.3364 185.056 18.5406C185.308 17.5819 186.352 17.1589 187.601 17.4938C188.828 17.8223 189.529 18.713 189.282 19.6729C189.059 20.4675 188.299 20.8906 187.346 20.8224L187.161 21.5157C187.85 21.66 188.549 21.7866 189.21 21.8676L189.05 22.7651C187.134 22.6156 185.159 22.1015 183.712 21.7088L183.814 20.6848ZM185.127 16.4667L185.379 15.5234L187.332 16.0466L187.575 15.141L188.782 15.4646L188.539 16.3701L190.473 16.8883L190.22 17.8315L185.127 16.4667ZM186.198 18.8464C186.072 19.298 186.393 19.6468 186.982 19.8048C187.553 19.9577 188.001 19.8148 188.122 19.3621C188.241 18.9187 187.926 18.5664 187.356 18.4087C186.765 18.2555 186.312 18.4018 186.198 18.8464Z" fill="white"/>
<rect x="243.705" y="17.0332" width="72.9962" height="72.9962" rx="36.4981" fill="#27272A"/>
<path d="M280.79 54.041V55.4082H276.101V57.418H274.378V55.4082H269.401V54.041H280.79ZM270.741 59.8789V56.4336H272.464V58.4844H279.532V59.8789H270.741ZM270.864 53.166V48.0527H272.587V49.3516H277.577V48.0527H279.313V53.166H270.864ZM272.587 51.7852H277.577V50.6504H272.587V51.7852ZM286.177 49.5977C286.17 51.1494 287.038 52.6533 289.007 53.2754L288.077 54.6562C286.744 54.2051 285.828 53.3096 285.302 52.1816C284.755 53.4121 283.777 54.376 282.376 54.875L281.433 53.4805C283.518 52.8174 284.406 51.1904 284.413 49.4883V48.2988H286.177V49.5977ZM283.456 57.0078V55.627H292.001V60.0977H290.265V57.0078H283.456ZM287.927 51.4023V49.9668H290.265V47.6562H292.001V55.0664H290.265V51.4023H287.927Z" fill="white"/>
<rect x="280.203" width="50.3321" height="22.166" rx="11.083" transform="rotate(15 280.203 0)" fill="#F0516D"/>
<path d="M292.95 13.2679C292.595 14.573 292.889 16.2693 294.124 17.3028L293.201 18.0666C292.361 17.3715 291.917 16.3122 291.806 15.1804C291.121 16.21 290.155 16.9826 289.04 17.1841L288.597 16.0443C290.204 15.7623 291.353 14.3615 291.743 12.9443L291.884 12.4161L290.064 11.9283L290.327 10.9473L295.081 12.2211L294.818 13.2022L293.092 12.7396L292.95 13.2679ZM293.673 20.1544L295.973 11.5705L297.18 11.894L296.303 15.1672L297.567 15.5059L297.297 16.5152L296.033 16.1765L294.88 20.4779L293.673 20.1544ZM305.517 18.4752L305.264 19.4184L297.416 17.3155L297.669 16.3723L301.008 17.267L301.205 16.5312L298.819 15.8918L299.607 12.9487L305.559 14.5436L305.309 15.4774L300.555 14.2036L300.269 15.2695L305.071 16.556L304.818 17.4993L302.384 16.8472L302.187 17.5829L305.517 18.4752ZM297.771 19.5743C298.044 18.5555 299.328 18.2929 301.205 18.7958C303.068 19.295 304.034 20.1605 303.771 21.1818C303.492 22.1839 302.221 22.455 300.358 21.9559C298.481 21.4529 297.502 20.5789 297.771 19.5743ZM298.998 19.9029C298.873 20.3497 299.415 20.7224 300.604 21.0409C301.768 21.353 302.438 21.3051 302.563 20.8583C302.677 20.4137 302.125 20.023 300.96 19.7108C299.771 19.3924 299.112 19.4583 298.998 19.9029ZM313.971 16.393L313.036 19.8832L314.158 20.184L313.89 21.1838L312.768 20.8831L311.671 24.9769L310.454 24.6509L312.754 16.067L313.971 16.393ZM305.35 20.6848C305.977 20.8529 306.708 21.0488 307.477 21.2347L307.674 20.4989C306.812 20.0758 306.373 19.3364 306.591 18.5406C306.843 17.5819 307.887 17.1589 309.137 17.4938C310.363 17.8223 311.064 18.713 310.817 19.6729C310.594 20.4675 309.834 20.8906 308.882 20.8224L308.696 21.5157C309.385 21.66 310.084 21.7866 310.745 21.8676L310.585 22.7651C308.669 22.6156 306.694 22.1015 305.247 21.7088L305.35 20.6848ZM306.662 16.4667L306.915 15.5234L308.867 16.0466L309.11 15.141L310.317 15.4646L310.075 16.3701L312.008 16.8883L311.756 17.8315L306.662 16.4667ZM307.733 18.8464C307.607 19.298 307.928 19.6468 308.517 19.8048C309.088 19.9577 309.536 19.8148 309.657 19.3621C309.776 18.9187 309.461 18.5664 308.891 18.4087C308.301 18.2555 307.847 18.4018 307.733 18.8464Z" fill="white"/>
<path d="M97.8379 62.1318L106.441 53.5291L97.8379 44.9265" stroke="#F0516D" stroke-width="0.912453"/>
<path d="M219.373 62.1318L227.976 53.5291L219.373 44.9265" stroke="#F0516D" stroke-width="0.912453"/>
<rect x="85.5479" y="113.141" width="72.9962" height="72.9962" rx="36.4981" fill="#27272A"/>
<path d="M105.149 137.281C105.143 139.106 106.763 141.055 109.579 141.533L108.813 142.982C106.64 142.552 105.033 141.328 104.227 139.735C103.406 141.314 101.793 142.545 99.6396 142.982L98.8877 141.533C101.656 141.041 103.276 139.086 103.29 137.281V136.379H105.149V137.281ZM98.6006 146.551V145.115H109.989V146.551H98.6006ZM120.886 136.734V138.184C120.879 139.995 120.879 141.718 120.312 144.418L118.575 144.254C118.821 143.222 118.965 142.306 119.054 141.465L111.835 141.82L111.616 140.426L119.143 140.152C119.17 139.469 119.177 138.826 119.177 138.184V138.129H111.999V136.734H120.886ZM110.7 146.592V145.17H122.048V146.592H110.7ZM133.218 135.654V142.586H131.468V135.654H133.218ZM123.442 137.596V136.201H129.212V139.906H125.165V140.945C127.243 140.932 128.713 140.891 130.388 140.604L130.606 141.998C128.699 142.319 127.018 142.367 124.55 142.367H123.456V138.58H127.476V137.596H123.442ZM124.892 147.945V143.105H126.628V144.172H131.481V143.105H133.218V147.945H124.892ZM126.628 146.551H131.481V145.525H126.628V146.551ZM145.044 142.066V143.447H136.239V136.557H144.948V137.965H138.017V139.277H144.661V140.645H138.017V142.066H145.044ZM134.899 146.633V145.211H146.288V146.633H134.899ZM117.769 153.365V154.76H115.294C115.301 156.216 116.176 157.713 118.192 158.355L117.304 159.709C115.923 159.258 114.973 158.369 114.433 157.262C113.879 158.472 112.881 159.442 111.438 159.914L110.509 158.574C112.566 157.911 113.51 156.312 113.53 154.76H110.987V153.365H117.769ZM112.19 162.061V160.68H120.571V165.082H118.821V162.061H112.19ZM118.821 160.146V152.641H120.571V155.662H122.253V157.111H120.571V160.146H118.821ZM127.503 154.336C127.496 155.997 128.351 157.535 130.347 158.15L129.431 159.518C128.091 159.053 127.182 158.198 126.655 157.077C126.108 158.376 125.104 159.395 123.606 159.9L122.69 158.506C124.816 157.822 125.732 156.154 125.739 154.418V153.283H127.503V154.336ZM124.755 162.676C124.755 161.145 126.382 160.249 129.034 160.256C131.693 160.249 133.32 161.145 133.327 162.676C133.32 164.214 131.693 165.089 129.034 165.082C126.382 165.089 124.755 164.214 124.755 162.676ZM126.491 162.676C126.491 163.366 127.387 163.729 129.034 163.729C130.688 163.729 131.584 163.366 131.591 162.676C131.584 161.965 130.688 161.609 129.034 161.609C127.387 161.609 126.491 161.965 126.491 162.676ZM129.212 156.346V154.924H131.55V152.641H133.286V159.928H131.55V156.346H129.212Z" fill="white"/>
<rect x="122.046" y="96.1094" width="50.3321" height="22.166" rx="11.083" transform="rotate(15 122.046 96.1094)" fill="#F0516D"/>
<path d="M134.793 109.377C134.438 110.682 134.732 112.379 135.966 113.412L135.044 114.176C134.204 113.481 133.76 112.422 133.649 111.29C132.963 112.319 131.998 113.092 130.882 113.293L130.44 112.154C132.047 111.872 133.196 110.471 133.586 109.054L133.727 108.525L131.907 108.038L132.169 107.057L136.924 108.331L136.661 109.312L134.935 108.849L134.793 109.377ZM135.516 116.264L137.816 107.68L139.023 108.003L138.146 111.277L139.41 111.615L139.14 112.625L137.876 112.286L136.723 116.587L135.516 116.264ZM147.36 114.585L147.107 115.528L139.259 113.425L139.512 112.482L142.851 113.376L143.048 112.641L140.662 112.001L141.45 109.058L147.402 110.653L147.152 111.587L142.398 110.313L142.112 111.379L146.914 112.665L146.661 113.609L144.227 112.957L144.03 113.692L147.36 114.585ZM139.614 115.684C139.887 114.665 141.171 114.402 143.048 114.905C144.911 115.404 145.877 116.27 145.613 117.291C145.335 118.293 144.064 118.564 142.201 118.065C140.324 117.562 139.345 116.688 139.614 115.684ZM140.84 116.012C140.716 116.459 141.258 116.832 142.446 117.15C143.611 117.462 144.281 117.414 144.406 116.968C144.52 116.523 143.968 116.132 142.803 115.82C141.614 115.502 140.954 115.568 140.84 116.012ZM155.814 112.502L154.879 115.993L156.001 116.293L155.733 117.293L154.611 116.992L153.514 121.086L152.297 120.76L154.597 112.176L155.814 112.502ZM147.192 116.794C147.82 116.962 148.551 117.158 149.32 117.344L149.517 116.608C148.655 116.185 148.216 115.446 148.434 114.65C148.686 113.691 149.729 113.268 150.979 113.603C152.206 113.932 152.907 114.822 152.66 115.782C152.437 116.577 151.677 117 150.724 116.932L150.539 117.625C151.228 117.769 151.927 117.896 152.588 117.977L152.428 118.874C150.512 118.725 148.537 118.211 147.09 117.818L147.192 116.794ZM148.505 112.576L148.757 111.633L150.71 112.156L150.953 111.25L152.16 111.574L151.917 112.479L153.851 112.998L153.598 113.941L148.505 112.576ZM149.576 114.956C149.449 115.407 149.771 115.756 150.36 115.914C150.931 116.067 151.379 115.924 151.5 115.471C151.619 115.028 151.304 114.676 150.734 114.518C150.143 114.365 149.69 114.511 149.576 114.956Z" fill="white"/>
<rect x="207.207" y="113.141" width="72.9962" height="72.9962" rx="36.4981" fill="#27272A"/>
<path d="M221.794 144.434C222.785 144.427 223.653 144.796 224.248 145.404H227.071V143.764H228.808V151.051H227.071V149.561H224.234C223.64 150.162 222.778 150.524 221.794 150.518C219.907 150.524 218.472 149.239 218.485 147.482C218.472 145.705 219.907 144.427 221.794 144.434ZM220.14 147.482C220.133 148.439 220.823 149.048 221.794 149.041C222.73 149.048 223.414 148.439 223.421 147.482C223.414 146.491 222.73 145.917 221.794 145.924C220.823 145.917 220.133 146.491 220.14 147.482ZM220.276 153.758C220.276 152.213 221.924 151.304 224.556 151.311C227.188 151.304 228.842 152.213 228.849 153.758C228.842 155.303 227.188 156.212 224.556 156.205C221.924 156.212 220.276 155.303 220.276 153.758ZM221.985 153.758C221.985 154.482 222.908 154.852 224.556 154.852C226.237 154.852 227.133 154.482 227.14 153.758C227.133 153.013 226.237 152.644 224.556 152.637C222.908 152.644 221.985 153.013 221.985 153.758ZM224.993 146.785C225.048 147.004 225.075 147.243 225.075 147.482C225.075 147.722 225.048 147.947 225 148.166H227.071V146.785H224.993ZM234.96 145.719C234.953 147.229 235.835 148.679 237.804 149.287L236.874 150.641C235.555 150.203 234.632 149.355 234.099 148.269C233.559 149.52 232.595 150.504 231.173 150.982L230.229 149.615C232.308 148.925 233.196 147.271 233.21 145.555V144.42H234.96V145.719ZM231.952 153.799C231.945 152.288 233.593 151.393 236.218 151.393C238.795 151.393 240.408 152.288 240.415 153.799C240.408 155.323 238.795 156.212 236.218 156.205C233.593 156.212 231.945 155.323 231.952 153.799ZM233.702 153.799C233.688 154.503 234.584 154.838 236.218 154.838C237.831 154.838 238.692 154.503 238.692 153.799C238.692 153.122 237.831 152.76 236.218 152.76C234.584 152.76 233.688 153.122 233.702 153.799ZM238.542 151.146V143.764H240.292V146.676H241.974V148.125H240.292V151.146H238.542ZM256.507 143.764V156.205H254.853V143.764H256.507ZM245.487 152.568C247.319 151.44 248.003 149.212 248.003 147.1V146.43H245.966V145.035H251.571V146.43H249.685V147.1C249.678 149.164 250.327 151.256 252.146 152.295L251.12 153.58C250.006 152.924 249.281 151.816 248.857 150.477C248.434 151.926 247.682 153.156 246.54 153.854L245.487 152.568ZM250.683 149.438V148.029H252.323V143.969H253.964V155.631H252.323V149.438H250.683ZM264.915 144.488V145.883H262.44C262.447 147.339 263.322 148.836 265.339 149.479L264.45 150.832C263.069 150.381 262.119 149.492 261.579 148.385C261.025 149.595 260.027 150.565 258.585 151.037L257.655 149.697C259.713 149.034 260.656 147.435 260.677 145.883H258.134V144.488H264.915ZM259.337 153.184V151.803H267.718V156.205H265.968V153.184H259.337ZM265.968 151.27V143.764H267.718V146.785H269.399V148.234H267.718V151.27H265.968Z" fill="white"/>
<path d="M61.2148 158.243L69.8175 149.64L61.2148 141.038" stroke="#F0516D" stroke-width="0.912453"/>
<path d="M182.875 158.243L191.478 149.64L182.875 141.038" stroke="#F0516D" stroke-width="0.912453"/>
</svg>
