<svg width="40" height="40" viewBox="0 0 40 40" fill="none" xmlns="http://www.w3.org/2000/svg">
<path d="M30.7814 28.0507L31.4314 33.3173C31.5981 34.7007 30.1148 35.6673 28.9314 34.9507L21.9481 30.8007C21.1814 30.8007 20.4314 30.7507 19.6981 30.6507C20.9614 29.1862 21.659 27.318 21.6648 25.384C21.6648 20.6507 17.5648 16.8173 12.4981 16.8173C10.5648 16.8173 8.78145 17.3673 7.29811 18.334C7.24811 17.9173 7.23145 17.5007 7.23145 17.0673C7.23145 9.48398 13.8148 3.33398 21.9481 3.33398C30.0814 3.33398 36.6648 9.48398 36.6648 17.0673C36.6648 21.5673 34.3481 25.5507 30.7814 28.0507Z" fill="#77DDDD"/>
<path d="M21.6683 25.3831C21.6683 27.3664 20.935 29.1997 19.7016 30.6497C18.0516 32.6497 15.435 33.9331 12.5016 33.9331L8.15163 36.5164C7.41829 36.9664 6.48496 36.3497 6.58496 35.4997L7.00163 32.2164C4.76829 30.6664 3.33496 28.1831 3.33496 25.3831C3.33496 22.4497 4.90163 19.8664 7.30163 18.3331C8.78496 17.3664 10.5683 16.8164 12.5016 16.8164C17.5683 16.8164 21.6683 20.6497 21.6683 25.3831Z" fill="#F7B4C0"/>
</svg>
