<svg width="24" height="24" viewBox="0 0 24 24" fill="none" xmlns="http://www.w3.org/2000/svg">
<path d="M12 22C17.5228 22 22 17.5228 22 12C22 6.47715 17.5228 2 12 2C6.47715 2 2 6.47715 2 12C2 17.5228 6.47715 22 12 22Z" fill="url(#paint0_linear_6616_17797)"/>
<path d="M9.14286 10.2857C9.77404 10.2857 10.2857 9.77404 10.2857 9.14286C10.2857 8.51167 9.77404 8 9.14286 8C8.51167 8 8 8.51167 8 9.14286C8 9.77404 8.51167 10.2857 9.14286 10.2857Z" fill="black"/>
<path d="M14.8567 10.2857C15.4879 10.2857 15.9996 9.77404 15.9996 9.14286C15.9996 8.51167 15.4879 8 14.8567 8C14.2255 8 13.7139 8.51167 13.7139 9.14286C13.7139 9.77404 14.2255 10.2857 14.8567 10.2857Z" fill="black"/>
<path d="M16.5713 17.7144C15.8098 15.4286 14.286 14.2858 11.9999 14.2858C9.7137 14.2858 8.18989 15.4286 7.42843 17.7144" stroke="#F07288" stroke-linecap="round" stroke-linejoin="round"/>
<defs>
<linearGradient id="paint0_linear_6616_17797" x1="12" y1="2" x2="12" y2="10.5" gradientUnits="userSpaceOnUse">
<stop stop-color="#9BD9A9"/>
<stop offset="1" stop-color="#FFCE7B"/>
</linearGradient>
</defs>
</svg>
