<svg width="24" height="24" viewBox="0 0 24 24" fill="none" xmlns="http://www.w3.org/2000/svg">
<path d="M12 22C17.5228 22 22 17.5228 22 12C22 6.47715 17.5228 2 12 2C6.47715 2 2 6.47715 2 12C2 17.5228 6.47715 22 12 22Z" fill="url(#paint0_linear_6616_17798)"/>
<path d="M9.14286 10.2857C9.77404 10.2857 10.2857 9.77404 10.2857 9.14286C10.2857 8.51167 9.77404 8 9.14286 8C8.51167 8 8 8.51167 8 9.14286C8 9.77404 8.51167 10.2857 9.14286 10.2857Z" fill="black"/>
<path d="M14.8567 10.2857C15.4879 10.2857 15.9996 9.77404 15.9996 9.14286C15.9996 8.51167 15.4879 8 14.8567 8C14.2255 8 13.7139 8.51167 13.7139 9.14286C13.7139 9.77404 14.2255 10.2857 14.8567 10.2857Z" fill="black"/>
<path fill-rule="evenodd" clip-rule="evenodd" d="M7.42871 17.7144C8.19017 15.4286 9.71398 14.2858 12.0001 14.2858C14.2863 14.2858 15.8101 15.4286 16.5716 17.7144H7.42871Z" fill="#F07288" stroke="#F07288" stroke-linecap="round" stroke-linejoin="round"/>
<defs>
<linearGradient id="paint0_linear_6616_17798" x1="12" y1="2" x2="12" y2="10.5" gradientUnits="userSpaceOnUse">
<stop stop-color="#F07288"/>
<stop offset="1" stop-color="#F7B4C0"/>
</linearGradient>
</defs>
</svg>
