<svg width="24" height="24" viewBox="0 0 24 24" fill="none" xmlns="http://www.w3.org/2000/svg">
<path d="M12 22C6.47715 22 2 17.5228 2 12C2 6.47715 6.47715 2 12 2C17.5228 2 22 6.47715 22 12C22 17.5228 17.5228 22 12 22Z" stroke="black" stroke-opacity="0.95" stroke-linecap="round" stroke-linejoin="round"/>
<path fill-rule="evenodd" clip-rule="evenodd" d="M4.99414 19.1353C6.79843 20.9071 9.27179 22 12.0004 22C14.729 22 17.2023 20.9071 19.0066 19.1353C17.6437 16.6697 15.017 15 12.0004 15C8.98376 15 6.3571 16.6697 4.99414 19.1353Z" fill="#131313"/>
<path d="M11.8888 12.8889C13.2388 12.8889 14.3332 11.7945 14.3332 10.4444C14.3332 9.09442 13.2388 8 11.8888 8C10.5388 8 9.44434 9.09442 9.44434 10.4444C9.44434 11.7945 10.5388 12.8889 11.8888 12.8889Z" fill="black"/>
</svg>
