<svg width="24" height="24" viewBox="0 0 24 24" fill="none" xmlns="http://www.w3.org/2000/svg">
<path d="M18.0104 8.98994L15.0104 5.98994M3.50043 20.4999C4.33043 21.3299 5.67043 21.3299 6.50043 20.4999L19.5004 7.49994C20.3304 6.66994 20.3304 5.32994 19.5004 4.49994C18.6704 3.66994 17.3304 3.66994 16.5004 4.49994L3.50043 17.4999C2.67043 18.3299 2.67043 19.6699 3.50043 20.4999Z" stroke="#A1A1AA" stroke-width="1.5" stroke-linecap="round" stroke-linejoin="round"/>
<path d="M8.5 2.44L10 2L9.56 3.5L10 5L8.5 4.56L7 5L7.44 3.5L7 2L8.5 2.44ZM4.5 8.44L6 8L5.56 9.5L6 11L4.5 10.56L3 11L3.44 9.5L3 8L4.5 8.44ZM19.5 13.44L21 13L20.56 14.5L21 16L19.5 15.56L18 16L18.44 14.5L18 13L19.5 13.44Z" stroke="#A1A1AA" stroke-width="1.5" stroke-linecap="round" stroke-linejoin="round"/>
</svg>
