<svg width="26" height="27" viewBox="0 0 26 27" fill="none" xmlns="http://www.w3.org/2000/svg">
<g id="Group 483573">
<circle id="Ellipse 335" cx="13" cy="13.293" r="13" fill="#F4F4F5"/>
<path id="Vector" d="M19.4615 19.7545C19.1642 20.0519 18.682 20.0519 18.3846 19.7545L14.9231 16.293C14.5385 16.6007 14.0962 16.8443 13.5962 17.0237C13.0962 17.2032 12.5641 17.293 12 17.293C10.6026 17.293 9.41987 16.809 8.45192 15.841C7.48397 14.8731 7 13.6904 7 12.293C7 10.8955 7.48397 9.71284 8.45192 8.74489C9.41987 7.77694 10.6026 7.29297 12 7.29297C13.3974 7.29297 14.5801 7.77694 15.5481 8.74489C16.516 9.71284 17 10.8955 17 12.293C17 12.8571 16.9103 13.3891 16.7308 13.8891C16.5513 14.3891 16.3077 14.8314 16 15.216L19.4615 18.6776C19.7589 18.975 19.7589 19.4571 19.4615 19.7545ZM12 15.7545C12.9615 15.7545 13.7788 15.418 14.4519 14.7449C15.125 14.0718 15.4615 13.2545 15.4615 12.293C15.4615 11.3314 15.125 10.5141 14.4519 9.84105C13.7788 9.16797 12.9615 8.83143 12 8.83143C11.0385 8.83143 10.2212 9.16797 9.54808 9.84105C8.875 10.5141 8.53846 11.3314 8.53846 12.293C8.53846 13.2545 8.875 14.0718 9.54808 14.7449C10.2212 15.418 11.0385 15.7545 12 15.7545Z" fill="#D4D4D8"/>
</g>
</svg>
