<svg width="97" height="18" viewBox="0 0 97 18" fill="none" xmlns="http://www.w3.org/2000/svg">
<path d="M0.68 17.293V0.492968H8.624C10.48 0.492968 12.112 0.836968 13.52 1.52497C14.928 2.21297 16.024 3.18097 16.808 4.42897C17.608 5.67697 18.008 7.16497 18.008 8.89297C18.008 10.605 17.608 12.093 16.808 13.357C16.024 14.605 14.928 15.573 13.52 16.261C12.112 16.949 10.48 17.293 8.624 17.293H0.68ZM5.432 13.501H8.432C9.392 13.501 10.224 13.325 10.928 12.973C11.648 12.605 12.208 12.077 12.608 11.389C13.008 10.685 13.208 9.85297 13.208 8.89297C13.208 7.91697 13.008 7.08497 12.608 6.39697C12.208 5.70897 11.648 5.18897 10.928 4.83697C10.224 4.46897 9.392 4.28497 8.432 4.28497H5.432V13.501ZM28.9801 17.629C27.6361 17.629 26.3961 17.413 25.2601 16.981C24.1241 16.549 23.1321 15.941 22.2841 15.157C21.4521 14.357 20.8041 13.429 20.3401 12.373C19.8761 11.317 19.6441 10.157 19.6441 8.89297C19.6441 7.62897 19.8761 6.46897 20.3401 5.41297C20.8041 4.35697 21.4521 3.43697 22.2841 2.65297C23.1321 1.85297 24.1241 1.23697 25.2601 0.804968C26.3961 0.372968 27.6361 0.156968 28.9801 0.156968C30.3401 0.156968 31.5801 0.372968 32.7001 0.804968C33.8361 1.23697 34.8201 1.85297 35.6521 2.65297C36.4841 3.43697 37.1321 4.35697 37.5961 5.41297C38.0761 6.46897 38.3161 7.62897 38.3161 8.89297C38.3161 10.157 38.0761 11.325 37.5961 12.397C37.1321 13.453 36.4841 14.373 35.6521 15.157C34.8201 15.941 33.8361 16.549 32.7001 16.981C31.5801 17.413 30.3401 17.629 28.9801 17.629ZM28.9801 13.693C29.6201 13.693 30.2121 13.581 30.7561 13.357C31.3161 13.133 31.7961 12.813 32.1961 12.397C32.6121 11.965 32.9321 11.453 33.1561 10.861C33.3961 10.269 33.5161 9.61297 33.5161 8.89297C33.5161 8.15697 33.3961 7.50097 33.1561 6.92497C32.9321 6.33297 32.6121 5.82897 32.1961 5.41297C31.7961 4.98097 31.3161 4.65297 30.7561 4.42897C30.2121 4.20497 29.6201 4.09297 28.9801 4.09297C28.3401 4.09297 27.7401 4.20497 27.1801 4.42897C26.6361 4.65297 26.1561 4.98097 25.7401 5.41297C25.3401 5.82897 25.0201 6.33297 24.7801 6.92497C24.5561 7.50097 24.4441 8.15697 24.4441 8.89297C24.4441 9.61297 24.5561 10.269 24.7801 10.861C25.0201 11.453 25.3401 11.965 25.7401 12.397C26.1561 12.813 26.6361 13.133 27.1801 13.357C27.7401 13.581 28.3401 13.693 28.9801 13.693ZM44.1466 17.293V4.26097H38.9866V0.492968H54.0346V4.26097H48.8986V17.293H44.1466ZM67.037 0.492968H71.789V17.293H67.037V0.492968ZM60.557 17.293H55.805V0.492968H60.557V17.293ZM67.373 10.741H60.221V6.80497H67.373V10.741ZM75.1409 17.293V0.492968H79.8929V17.293H75.1409ZM89.1778 17.629C87.8018 17.629 86.4738 17.461 85.1938 17.125C83.9298 16.773 82.8978 16.325 82.0978 15.781L83.6578 12.277C84.4098 12.757 85.2738 13.157 86.2498 13.477C87.2418 13.781 88.2258 13.933 89.2018 13.933C89.8578 13.933 90.3858 13.877 90.7858 13.765C91.1858 13.637 91.4738 13.477 91.6498 13.285C91.8418 13.077 91.9378 12.837 91.9378 12.565C91.9378 12.181 91.7618 11.877 91.4098 11.653C91.0578 11.429 90.6018 11.245 90.0418 11.101C89.4818 10.957 88.8578 10.813 88.1698 10.669C87.4978 10.525 86.8178 10.341 86.1298 10.117C85.4578 9.89297 84.8418 9.60497 84.2818 9.25297C83.7218 8.88497 83.2658 8.41297 82.9138 7.83697C82.5618 7.24497 82.3857 6.50097 82.3857 5.60497C82.3857 4.59697 82.6578 3.68497 83.2018 2.86897C83.7618 2.05297 84.5938 1.39697 85.6978 0.900968C86.8018 0.404968 88.1778 0.156968 89.8258 0.156968C90.9298 0.156968 92.0098 0.284968 93.0658 0.540968C94.1378 0.780968 95.0898 1.14097 95.9218 1.62097L94.4578 5.14897C93.6578 4.71697 92.8658 4.39697 92.0818 4.18897C91.2978 3.96497 90.5378 3.85297 89.8018 3.85297C89.1458 3.85297 88.6178 3.92497 88.2178 4.06897C87.8178 4.19697 87.5298 4.37297 87.3538 4.59697C87.1778 4.82097 87.0898 5.07697 87.0898 5.36497C87.0898 5.73297 87.2578 6.02897 87.5938 6.25297C87.9458 6.46097 88.4018 6.63697 88.9618 6.78097C89.5378 6.90897 90.1618 7.04497 90.8338 7.18897C91.5218 7.33297 92.2018 7.51697 92.8738 7.74097C93.5618 7.94897 94.1858 8.23697 94.7458 8.60497C95.3058 8.95697 95.7538 9.42897 96.0898 10.021C96.4418 10.597 96.6178 11.325 96.6178 12.205C96.6178 13.181 96.3378 14.085 95.7778 14.917C95.2338 15.733 94.4098 16.389 93.3058 16.885C92.2178 17.381 90.8418 17.629 89.1778 17.629Z" fill="#18181B"/>
</svg>
