<svg width="17" height="17" viewBox="0 0 17 17" fill="none" xmlns="http://www.w3.org/2000/svg">
<path id="Vector" d="M16.1819 15.8581C15.8025 16.2278 15.1975 16.2278 14.8181 15.8581L10.3 11.4555C9.8 11.8452 9.225 12.1538 8.575 12.3812C7.925 12.6085 7.23333 12.7222 6.5 12.7222C4.68333 12.7222 3.14583 12.1091 1.8875 10.883C0.629167 9.65684 0 8.15866 0 6.38846C0 4.61825 0.629167 3.12007 1.8875 1.89392C3.14583 0.667764 4.68333 0.0546875 6.5 0.0546875C8.31667 0.0546875 9.85417 0.667764 11.1125 1.89392C12.3708 3.12007 13 4.61825 13 6.38846C13 7.10304 12.8833 7.77701 12.65 8.41039C12.4167 9.04377 12.1 9.60406 11.7 10.0913L16.1819 14.4585C16.5754 14.842 16.5754 15.4746 16.1819 15.8581ZM6.5 10.7734C7.75 10.7734 8.8125 10.3471 9.6875 9.49444C10.5625 8.64182 11 7.60649 11 6.38846C11 5.17042 10.5625 4.1351 9.6875 3.28247C8.8125 2.42985 7.75 2.00354 6.5 2.00354C5.25 2.00354 4.1875 2.42985 3.3125 3.28247C2.4375 4.1351 2 5.17042 2 6.38846C2 7.60649 2.4375 8.64182 3.3125 9.49444C4.1875 10.3471 5.25 10.7734 6.5 10.7734Z" fill="#A1A1AA"/>
</svg>
