<svg width="32" height="32" viewBox="0 0 32 32" fill="none" xmlns="http://www.w3.org/2000/svg">
<path d="M24.6252 22.4403L25.1452 26.6537C25.2785 27.7603 24.0918 28.5337 23.1452 27.9603L17.5585 24.6403C16.9452 24.6403 16.3452 24.6003 15.7585 24.5203C16.7691 23.3488 17.3272 21.8542 17.3318 20.307C17.3318 16.5203 14.0518 13.4537 9.99849 13.4537C8.45182 13.4537 7.02516 13.8937 5.83849 14.667C5.79849 14.3337 5.78516 14.0003 5.78516 13.6537C5.78516 7.58699 11.0518 2.66699 17.5585 2.66699C24.0652 2.66699 29.3318 7.58699 29.3318 13.6537C29.3318 17.2537 27.4785 20.4403 24.6252 22.4403Z" stroke="#3F3F46" stroke-width="1.5" stroke-linecap="round" stroke-linejoin="round"/>
<path d="M17.3346 20.3065C17.3346 21.8931 16.748 23.3598 15.7613 24.5198C14.4413 26.1198 12.348 27.1465 10.0013 27.1465L6.5213 29.2131C5.93464 29.5731 5.18797 29.0798 5.26797 28.3998L5.6013 25.7731C3.81464 24.5331 2.66797 22.5465 2.66797 20.3065C2.66797 17.9598 3.9213 15.8931 5.8413 14.6665C7.02797 13.8931 8.45464 13.4531 10.0013 13.4531C14.0546 13.4531 17.3346 16.5198 17.3346 20.3065Z" stroke="#3F3F46" stroke-width="1.5" stroke-linecap="round" stroke-linejoin="round"/>
</svg>
